<svg xmlns="http://www.w3.org/2000/svg" xmlns:xlink="http://www.w3.org/1999/xlink" width="110" height="192" viewBox="0 0 110 192">
  <defs>
    <clipPath id="clip-path">
      <rect id="Rectangle_2976" data-name="Rectangle 2976" width="110" height="192" transform="translate(0.328 1006)" fill="#fff"/>
    </clipPath>
  </defs>
  <g id="about_shapes_left" transform="translate(-0.328 -1006)" clip-path="url(#clip-path)">
    <g id="Group_24" data-name="Group 24" transform="translate(-16.672 1006)">
      <path id="Path_321" data-name="Path 321" d="M633.59,228.459c4.957,18.414,10.421,36.614,16.091,54.813,1.359,4.38,5.507,5.756,9.267,3.2,14.8-10.05,29.6-19.937,43.609-31.063,2.7-2.143,2.108-6.454-.56-8.278-16.409-11.264-38.575-27.9-59.4-28.009-5.292-.034-8.992,7.426-3.623,10.524,8.4,4.845,18.475,6.574,27.45,10.3,10.36,4.311,20.617,9.362,29.764,15.893.207-3.02.4-6.04.611-9.061-15.66,9.646-30.409,20.454-45.3,31.227l8.794,1.764c-6.35-17.976-12.881-35.83-19.929-53.548-1.48-3.734-7.83-1.686-6.772,2.237Z" transform="translate(-633.472 -219.123)" fill="#ffec94"/>
      <path id="Path_322" data-name="Path 322" d="M51.393,37.527C34.615,29.489,17.435,20.249,2.311,9.394-3.244,5.408,2.226-2.367,8.084.7,24.252,9.171,40.006,20.111,54.427,31.262c2.9,2.239.768,8.084-3.034,6.265Z" transform="translate(76.114 89.996) rotate(8)" fill="#f7c3c3"/>
      <path id="Path_320" data-name="Path 320" d="M592.7,218.718c-4.675,4.487-6.45,11.473-2,16.864,4.2,5.073,12.314,6.15,17.557,2.105,12.65-9.766-.536-27.783-14.187-24.054-2.528.69-1.9,4.294.6,4.437,3.994.226,8.267.381,11.455,3.176a8.3,8.3,0,0,1,.69,11.544c-7.44,9.15-20.367-4.324-12.549-12.5a1.109,1.109,0,0,0-1.567-1.567Z" transform="translate(-565.327 -47.87)" fill="#89cff0"/>
    </g>
  </g>
</svg>
