<svg xmlns="http://www.w3.org/2000/svg" xmlns:xlink="http://www.w3.org/1999/xlink" width="25.021" height="25.02" viewBox="0 0 25.021 25.02">
  <defs>
    <radialGradient id="radial-gradient" cx="0.205" cy="0.874" r="1.103" gradientTransform="translate(0)" gradientUnits="objectBoundingBox">
      <stop offset="0" stop-color="#fae100"/>
      <stop offset="0.054" stop-color="#fadc04"/>
      <stop offset="0.117" stop-color="#fbce0e"/>
      <stop offset="0.183" stop-color="#fcb720"/>
      <stop offset="0.251" stop-color="#fe9838"/>
      <stop offset="0.305" stop-color="#ff7950"/>
      <stop offset="0.492" stop-color="#ff1c74"/>
      <stop offset="1" stop-color="#6c1cd1"/>
    </radialGradient>
    <linearGradient id="linear-gradient" x1="0.369" y1="0.426" x2="-1.54" y2="-0.648" gradientUnits="objectBoundingBox">
      <stop offset="0" stop-color="#a1b5d8" stop-opacity="0"/>
      <stop offset="0.309" stop-color="#90a2bd" stop-opacity="0.31"/>
      <stop offset="0.755" stop-color="#7c8b9c" stop-opacity="0.757"/>
      <stop offset="1" stop-color="#748290"/>
    </linearGradient>
    <linearGradient id="linear-gradient-2" x1="0.5" y1="0.413" x2="0.5" y2="1.193" gradientUnits="objectBoundingBox">
      <stop offset="0" stop-color="#fae100" stop-opacity="0"/>
      <stop offset="0.307" stop-color="#fca800" stop-opacity="0.306"/>
      <stop offset="0.627" stop-color="#fe7300" stop-opacity="0.627"/>
      <stop offset="0.868" stop-color="#ff5200" stop-opacity="0.867"/>
      <stop offset="1" stop-color="#ff4500"/>
    </linearGradient>
    <linearGradient id="linear-gradient-3" x1="0.316" y1="0.311" x2="0.012" y2="0.005" gradientUnits="objectBoundingBox">
      <stop offset="0" stop-color="#833ab4" stop-opacity="0"/>
      <stop offset="1" stop-color="#833ab4"/>
    </linearGradient>
    <linearGradient id="linear-gradient-4" x1="0.582" y1="0.887" x2="0.418" y2="0.113" xlink:href="#linear-gradient-3"/>
    <linearGradient id="linear-gradient-5" x1="0.605" y1="0.605" x2="-0.16" y2="-0.16" xlink:href="#linear-gradient-3"/>
    <linearGradient id="linear-gradient-6" x1="0.376" y1="0.332" x2="-0.072" y2="-0.063" xlink:href="#linear-gradient-3"/>
    <linearGradient id="linear-gradient-7" x1="0.816" y1="0.182" x2="0.172" y2="0.835" gradientUnits="objectBoundingBox">
      <stop offset="0" stop-color="#833ab4"/>
      <stop offset="0.092" stop-color="#9c3495"/>
      <stop offset="0.293" stop-color="#dc2546"/>
      <stop offset="0.392" stop-color="#fd1d1d"/>
      <stop offset="0.559" stop-color="#fc6831"/>
      <stop offset="0.689" stop-color="#fc9b40"/>
      <stop offset="0.752" stop-color="#fcaf45"/>
      <stop offset="0.781" stop-color="#fdb750"/>
      <stop offset="0.866" stop-color="#fecb6a"/>
      <stop offset="0.942" stop-color="#ffd87a"/>
      <stop offset="1" stop-color="#ffdc80"/>
    </linearGradient>
  </defs>
  <g id="add-instagram" transform="translate(0.001 0)">
    <path id="Path_26596" data-name="Path 26596" d="M24.592,4.475A4.556,4.556,0,0,0,20.545.428a75.571,75.571,0,0,0-16.07,0A4.556,4.556,0,0,0,.428,4.475a75.571,75.571,0,0,0,0,16.07,4.556,4.556,0,0,0,4.047,4.047,75.572,75.572,0,0,0,16.07,0,4.556,4.556,0,0,0,4.047-4.047,75.571,75.571,0,0,0,0-16.07Zm0,0" transform="translate(0 0)" fill="url(#radial-gradient)"/>
    <path id="Path_26597" data-name="Path 26597" d="M50.656,32.806a4.043,4.043,0,0,0-3.591-3.591,67.086,67.086,0,0,0-14.26,0,4.043,4.043,0,0,0-3.591,3.591,67.084,67.084,0,0,0,0,14.26,4.043,4.043,0,0,0,3.591,3.591,67.059,67.059,0,0,0,14.26,0,4.042,4.042,0,0,0,3.591-3.591,67.058,67.058,0,0,0,0-14.26Zm0,0" transform="translate(-27.425 -27.425)" fill="url(#linear-gradient)"/>
    <path id="Path_26598" data-name="Path 26598" d="M7.672,409.805q.026.259.053.519a4.556,4.556,0,0,0,4.047,4.047,75.572,75.572,0,0,0,16.07,0,4.556,4.556,0,0,0,4.047-4.047q.028-.259.054-.519Zm0,0" transform="translate(-7.297 -389.779)" fill="url(#linear-gradient-2)"/>
    <path id="Path_26599" data-name="Path 26599" d="M115.035,113.107a75.636,75.636,0,0,0,.426-8.635l-5.719-5.719a4.1,4.1,0,0,0-2.984-1.369c-2.522-.091-5.052-.086-7.574,0a4.047,4.047,0,0,0-3.935,3.55c-.066.365-.106.736-.158,1.1V108.1c.029.2.071.392.084.59a4.411,4.411,0,0,0,1.43,3.066l5.82,5.82a75.635,75.635,0,0,0,8.565-.426,4.556,4.556,0,0,0,4.047-4.047Zm0,0" transform="translate(-90.444 -92.562)" fill="url(#linear-gradient-3)"/>
    <path id="Path_26600" data-name="Path 26600" d="M144.676,141.116a4.556,4.556,0,0,1-4.047,4.047,75.683,75.683,0,0,1-8.564.426l-5.811-5.811a4.075,4.075,0,0,0,2.571.987c2.522.095,5.052.092,7.574,0a4.053,4.053,0,0,0,4-4.051c.076-2.422.076-4.85,0-7.271a4.222,4.222,0,0,0-1.014-2.679l5.715,5.715a75.776,75.776,0,0,1-.426,8.635Zm0,0" transform="translate(-120.084 -120.571)" fill="url(#linear-gradient-4)"/>
    <path id="Path_26601" data-name="Path 26601" d="M180.952,175.291a4.007,4.007,0,1,0-5.662,5.662l9.272,9.272q.736-.064,1.472-.143a4.556,4.556,0,0,0,4.047-4.047q.078-.736.143-1.472Zm0,0" transform="translate(-165.49 -165.49)" fill="url(#linear-gradient-5)"/>
    <path id="Path_26602" data-name="Path 26602" d="M332.459,158.581,325,151.119a.952.952,0,1,0-1.335,1.335l8.663,8.664Q332.414,159.849,332.459,158.581Zm0,0" transform="translate(-307.488 -143.376)" fill="url(#linear-gradient-6)"/>
    <path id="Path_26603" data-name="Path 26603" d="M95.09,102.037c.052-.368.092-.738.158-1.1a4.047,4.047,0,0,1,3.935-3.55c2.522-.087,5.052-.091,7.574,0a4.053,4.053,0,0,1,4,4.051q.114,3.633,0,7.271a4.053,4.053,0,0,1-4,4.051c-2.522.091-5.052.093-7.574,0a4.123,4.123,0,0,1-4.009-4.062c-.013-.2-.056-.393-.084-.59v-6.067Zm7.865,9.368c1.154,0,2.309.035,3.462-.008a2.816,2.816,0,0,0,2.961-2.951q.078-3.374,0-6.752a2.8,2.8,0,0,0-2.961-2.947q-3.439-.073-6.881,0a2.782,2.782,0,0,0-2.956,2.9q-.093,3.417,0,6.838a2.8,2.8,0,0,0,2.956,2.908c1.138.042,2.279.008,3.419.008Zm0,0" transform="translate(-90.443 -92.561)" fill="url(#linear-gradient-7)"/>
    <g id="Group_3082" data-name="Group 3082" transform="translate(4.646 4.756)">
      <path id="Path_26604" data-name="Path 26604" d="M95.09,102.037c.052-.368.092-.738.158-1.1a4.047,4.047,0,0,1,3.935-3.55c2.522-.087,5.052-.091,7.574,0a4.053,4.053,0,0,1,4,4.051q.114,3.633,0,7.271a4.053,4.053,0,0,1-4,4.051c-2.522.091-5.052.093-7.574,0a4.123,4.123,0,0,1-4.009-4.062c-.013-.2-.056-.393-.084-.59v-6.067Zm7.865,9.368c1.154,0,2.309.035,3.462-.008a2.816,2.816,0,0,0,2.961-2.951q.078-3.374,0-6.752a2.8,2.8,0,0,0-2.961-2.947q-3.439-.073-6.881,0a2.782,2.782,0,0,0-2.956,2.9q-.093,3.417,0,6.838a2.8,2.8,0,0,0,2.956,2.908c1.138.042,2.279.008,3.419.008Zm0,0" transform="translate(-95.09 -97.317)" fill="#fff"/>
      <path id="Path_26605" data-name="Path 26605" d="M178,174A4.007,4.007,0,1,0,182.007,178,4.008,4.008,0,0,0,178,174Zm0,6.635A2.628,2.628,0,1,1,180.628,178,2.628,2.628,0,0,1,178,180.631Zm0,0" transform="translate(-170.136 -170.249)" fill="#fff"/>
      <path id="Path_26606" data-name="Path 26606" d="M325.192,151.7a.953.953,0,1,1-.953-.954A.953.953,0,0,1,325.192,151.7Zm0,0" transform="translate(-312.134 -148.132)" fill="#fff"/>
    </g>
  </g>
</svg>
