<svg xmlns="http://www.w3.org/2000/svg" xmlns:xlink="http://www.w3.org/1999/xlink" width="25.023" height="25.023" viewBox="0 0 25.023 25.023">
  <defs>
    <linearGradient id="linear-gradient" x1="0.069" y1="0.935" x2="0.93" y2="0.074" gradientUnits="objectBoundingBox">
      <stop offset="0" stop-color="#e8ebee"/>
      <stop offset="1" stop-color="#e8ebee" stop-opacity="0"/>
    </linearGradient>
    <clipPath id="clip-path">
      <path id="SVGID_2_" d="M20.572,24.619a75.486,75.486,0,0,1-16.071,0A4.551,4.551,0,0,1,.454,20.572,75.486,75.486,0,0,1,.454,4.5,4.556,4.556,0,0,1,4.5.454a75.486,75.486,0,0,1,16.071,0A4.556,4.556,0,0,1,24.619,4.5a75.486,75.486,0,0,1,0,16.071A4.547,4.547,0,0,1,20.572,24.619Z" transform="translate(-0.025 -0.025)"/>
    </clipPath>
    <linearGradient id="linear-gradient-2" x1="0.113" y1="0.455" x2="0.872" y2="-0.247" gradientUnits="objectBoundingBox">
      <stop offset="0" stop-color="#b7c1ce"/>
      <stop offset="1" stop-color="#b8c1cf" stop-opacity="0"/>
    </linearGradient>
    <linearGradient id="linear-gradient-3" x1="0.5" y1="0.809" x2="0.5" y2="0.978" gradientUnits="objectBoundingBox">
      <stop offset="0" stop-color="#94a1b2" stop-opacity="0"/>
      <stop offset="1" stop-color="#94a1b2"/>
    </linearGradient>
    <linearGradient id="linear-gradient-4" x1="0.382" y1="0.315" x2="0.748" y2="-0.076" gradientUnits="objectBoundingBox">
      <stop offset="0" stop-color="#f00044"/>
      <stop offset="1" stop-color="#c70038"/>
    </linearGradient>
    <linearGradient id="linear-gradient-5" x1="0.01" y1="0.94" x2="1.092" y2="0.461" gradientUnits="objectBoundingBox">
      <stop offset="0" stop-color="#08fff9"/>
      <stop offset="1" stop-color="#07d4cf"/>
    </linearGradient>
  </defs>
  <g id="add-tiktok" transform="translate(-0.025 -0.025)">
    <path id="Path_26612" data-name="Path 26612" d="M20.572,24.619a75.486,75.486,0,0,1-16.071,0A4.551,4.551,0,0,1,.454,20.572,75.486,75.486,0,0,1,.454,4.5,4.556,4.556,0,0,1,4.5.454a75.486,75.486,0,0,1,16.071,0A4.556,4.556,0,0,1,24.619,4.5a75.486,75.486,0,0,1,0,16.071A4.547,4.547,0,0,1,20.572,24.619Z" transform="translate(0 0)" fill="#fffcf8"/>
    <path id="Path_26613" data-name="Path 26613" d="M46.3,49.907a67.389,67.389,0,0,1-14.316,0,4.066,4.066,0,0,1-3.6-3.607,67.389,67.389,0,0,1,0-14.316,4.066,4.066,0,0,1,3.607-3.6,67.39,67.39,0,0,1,14.316,0,4.066,4.066,0,0,1,3.607,3.607,67.389,67.389,0,0,1,0,14.316A4.075,4.075,0,0,1,46.3,49.907Z" transform="translate(-26.608 -26.608)" fill="url(#linear-gradient)"/>
    <g id="Group_3085" data-name="Group 3085" transform="translate(0.025 0.025)">
      <g id="Group_3084" data-name="Group 3084" transform="translate(0 0)">
        <g id="Group_3083" data-name="Group 3083" clip-path="url(#clip-path)">
          <path id="Path_26614" data-name="Path 26614" d="M140,111.223c-.015,0-14.233-14.223-14.233-14.223h-2.39v7.224l-1.505-1.515a4.582,4.582,0,0,0-3.93,7.771l10.494,10.494a4.54,4.54,0,0,0,3.236,1.344,5.318,5.318,0,0,0,.689-.049,4.587,4.587,0,0,0,3.9-4.511l0-5.411a6.064,6.064,0,0,0,1.354.792,6.137,6.137,0,0,0,2.385.484Z" transform="translate(-110.902 -92.26)" fill="url(#linear-gradient-2)"/>
        </g>
      </g>
    </g>
    <path id="Path_26615" data-name="Path 26615" d="M20.572.454A75.486,75.486,0,0,0,4.5.454,4.551,4.551,0,0,0,.454,4.5a75.486,75.486,0,0,0,0,16.071A4.556,4.556,0,0,0,4.5,24.619a75.486,75.486,0,0,0,16.071,0,4.556,4.556,0,0,0,4.047-4.047,75.486,75.486,0,0,0,0-16.071A4.547,4.547,0,0,0,20.572.454Z" transform="translate(0 0)" fill="url(#linear-gradient-3)"/>
    <g id="Group_3086" data-name="Group 3086" transform="translate(5.718 4.765)">
      <path id="Path_26616" data-name="Path 26616" d="M307.208,113.953a3.708,3.708,0,0,1-.758-2.248h-.01v0h-.64A3.726,3.726,0,0,0,307.208,113.953Z" transform="translate(-296.548 -110.982)" fill="#f00044"/>
      <path id="Path_26617" data-name="Path 26617" d="M167.79,229.076a2.192,2.192,0,0,0-1.149,4.057,2.193,2.193,0,0,1,1.867-3.338,2.144,2.144,0,0,1,.689.112v-2.454a4.572,4.572,0,0,0-.689-.054h-.029v1.789A2.167,2.167,0,0,0,167.79,229.076Z" transform="translate(-163.2 -221.026)" fill="#f00044"/>
      <path id="Path_26618" data-name="Path 26618" d="M163.706,186.668a3.8,3.8,0,0,1-.714-.068v1.745a6.05,6.05,0,0,1-2.385-.484,5.956,5.956,0,0,1-1.354-.792v5.411h0a4.587,4.587,0,0,1-7.449,3.558q.161.2.337.381a4.539,4.539,0,0,0,3.241,1.344,5.322,5.322,0,0,0,.689-.049,4.587,4.587,0,0,0,3.9-4.511h0v-5.416a6.113,6.113,0,0,0,3.739,1.276Z" transform="translate(-150.075 -182.221)" fill="url(#linear-gradient-4)"/>
      <path id="Path_26619" data-name="Path 26619" d="M336.853,159.208v-.65a3.722,3.722,0,0,1-2.253-.758A3.749,3.749,0,0,0,336.853,159.208Z" transform="translate(-323.94 -154.828)" fill="#08fff9"/>
      <path id="Path_26620" data-name="Path 26620" d="M188.762,110.148a2.144,2.144,0,0,0,.689-.112,2.191,2.191,0,0,0,1.5-2.077l0-3.627V97.719h1.755a3.8,3.8,0,0,1-.068-.714h-.01v0h-2.39v6.618l0,3.627a2.191,2.191,0,0,1-1.5,2.077,2.144,2.144,0,0,1-.689.112,2.183,2.183,0,0,1-1.149-.323A2.191,2.191,0,0,0,188.762,110.148Z" transform="translate(-183.459 -97)" fill="url(#linear-gradient-5)"/>
      <path id="Path_26621" data-name="Path 26621" d="M118.563,214.763a4.561,4.561,0,0,1,3.211-1.344v-.665a4.582,4.582,0,0,0-3.93,7.771,4.1,4.1,0,0,0,.381.337,4.586,4.586,0,0,1,.337-6.1Z" transform="translate(-116.5 -207.045)" fill="#08fff9"/>
      <path id="Path_26622" data-name="Path 26622" d="M135.66,125.757a4.587,4.587,0,0,0,3.9-4.511h0V115.83a6.113,6.113,0,0,0,3.739,1.276v-1.745a5.895,5.895,0,0,1-3.666-3.661h-1.755v6.618l0,3.627a2.191,2.191,0,0,1-1.5,2.077,2.144,2.144,0,0,1-.689.112,2.574,2.574,0,0,1-.718-5.1,2.144,2.144,0,0,1,.689.112v-1.784a4.265,4.265,0,1,0-.689,8.451A6.324,6.324,0,0,0,135.66,125.757Z" transform="translate(-130.386 -110.981)"/>
    </g>
  </g>
</svg>
