<svg xmlns="http://www.w3.org/2000/svg" width="28.334" height="33.172" viewBox="0 0 28.334 33.172">
  <g id="apple_icon" transform="translate(-37.336)">
    <g id="Group_33" data-name="Group 33" transform="translate(50.954)">
      <g id="Group_32" data-name="Group 32" transform="translate(0)">
        <path id="Path_344" data-name="Path 344" d="M254.289,0a7.784,7.784,0,0,0-5.04,2.728,6.761,6.761,0,0,0-1.65,5.254,6.57,6.57,0,0,0,5.086-2.6A7.3,7.3,0,0,0,254.289,0Z" transform="translate(-247.522)" fill="#fff"/>
      </g>
    </g>
    <g id="Group_35" data-name="Group 35" transform="translate(37.336 7.764)">
      <g id="Group_34" data-name="Group 34" transform="translate(0)">
        <path id="Path_345" data-name="Path 345" d="M64.71,123.2a8.4,8.4,0,0,0-6.338-3.365c-2.975,0-4.234,1.424-6.3,1.424-2.131,0-3.75-1.42-6.323-1.42a8.6,8.6,0,0,0-6.925,4.186c-2.4,3.719-1.988,10.712,1.9,16.669,1.391,2.131,3.249,4.528,5.679,4.549,2.162.021,2.772-1.387,5.7-1.4s3.485,1.42,5.643,1.4c2.432-.019,4.391-2.674,5.782-4.806a23.9,23.9,0,0,0,2.142-4.022A7.313,7.313,0,0,1,64.71,123.2Z" transform="translate(-37.336 -119.84)" fill="#fff"/>
      </g>
    </g>
  </g>
</svg>
