<svg xmlns="http://www.w3.org/2000/svg" width="85.735" height="165.578" viewBox="0 0 85.735 165.578">
  <g id="banner_text_shape" transform="translate(-64.767 -503.975)">
    <path id="Path_322" data-name="Path 322" d="M51.393.346C34.615,8.384,17.435,17.623,2.311,28.479c-5.556,3.986-.086,11.761,5.773,8.695C24.252,28.7,40.006,17.761,54.427,6.611c2.9-2.239.768-8.084-3.034-6.265Z" transform="translate(150.502 661.792) rotate(172)" fill="#f7c3c3"/>
    <path id="Path_320" data-name="Path 320" d="M592.7,218.718c-4.675,4.487-6.45,11.473-2,16.864,4.2,5.073,12.314,6.15,17.557,2.105,12.65-9.766-.536-27.784-14.187-24.055-2.528.69-1.9,4.294.6,4.437,3.994.226,8.267.381,11.455,3.176a8.3,8.3,0,0,1,.69,11.544c-7.44,9.15-20.367-4.324-12.549-12.5a1.109,1.109,0,0,0-1.567-1.567Z" transform="translate(-523.365 290.843)" fill="#89cff0"/>
  </g>
</svg>
