<svg xmlns="http://www.w3.org/2000/svg" width="48.419" height="50.005" viewBox="0 0 48.419 50.005">
  <g id="beautyshot" transform="translate(-8.12 0)">
    <path id="Path_27877" data-name="Path 27877" d="M365.307,24.967a7.875,7.875,0,1,0-9.02-12.648Z" transform="translate(-314.163 -9.035)" fill="#ffec94"/>
    <path id="Path_27878" data-name="Path 27878" d="M45.062,98.107l7.713,23.2-16.5.049-1.639-2.348A6.8,6.8,0,0,0,29.06,116.1H26.177A3.479,3.479,0,0,1,22.7,112.62v-1.685l-.042-.018a1.154,1.154,0,0,1-.7-1.062V109.3l-.172-.219a1.538,1.538,0,0,1-.216-1.53l.242-.6a2.81,2.81,0,0,0,.207-1.058v-2.079c0-.485-2.092-1.253-3.479-2.033a.82.82,0,0,1-.1-1.361A10.308,10.308,0,0,0,22.227,91.9c0-6.992,5.424-11.787,5.424-11.787Z" transform="translate(-9.023 -72.29)" fill="#fdc9a6"/>
    <path id="Path_27879" data-name="Path 27879" d="M123.6,10c-8.681,0-15.467,6.267-10.935,14.743s15.688,7.517,15.731,13.094c.039,5.065-3.807,4.87-3.807,4.87s2.577,7.42,9.336,6.956c12.186-5.973,13.5-19.831,8.331-29.4C136.514,9.628,123.6,10,123.6,10Z" transform="translate(-93.031 -9.021)" fill="#ffec94"/>
    <path id="Path_27882" data-name="Path 27882" d="M237.032,295.117a.975.975,0,0,0,1.3-.462l.162-.34a.976.976,0,1,0-1.763-.839l-.162.34A.976.976,0,0,0,237.032,295.117Z" transform="translate(-206.053 -264.31)"/>
    <path id="Path_27883" data-name="Path 27883" d="M85.106,233.311a.976.976,0,0,0-1.381,0,2.078,2.078,0,0,1-2.936,0,.976.976,0,0,0-1.381,1.381,4.033,4.033,0,0,0,5.7,0A.976.976,0,0,0,85.106,233.311Z" transform="translate(-64.068 -210.266)"/>
    <path id="Path_27884" data-name="Path 27884" d="M53.95,2.594a8.86,8.86,0,0,0-12.483-.032A23.5,23.5,0,0,0,38.038,1.19,25.2,25.2,0,0,0,30.559,0c-5.3,0-9.916,2.226-12.06,5.8a9.009,9.009,0,0,0-.708,1.464c-1.009.961-5.565,5.669-5.565,12.344a9.367,9.367,0,0,1-3.413,7.755,1.8,1.8,0,0,0,.221,2.984c.48.27,1.021.529,1.543.78.462.222,1.118.536,1.438.741v1.739a1.828,1.828,0,0,1-.135.691l-.242.6a2.519,2.519,0,0,0,.317,2.453v.214a2.127,2.127,0,0,0,.743,1.618v1.146a4.46,4.46,0,0,0,4.455,4.455h2.883a.976.976,0,1,0,0-1.953H17.155a2.506,2.506,0,0,1-2.5-2.5V38.645a.976.976,0,0,0-.593-.9l-.042-.018a.178.178,0,0,1-.108-.163v-.551a.977.977,0,0,0-.209-.6l-.172-.219a.563.563,0,0,1-.079-.558l.242-.6a3.771,3.771,0,0,0,.279-1.426V31.533c0-.941-.958-1.4-2.546-2.162-.417-.2-.846-.406-1.225-.609a11.33,11.33,0,0,0,3.983-9.15,15.1,15.1,0,0,1,3.051-8.692,12.4,12.4,0,0,0,1.544,5.262c2.506,4.687,6.87,6.651,10.376,8.229,3.336,1.5,5.224,2.447,5.239,4.412a4.235,4.235,0,0,1-.986,3.155,2.721,2.721,0,0,1-1.795.732.959.959,0,0,0-.834.381.975.975,0,0,0-.138.915,14.134,14.134,0,0,0,2.3,3.955A9.4,9.4,0,0,0,40.2,41.637l2.623,7.692a.976.976,0,0,0,1.848-.63l-2.584-7.575a20.112,20.112,0,0,0,9.928-11.759,23.68,23.68,0,0,0,.264-12.946A8.853,8.853,0,0,0,53.95,2.594ZM50.161,28.77a18.283,18.283,0,0,1-9.519,10.909,7.362,7.362,0,0,1-6.16-2.92,12.447,12.447,0,0,1-1.518-2.316,4.478,4.478,0,0,0,1.773-1.037,6.036,6.036,0,0,0,1.607-4.6c-.025-3.313-3.117-4.7-6.39-6.178-3.4-1.533-7.263-3.27-9.455-7.369a8.82,8.82,0,0,1-.956-7.092l.009-.024a7.126,7.126,0,0,1,.624-1.337c1.794-2.993,5.778-4.853,10.4-4.853H30.6a23.387,23.387,0,0,1,6.854,1.1A17.956,17.956,0,0,1,48.369,11.7,22.324,22.324,0,0,1,50.161,28.77Zm1.54-14.3a24.487,24.487,0,0,0-1.614-3.693,19.192,19.192,0,0,0-6.822-7.21,6.9,6.9,0,1,1,8.436,10.9Z" transform="translate(0 0)"/>
    <path id="Path_27886" data-name="Path 27886" d="M263.466,492.006a.976.976,0,1,0,.69.286A.982.982,0,0,0,263.466,492.006Z" transform="translate(-229.527 -443.954)"/>
    <path id="Path_27887" data-name="Path 27887" d="M149.5,52.613a5.681,5.681,0,0,0-2.917,8.43.976.976,0,0,0,1.722-.921,4.127,4.127,0,0,1-.46-3.368,4.183,4.183,0,0,1,2.422-2.346.976.976,0,1,0-.768-1.8Z" transform="translate(-124.151 -47.403)"/>
    <path id="Path_27888" data-name="Path 27888" d="M212.541,46h-.055a.976.976,0,0,0,.006,1.953h.049a.976.976,0,0,0,0-1.953Z" transform="translate(-183.531 -41.51)"/>
  </g>
</svg>
