<svg id="bell" xmlns="http://www.w3.org/2000/svg" width="23.426" height="28.111" viewBox="0 0 23.426 28.111">
  <path id="Path_25748" data-name="Path 25748" d="M24.7,19.81a7.845,7.845,0,0,1-2.786-6V10.541a8.206,8.206,0,0,0-7.028-8.105V1.171a1.171,1.171,0,0,0-2.343,0V2.436a8.2,8.2,0,0,0-7.028,8.105v3.266a7.854,7.854,0,0,1-2.8,6.012A2.049,2.049,0,0,0,4.05,23.425H23.376A2.05,2.05,0,0,0,24.7,19.81Z" transform="translate(-2 0)" fill="#fff"/>
  <path id="Path_25749" data-name="Path 25749" d="M12.629,24.514A4.4,4.4,0,0,0,16.933,21H8.326A4.4,4.4,0,0,0,12.629,24.514Z" transform="translate(-0.917 3.597)" fill="#fff"/>
</svg>
