<svg xmlns="http://www.w3.org/2000/svg" width="21.083" height="21.785" viewBox="0 0 21.083 21.785">
  <g id="bigender" transform="translate(-70.333 1.75)">
    <path id="Path_26955" data-name="Path 26955" d="M141.354,319.309h.443a.368.368,0,0,1,.368.368v.859a1.169,1.169,0,1,0,2.338,0v-.859a.368.368,0,0,1,.368-.368h.456a1.014,1.014,0,1,0,0-2.029h-.456a.368.368,0,0,1-.368-.368v-2.959a.368.368,0,0,0-.368-.368h-1.591a.368.368,0,0,0-.368.367l-.01,2.961a.368.368,0,0,1-.368.367h-.444a1.014,1.014,0,0,0,0,2.029Z" transform="translate(-62.478 -301.67)" fill="#ef7d92"/>
    <path id="Path_26956" data-name="Path 26956" d="M187.162,316.051v-2.1a.368.368,0,0,0-.368-.368H185.2a.368.368,0,0,0-.368.367l-.007,2.083A6.926,6.926,0,0,0,187.162,316.051Z" transform="translate(-105.132 -301.67)" fill="#eb6773"/>
    <path id="Path_26961" data-name="Path 26961" d="M.969,5.563h.443a.368.368,0,0,1,.368.368l.006,1.021a1.169,1.169,0,0,0,2.338,0l.019-1a.368.368,0,0,1,.368-.368h.456a.877.877,0,0,0,.97-.814,1.059,1.059,0,0,0-.988-.947H4.495a.368.368,0,0,1-.368-.368V.368A.368.368,0,0,0,3.758,0H2.167A.368.368,0,0,0,1.8.367l0,3.063a.4.4,0,0,1-.4.372H.951C.391,3.8,0,4.084,0,4.644A.915.915,0,0,0,.969,5.563Z" transform="translate(80.578 4.082) rotate(133)" fill="#f880f0"/>
    <path id="Path_26962" data-name="Path 26962" d="M2.334,3.368V.5c0-.278-.165-.5-.368-.5H.375C.172,0,.008.224.007.5L0,3.346A5.1,5.1,0,0,0,2.334,3.368Z" transform="translate(79.357 5.392) rotate(133)" fill="#d270cb"/>
    <path id="Path_26958" data-name="Path 26958" d="M269.356-1.744,267.1-1.75a1.239,1.239,0,0,0-1.239,1.232A1.236,1.236,0,0,0,266.38.49a.37.37,0,0,1,.052.564l-3.045,3.034a.368.368,0,0,0,0,.521l1.058,1.065a.368.368,0,0,0,.52,0l3.046-3.035a.37.37,0,0,1,.565.057,1.234,1.234,0,0,0,2.247-.7l.007-2.255a1.4,1.4,0,0,0-1.472-1.48Z" transform="translate(-179.413 0)" fill="#89b0e0"/>
    <path id="Path_26957" data-name="Path 26957" d="M264.963,90.213h0l-1.577,1.568a.368.368,0,0,0,0,.521l1.059,1.065a.368.368,0,0,0,.52,0l1.5-1.493.069-.07A6.365,6.365,0,0,0,264.963,90.213Z" transform="translate(-179.412 -87.694)" fill="#6197d5"/>
    <path id="Path_26959" data-name="Path 26959" d="M91.775,92.074a5.376,5.376,0,1,0,0,7.6A5.376,5.376,0,0,0,91.775,92.074Zm-1.734,5.87a2.925,2.925,0,1,1,0-4.136A2.925,2.925,0,0,1,90.041,97.944Z" transform="translate(-6.922 -87.761)" fill="#b9a0db"/>
    <path id="Path_26960" data-name="Path 26960" d="M84.247,99.758a15.591,15.591,0,0,1,.9-3.135,2.925,2.925,0,0,1,1.971-3.538,15.339,15.339,0,0,1,2.216-2.406,5.377,5.377,0,0,0-5.16,9Z" transform="translate(-6.896 -87.767)" fill="#928fd4"/>
    <path id="Path_26963" data-name="Path 26963" d="M3.494.007,1.239,0A1.235,1.235,0,0,0,.518,2.24c.187.134,2.062,2.017,2.195,2.206a1.235,1.235,0,0,0,2.247-.7l.007-2.255A1.4,1.4,0,0,0,3.494.007Z" transform="translate(70.419 3.303) rotate(-91)" fill="#f880f0"/>
  </g>
</svg>
