<svg xmlns="http://www.w3.org/2000/svg" width="24.996" height="25.003" viewBox="0 0 24.996 25.003">
  <path id="blue_settings" d="M27.433,17A3.217,3.217,0,0,1,29.5,14a12.75,12.75,0,0,0-1.543-3.717,3.26,3.26,0,0,1-1.308.28,3.209,3.209,0,0,1-2.936-4.518A12.711,12.711,0,0,0,20,4.5a3.214,3.214,0,0,1-6,0A12.75,12.75,0,0,0,10.28,6.043,3.209,3.209,0,0,1,7.345,10.56a3.154,3.154,0,0,1-1.308-.28A13.032,13.032,0,0,0,4.5,14a3.216,3.216,0,0,1,.007,6,12.75,12.75,0,0,0,1.543,3.717,3.211,3.211,0,0,1,4.238,4.238A12.824,12.824,0,0,0,14,29.5a3.208,3.208,0,0,1,5.989,0,12.75,12.75,0,0,0,3.717-1.543,3.214,3.214,0,0,1,4.238-4.238,12.824,12.824,0,0,0,1.543-3.717A3.232,3.232,0,0,1,27.433,17ZM17.057,22.2a5.208,5.208,0,1,1,5.208-5.208A5.206,5.206,0,0,1,17.057,22.2Z" transform="translate(-4.5 -4.5)" fill="#009eff"/>
</svg>
