<svg xmlns="http://www.w3.org/2000/svg" width="49.438" height="50.79" viewBox="0 0 49.438 50.79">
  <g id="bodyshot" transform="translate(0.138 0.75)">
    <g id="Path_27889" data-name="Path 27889" transform="translate(5.47 0.065)" fill="#89cff0" fill-rule="evenodd">
      <path d="M 21.6019229888916 48.18640899658203 L 16.60994148254395 48.18640899658203 C 14.75284194946289 48.18640899658203 13.24197196960449 47.0124397277832 13.24197196960449 45.56943893432617 L 13.24197196960449 33.62432098388672 L 13.24197196960449 32.62432098388672 L 12.24197196960449 32.62432098388672 L 11.6179723739624 32.62432098388672 C 9.760871887207031 32.62432098388672 8.250001907348633 31.45034980773926 8.250001907348633 30.00735092163086 L 8.250001907348633 18.70047950744629 C 8.250001907348633 16.1178092956543 10.88056182861328 14.0166597366333 14.11396217346191 14.0166597366333 L 24.09790229797363 14.0166597366333 C 27.33130264282227 14.0166597366333 29.96186256408691 16.1178092956543 29.96186256408691 18.70047950744629 L 29.96186256408691 30.00735092163086 C 29.96186256408691 31.45034980773926 28.45099258422852 32.62432098388672 26.59389305114746 32.62432098388672 L 25.96989250183105 32.62432098388672 L 24.96989250183105 32.62432098388672 L 24.96989250183105 33.62432098388672 L 24.96989250183105 45.56943893432617 C 24.96989250183105 47.0124397277832 23.45902252197266 48.18640899658203 21.6019229888916 48.18640899658203 Z" stroke="none"/>
      <path d="M 14.11396217346191 15.01665115356445 C 12.74521255493164 15.01665115356445 11.47452163696289 15.44466018676758 10.53599166870117 16.22182846069336 C 9.70671272277832 16.90853118896484 9.250001907348633 17.78879165649414 9.250001907348633 18.70046997070312 L 9.250001907348633 30.00735092163086 C 9.250001907348633 30.86873054504395 10.35653305053711 31.62432098388672 11.61797142028809 31.62432098388672 L 14.24197196960449 31.62432098388672 L 14.24197196960449 45.56942749023438 C 14.24197196960449 46.43080902099609 15.34850311279297 47.1864013671875 16.60994148254395 47.1864013671875 L 21.6019115447998 47.1864013671875 C 22.86336135864258 47.1864013671875 23.96989250183105 46.43080902099609 23.96989250183105 45.56942749023438 L 23.96989250183105 31.62432098388672 L 26.59389114379883 31.62432098388672 C 27.85533142089844 31.62432098388672 28.96186256408691 30.86873054504395 28.96186256408691 30.00735092163086 L 28.96186256408691 18.70046997070312 C 28.96186256408691 17.78879165649414 28.50516128540039 16.90851974487305 27.6758918762207 16.22182846069336 C 26.73736190795898 15.44466018676758 25.46667098999023 15.01665115356445 24.09790229797363 15.01665115356445 L 14.11396217346191 15.01665115356445 M 14.11396217346191 13.01665115356445 L 24.09790229797363 13.01665115356445 C 27.88880157470703 13.01665115356445 30.96186256408691 15.5613899230957 30.96186256408691 18.70046997070312 L 30.96186256408691 30.00735092163086 C 30.96186256408691 32.00495147705078 29.00626182556152 33.62432098388672 26.59389114379883 33.62432098388672 L 25.96989250183105 33.62432098388672 L 25.96989250183105 45.56942749023438 C 25.96989250183105 47.56703186035156 24.01429176330566 49.1864013671875 21.6019115447998 49.1864013671875 L 16.60994148254395 49.1864013671875 C 14.19757270812988 49.1864013671875 12.24197196960449 47.56703186035156 12.24197196960449 45.56942749023438 L 12.24197196960449 33.62432098388672 L 11.61797142028809 33.62432098388672 C 9.205602645874023 33.62432098388672 7.250001907348633 32.00495147705078 7.250001907348633 30.00735092163086 L 7.250001907348633 18.70046997070312 C 7.250001907348633 15.5613899230957 10.32311248779297 13.01665115356445 14.11396217346191 13.01665115356445 Z" stroke="none" fill="#000"/>
    </g>
    <g id="Group_5418" data-name="Group 5418" transform="translate(1.276 37.373)">
      <g id="Icon_feather-arrow-down" data-name="Icon feather-arrow-down" transform="translate(0 0)">
        <path id="Path_27900" data-name="Path 27900" d="M18,7.5V19.167" transform="translate(-13.812 -7.5)" fill="none" stroke="#000" stroke-linecap="round" stroke-linejoin="round" stroke-width="2"/>
        <path id="Path_27901" data-name="Path 27901" d="M15.876,18l-4.188,4.219L7.5,18" transform="translate(-7.5 -10.552)" fill="none" stroke="#000" stroke-linecap="round" stroke-linejoin="round" stroke-width="2"/>
      </g>
    </g>
    <g id="Icon_feather-arrow-down-2" data-name="Icon feather-arrow-down" transform="translate(39.51 0.825)">
      <path id="Path_27900-2" data-name="Path 27900" d="M18,19.167V7.5" transform="translate(-13.812 -7.5)" fill="none" stroke="#000" stroke-linecap="round" stroke-linejoin="round" stroke-width="2"/>
      <path id="Path_27901-2" data-name="Path 27901" d="M15.876,22.219,11.688,18,7.5,22.219" transform="translate(-7.5 -18)" fill="none" stroke="#000" stroke-linecap="round" stroke-linejoin="round" stroke-width="2"/>
    </g>
    <g id="Ellipse_247" data-name="Ellipse 247" transform="translate(18.276 -0.75)" fill="#fdc9a6" stroke="#000" stroke-width="2">
      <circle cx="6" cy="6" r="6" stroke="none"/>
      <circle cx="6" cy="6" r="5" fill="none"/>
    </g>
  </g>
</svg>
