<svg xmlns="http://www.w3.org/2000/svg" width="29.641" height="24.615" viewBox="0 0 29.641 24.615">
  <g id="camera" transform="translate(-0.5 -3.5)">
    <path id="Path_4108" data-name="Path 4108" d="M29.141,24.6a2.513,2.513,0,0,1-2.513,2.513H4.013A2.513,2.513,0,0,1,1.5,24.6V10.782A2.513,2.513,0,0,1,4.013,8.269H9.038L11.551,4.5H19.09L21.6,8.269h5.026a2.513,2.513,0,0,1,2.513,2.513Z" fill="none" stroke="#888" stroke-linecap="round" stroke-linejoin="round" stroke-width="2"/>
    <path id="Path_4109" data-name="Path 4109" d="M22.051,18.526A5.026,5.026,0,1,1,17.026,13.5,5.026,5.026,0,0,1,22.051,18.526Z" transform="translate(-1.705 -1.462)" fill="none" stroke="#888" stroke-linecap="round" stroke-linejoin="round" stroke-width="2"/>
  </g>
</svg>
