<svg xmlns="http://www.w3.org/2000/svg" width="30.692" height="27.729" viewBox="0 0 30.692 27.729">
  <g id="collaborations" transform="translate(0 -24.689)">
    <path id="collaborations-2" data-name="collaborations" d="M25.034,75.992a1.175,1.175,0,0,0,1.691-.032,1.193,1.193,0,0,0-.052-1.649l-3.326-3.326,1.273-1.273,2.564,2.564a1.174,1.174,0,0,0,1.661-1.661L18.9,60.671l-.776.776a5.886,5.886,0,0,1-8.324,0l-.637-.637,3.556-3.546H8.873l-1.59-1.59L0,62.955l5.87,5.87,0,0a3,3,0,0,1,1.772,2.7,2.983,2.983,0,0,1,2.933,2.933,2.983,2.983,0,0,1,2.933,2.924,2.949,2.949,0,0,1,1.522.443A29.9,29.9,0,0,1,17.407,80.1a1.176,1.176,0,0,0,1.692-.033,1.193,1.193,0,0,0-.052-1.648l-1.566-1.566,1.273-1.273,2.564,2.564a1.176,1.176,0,0,0,1.692-.033,1.193,1.193,0,0,0-.052-1.648l-2.544-2.544,1.273-1.273Z" transform="translate(0 -29.125)" fill="#009eff"/>
    <path id="Path_26949" data-name="Path 26949" d="M201.416,31.049,203.466,29l7.187,7.187,4.606-4.606-6.892-6.892-1.524,1.524-5.089,0-5.406,5.4A4.092,4.092,0,0,0,201.416,31.049Z" transform="translate(-184.566)" fill="#009eff"/>
    <path id="Path_26950" data-name="Path 26950" d="M43.815,302.331a1.174,1.174,0,0,0-2-.887l-1.076,1.076A1.174,1.174,0,1,0,42.4,304.18l1.069-1.085A1.18,1.18,0,0,0,43.815,302.331Z" transform="translate(-37.97 -259.828)" fill="#009eff"/>
    <path id="Path_26951" data-name="Path 26951" d="M80.018,350.307a1.176,1.176,0,0,0-1.66,0L76.5,352.165a1.174,1.174,0,0,0,1.66,1.66l1.772-1.772A1.187,1.187,0,0,0,80.018,350.307Z" transform="translate(-71.582 -305.758)" fill="#009eff"/>
    <path id="Path_26952" data-name="Path 26952" d="M141.421,399.618a1.177,1.177,0,0,0-1.9-.426h0c-.273.277-.827.825-1.1,1.1a1.174,1.174,0,0,0,1.661,1.661s1.14-1.114,1.221-1.254A1.176,1.176,0,0,0,141.421,399.618Z" transform="translate(-129.787 -351.731)" fill="#009eff"/>
    <circle id="Ellipse_172" data-name="Ellipse 172" cx="1.17" cy="1.17" r="1.17" transform="translate(12.311 50.078)" fill="#009eff"/>
  </g>
</svg>
