<svg id="contact_web" xmlns="http://www.w3.org/2000/svg" width="61" height="61" viewBox="0 0 61 61">
  <rect id="Rectangle_2953" data-name="Rectangle 2953" width="61" height="61" rx="6" fill="#89cff0"/>
  <g id="Icon_feather-globe" data-name="Icon feather-globe" transform="translate(16 16)">
    <path id="Path_27110" data-name="Path 27110" d="M32.742,17.871A14.871,14.871,0,1,1,17.871,3,14.871,14.871,0,0,1,32.742,17.871Z" transform="translate(-3 -3)" fill="none" stroke="#fff" stroke-linecap="round" stroke-linejoin="round" stroke-width="2"/>
    <path id="Path_27111" data-name="Path 27111" d="M3,18H32.742" transform="translate(-3 -3.129)" fill="none" stroke="#fff" stroke-linecap="round" stroke-linejoin="round" stroke-width="2"/>
    <path id="Path_27112" data-name="Path 27112" d="M15.429,3a33.427,33.427,0,0,1,3.429,14.871,33.427,33.427,0,0,1-3.429,14.871A33.427,33.427,0,0,1,12,17.871,33.427,33.427,0,0,1,15.429,3Z" transform="translate(-0.558 -3)" fill="none" stroke="#fff" stroke-linecap="round" stroke-linejoin="round" stroke-width="2"/>
  </g>
</svg>
