<svg id="dimand" xmlns="http://www.w3.org/2000/svg" width="53.531" height="60.086" viewBox="0 0 53.531 60.086">
  <g id="diamond" transform="translate(8.864 0)">
    <g id="Group_3566" data-name="Group 3566">
      <path id="Path_27006" data-name="Path 27006" d="M244.344,1.886v6.7a1.674,1.674,0,1,1-3.348,0v-6.7a1.674,1.674,0,0,1,3.348,0Z" transform="translate(-224.234 -0.188)" fill="#ffb15e"/>
      <path id="Path_27007" data-name="Path 27007" d="M97.987,9.579l-6.7-6.7A1.674,1.674,0,0,1,93.658.515l6.7,6.7A1.674,1.674,0,0,1,97.987,9.579Z" transform="translate(-90.78 -0.001)" fill="#ffb15e"/>
    </g>
    <g id="Group_3567" data-name="Group 3567" transform="translate(18.436 0.004)">
      <path id="Path_27008" data-name="Path 27008" d="M331.321,7.24l6.7-6.7a1.674,1.674,0,0,1,2.367,2.367l-6.7,6.7A1.674,1.674,0,0,1,331.321,7.24Z" transform="translate(-322.459 -0.033)" fill="#ffec94"/>
      <path id="Path_27009" data-name="Path 27009" d="M256,10.257V.212a1.615,1.615,0,0,1,1.674,1.674v6.7A1.615,1.615,0,0,1,256,10.257Z" transform="translate(-256 -0.192)" fill="#ffe182"/>
    </g>
  </g>
  <g id="diamond_1_" data-name="diamond (1)" transform="translate(0 14.861)">
    <path id="Path_27011" data-name="Path 27011" d="M266.887,172.138,256,203.518l26.766-31.38Z" transform="translate(-229.234 -158.294)" fill="#ffec94"/>
    <g id="Group_3568" data-name="Group 3568" transform="translate(0 0)">
      <path id="Path_27012" data-name="Path 27012" d="M11.075,39.724,0,53.568H15.879Z" transform="translate(0 -39.724)" fill="#ffcd73"/>
      <path id="Path_27013" data-name="Path 27013" d="M360.129,53.568h15.879L364.932,39.724Z" transform="translate(-322.476 -39.724)" fill="#ffcd73"/>
      <path id="Path_27014" data-name="Path 27014" d="M173.645,53.568,162.758,39.724,151.871,53.568Z" transform="translate(-135.992 -39.724)" fill="#ffcd73"/>
    </g>
    <path id="Path_27015" data-name="Path 27015" d="M121.621,39.724h-15.69l4.8,13.844Z" transform="translate(-94.856 -39.724)" fill="#ffaa64"/>
    <path id="Path_27016" data-name="Path 27016" d="M271.69,39.724H256l10.887,13.844Z" transform="translate(-229.234 -39.724)" fill="#ffec94"/>
    <path id="Path_27017" data-name="Path 27017" d="M151.871,172.138l10.887,31.38,10.887-31.38Z" transform="translate(-135.992 -158.294)" fill="#ffaa64"/>
    <path id="Path_27018" data-name="Path 27018" d="M0,172.138l26.766,31.38-10.887-31.38Z" transform="translate(0 -158.294)" fill="#ff8c5a"/>
  </g>
</svg>
