<svg xmlns="http://www.w3.org/2000/svg" width="16.194" height="16.194" viewBox="0 0 16.194 16.194">
  <g id="drop_logout" transform="translate(-24 -24)">
    <path id="Path_26866" data-name="Path 26866" d="M132.6,144.894l-3.159-3.159a.838.838,0,1,0-1.185,1.185l1.729,1.729h-9.146a.838.838,0,1,0,0,1.675h9.146l-1.729,1.729a.838.838,0,1,0,1.185,1.185l3.159-3.159A.838.838,0,0,0,132.6,144.894Z" transform="translate(-92.649 -113.39)" fill="#fe6290"/>
    <path id="Path_26867" data-name="Path 26867" d="M33.772,36.844a.838.838,0,0,0-.838.838v.838H25.675V25.675h7.259v.838a.838.838,0,1,0,1.675,0V25.4a1.4,1.4,0,0,0-1.4-1.4H25.4A1.4,1.4,0,0,0,24,25.4V38.8a1.4,1.4,0,0,0,1.4,1.4h7.818a1.4,1.4,0,0,0,1.4-1.4V37.681A.838.838,0,0,0,33.772,36.844Z" fill="#fe6290"/>
  </g>
</svg>
