<svg xmlns="http://www.w3.org/2000/svg" width="16.5" height="16.5" viewBox="0 0 16.5 16.5">
  <g id="drop_setting" transform="translate(-0.75 -0.75)">
    <path id="Path_26868" data-name="Path 26868" d="M17.591,15.546A2.046,2.046,0,1,1,15.546,13.5,2.046,2.046,0,0,1,17.591,15.546Z" transform="translate(-6.545 -6.545)" fill="none" stroke="#fe6290" stroke-linecap="round" stroke-linejoin="round" stroke-width="1.5"/>
    <path id="Path_26869" data-name="Path 26869" d="M14.046,11.046a1.125,1.125,0,0,0,.225,1.241l.041.041a1.364,1.364,0,1,1-1.93,1.93l-.041-.041a1.134,1.134,0,0,0-1.923.8v.116a1.364,1.364,0,0,1-2.727,0v-.061a1.125,1.125,0,0,0-.736-1.03,1.125,1.125,0,0,0-1.241.225l-.041.041a1.364,1.364,0,1,1-1.93-1.93l.041-.041a1.134,1.134,0,0,0-.8-1.923H2.864a1.364,1.364,0,1,1,0-2.727h.061a1.125,1.125,0,0,0,1.03-.736A1.125,1.125,0,0,0,3.73,5.714l-.041-.041a1.364,1.364,0,1,1,1.93-1.93l.041.041A1.125,1.125,0,0,0,6.9,4.009h.055a1.125,1.125,0,0,0,.682-1.03V2.864a1.364,1.364,0,0,1,2.727,0v.061a1.134,1.134,0,0,0,1.923.8l.041-.041a1.364,1.364,0,1,1,1.93,1.93l-.041.041A1.125,1.125,0,0,0,13.991,6.9v.055a1.125,1.125,0,0,0,1.03.682h.116a1.364,1.364,0,0,1,0,2.727h-.061a1.125,1.125,0,0,0-1.03.682Z" transform="translate(0 0)" fill="none" stroke="#fe6290" stroke-linecap="round" stroke-linejoin="round" stroke-width="1.5"/>
  </g>
</svg>
