<svg xmlns="http://www.w3.org/2000/svg" width="20.094" height="15.921" viewBox="0 0 20.094 15.921">
  <g id="drop-travelling" transform="translate(0 -53.164)">
    <g id="Group_8436" data-name="Group 8436" transform="translate(0 53.164)">
      <path id="Path_27466" data-name="Path 27466" d="M17.945,56.023h-4.4V53.8a.632.632,0,0,0-.632-.632H7.183a.632.632,0,0,0-.632.632v2.227h-4.4A2.151,2.151,0,0,0,0,58.172v8.765a2.151,2.151,0,0,0,2.148,2.148h15.8a2.151,2.151,0,0,0,2.148-2.148V58.172A2.151,2.151,0,0,0,17.945,56.023Zm-10.13-1.6h4.464v1.6H7.815ZM3.495,67.821H2.148a.885.885,0,0,1-.884-.884V58.172a.885.885,0,0,1,.884-.884H3.495Zm11.84,0H4.759V57.287H15.335V67.821Zm3.5-.884a.885.885,0,0,1-.884.884H16.6V57.287h1.347a.885.885,0,0,1,.884.884Z" transform="translate(0 -53.164)" fill="#fe6290"/>
    </g>
  </g>
</svg>
