<svg xmlns="http://www.w3.org/2000/svg" width="25.619" height="25.619" viewBox="0 0 25.619 25.619">
  <path id="emoji" d="M15.8,3A12.809,12.809,0,1,0,28.619,15.809,12.8,12.8,0,0,0,15.8,3Zm.013,23.057A10.247,10.247,0,1,1,26.057,15.809,10.245,10.245,0,0,1,15.809,26.057Zm4.483-11.528a1.921,1.921,0,1,0-1.921-1.921A1.919,1.919,0,0,0,20.293,14.528Zm-8.967,0A1.921,1.921,0,1,0,9.4,12.607,1.919,1.919,0,0,0,11.326,14.528Zm4.483,8.326a7.04,7.04,0,0,0,6.546-4.483H9.264A7.04,7.04,0,0,0,15.809,22.854Z" transform="translate(-3 -3)" fill="#888"/>
</svg>
