<svg xmlns="http://www.w3.org/2000/svg" width="44.457" height="44.594" viewBox="0 0 44.457 44.594">
  <g id="facebook_jd" transform="translate(-109.869 -742.83)">
    <g id="circle" transform="translate(110 743)">
      <circle id="Ellipse_117" data-name="Ellipse 117" cx="22" cy="22" r="22" fill="#fff"/>
      <path id="Path_3315" data-name="Path 3315" d="M1037.476,651.9c-2.471,1.137-17.76,4.913-26.193-10.41a21.131,21.131,0,0,1,3.264-23.787" transform="translate(-1008.096 -609.798)" fill="none" stroke="#3a5794" stroke-linecap="round" stroke-linejoin="round" stroke-width="2"/>
      <path id="Path_3316" data-name="Path 3316" d="M1009.051,619.19c2.554-1.264,17.946-4.353,25.8,10.463a21.239,21.239,0,0,1-2.927,23.526" transform="translate(-993.863 -617.101)" fill="none" stroke="#3a5794" stroke-linecap="round" stroke-linejoin="round" stroke-width="2"/>
    </g>
    <path id="Icon_awesome-facebook-f" data-name="Icon awesome-facebook-f" d="M13.636,13.517,14.3,9.168H10.131V6.346A2.174,2.174,0,0,1,12.583,4h1.9V.294A23.134,23.134,0,0,0,11.112,0C7.676,0,5.429,2.083,5.429,5.854V9.168H1.609v4.349h3.82V24.03h4.7V13.517Z" transform="translate(124.391 753)" fill="#3a5794"/>
  </g>
</svg>
