<svg xmlns="http://www.w3.org/2000/svg" xmlns:xlink="http://www.w3.org/1999/xlink" width="98" height="227" viewBox="0 0 98 227">
  <defs>
    <clipPath id="clip-path">
      <rect id="Rectangle_897" data-name="Rectangle 897" width="98" height="227" fill="#fff"/>
    </clipPath>
  </defs>
  <g id="feature_shape_bg2" clip-path="url(#clip-path)">
    <g id="Group_37" data-name="Group 37" transform="translate(287.942 -194.568) rotate(90)">
      <path id="Path_346" data-name="Path 346" d="M0,31.831c54.526-.066,108.575,25.046,143.689,66.76,30.452,36.174,46.135,82.381,72.258,121.8s70.236,73.984,116.723,65.327c31.919-5.944,57.288-31.4,72.3-60.19s21.509-61.1,29.545-92.552,18.245-63.392,39.044-88.321C499.925,13.051,542.732-4.006,583.6.8" transform="translate(0 0)" fill="none" stroke="#ffec94" stroke-miterlimit="10" stroke-width="1"/>
      <path id="Path_347" data-name="Path 347" d="M0,29.839c51.113-.063,101.78,23.477,134.7,62.58,28.546,33.911,43.248,77.226,67.736,114.175s65.84,69.353,109.418,61.238c29.919-5.573,53.7-29.435,67.773-56.422s20.163-57.273,27.7-86.76,17.1-59.424,36.6-82.793C468.637,12.233,508.764-3.756,547.08.753" transform="translate(18.262 0.001)" fill="none" stroke="#ffec94" stroke-miterlimit="10" stroke-width="1"/>
      <path id="Path_348" data-name="Path 348" d="M0,27.847c47.7-.058,94.984,21.91,125.7,58.4C152.343,117.9,166.064,158.32,188.916,192.8s61.444,64.724,102.113,57.151c27.923-5.2,50.118-27.47,63.248-52.655s18.817-53.449,25.847-80.968,15.961-55.457,34.158-77.266C437.347,11.418,474.8-3.5,510.555.7" transform="translate(36.526 0)" fill="none" stroke="#ffec94" stroke-miterlimit="10" stroke-width="1"/>
      <path id="Path_349" data-name="Path 349" d="M0,25.854C44.288,25.8,88.189,46.2,116.71,80.08c24.735,29.383,37.474,66.913,58.692,98.929S232.45,239.1,270.209,232.07c25.925-4.828,46.533-25.5,58.724-48.889s17.47-49.624,24-75.174,14.82-51.491,31.714-71.74C406.06,10.6,440.83-3.254,474.029.653" transform="translate(54.788 0)" fill="none" stroke="#ffec94" stroke-miterlimit="10" stroke-width="1"/>
      <path id="Path_350" data-name="Path 350" d="M0,23.863A142.643,142.643,0,0,1,107.718,73.908c22.829,27.12,34.586,61.759,54.167,91.307s52.655,55.464,87.5,48.973c23.928-4.456,42.947-23.54,54.2-45.121s16.124-45.8,22.149-69.382,13.677-47.523,29.27-66.211C374.772,9.783,406.864-3,437.5.6" transform="translate(73.05 0)" fill="none" stroke="#ffec94" stroke-miterlimit="10" stroke-width="1"/>
    </g>
  </g>
</svg>
