<svg xmlns="http://www.w3.org/2000/svg" xmlns:xlink="http://www.w3.org/1999/xlink" width="33.71" height="33.71" viewBox="0 0 33.71 33.71">
  <defs>
    <linearGradient id="linear-gradient" x1="0.227" y1="-0.025" x2="0.948" y2="1.363" gradientUnits="objectBoundingBox">
      <stop offset="0" stop-color="#fffcf8"/>
      <stop offset="0.188" stop-color="#faf8f6"/>
      <stop offset="0.404" stop-color="#eceef2"/>
      <stop offset="0.635" stop-color="#d5dcea"/>
      <stop offset="0.875" stop-color="#b5c4df"/>
      <stop offset="1" stop-color="#a1b5d8"/>
    </linearGradient>
    <linearGradient id="linear-gradient-2" x1="0.369" y1="0.426" x2="-1.54" y2="-0.648" gradientUnits="objectBoundingBox">
      <stop offset="0" stop-color="#a1b5d8" stop-opacity="0"/>
      <stop offset="0.309" stop-color="#90a2bd" stop-opacity="0.31"/>
      <stop offset="0.755" stop-color="#7c8b9c" stop-opacity="0.757"/>
      <stop offset="1" stop-color="#748290"/>
    </linearGradient>
    <linearGradient id="linear-gradient-3" x1="0.5" y1="0.413" x2="0.5" y2="1.193" xlink:href="#linear-gradient-2"/>
  </defs>
  <g id="footer-facebook" transform="translate(0 0)">
    <path id="Path_461" data-name="Path 461" d="M27.68,33.132a101.819,101.819,0,0,1-21.651,0A6.138,6.138,0,0,1,.577,27.68a101.816,101.816,0,0,1,0-21.651A6.138,6.138,0,0,1,6.029.577a101.816,101.816,0,0,1,21.651,0,6.138,6.138,0,0,1,5.453,5.452,101.817,101.817,0,0,1,0,21.651,6.138,6.138,0,0,1-5.452,5.453Zm0,0" fill="url(#linear-gradient)"/>
    <path id="Path_462" data-name="Path 462" d="M58.163,34.172a5.433,5.433,0,0,0-4.826-4.827,90.163,90.163,0,0,0-19.165,0,5.434,5.434,0,0,0-4.827,4.827,90.16,90.16,0,0,0,0,19.165,5.434,5.434,0,0,0,4.827,4.827,90.126,90.126,0,0,0,19.165,0,5.433,5.433,0,0,0,4.827-4.827,90.126,90.126,0,0,0,0-19.165Zm0,0" transform="translate(-26.729 -26.835)" fill="url(#linear-gradient-2)"/>
    <path id="Path_463" data-name="Path 463" d="M7.672,409.8q.035.356.072.713a6.2,6.2,0,0,0,5.449,5.558,99.78,99.78,0,0,0,21.638,0,6.2,6.2,0,0,0,5.449-5.558q.037-.356.072-.713Zm0,0" transform="translate(-7.157 -382.954)" fill="url(#linear-gradient-3)"/>
    <path id="Path_469" data-name="Path 469" d="M222.091,106.032q2.177-.011,4.354-.147V95.77h2.889l.349-3.635h-3.238V89.828a.923.923,0,0,1,.923-.923h2.315V85.27h-3.661a3.93,3.93,0,0,0-3.93,3.93v2.936h-2.115V95.77h2.115Zm0,0" transform="translate(-207.804 -78.796)" fill="#325397"/>
  </g>
</svg>
