<svg xmlns="http://www.w3.org/2000/svg" xmlns:xlink="http://www.w3.org/1999/xlink" width="33.71" height="33.71" viewBox="0 0 33.71 33.71">
  <defs>
    <linearGradient id="linear-gradient" x1="0.227" y1="-0.025" x2="0.948" y2="1.363" gradientUnits="objectBoundingBox">
      <stop offset="0" stop-color="#fffcf8"/>
      <stop offset="0.188" stop-color="#faf8f6"/>
      <stop offset="0.404" stop-color="#eceef2"/>
      <stop offset="0.635" stop-color="#d5dcea"/>
      <stop offset="0.875" stop-color="#b5c4df"/>
      <stop offset="1" stop-color="#a1b5d8"/>
    </linearGradient>
    <linearGradient id="linear-gradient-2" x1="0.369" y1="0.426" x2="-1.54" y2="-0.648" gradientUnits="objectBoundingBox">
      <stop offset="0" stop-color="#a1b5d8" stop-opacity="0"/>
      <stop offset="0.309" stop-color="#90a2bd" stop-opacity="0.31"/>
      <stop offset="0.755" stop-color="#7c8b9c" stop-opacity="0.757"/>
      <stop offset="1" stop-color="#748290"/>
    </linearGradient>
    <linearGradient id="linear-gradient-3" x1="0.5" y1="0.413" x2="0.5" y2="1.193" xlink:href="#linear-gradient-2"/>
    <linearGradient id="linear-gradient-4" x1="0.5" y1="0.008" x2="0.5" y2="0.998" gradientUnits="objectBoundingBox">
      <stop offset="0" stop-color="#e09b3d"/>
      <stop offset="0.3" stop-color="#c74c4d"/>
      <stop offset="0.6" stop-color="#c21975"/>
      <stop offset="1" stop-color="#7024c4"/>
    </linearGradient>
    <linearGradient id="linear-gradient-5" y1="-0.451" y2="1.462" xlink:href="#linear-gradient-4"/>
    <linearGradient id="linear-gradient-6" y1="-1.396" y2="6.586" xlink:href="#linear-gradient-4"/>
  </defs>
  <g id="footer-insta" transform="translate(0 0)">
    <path id="Path_461" data-name="Path 461" d="M27.68,33.132a101.819,101.819,0,0,1-21.651,0A6.138,6.138,0,0,1,.577,27.68a101.816,101.816,0,0,1,0-21.651A6.138,6.138,0,0,1,6.029.577a101.816,101.816,0,0,1,21.651,0,6.138,6.138,0,0,1,5.453,5.452,101.817,101.817,0,0,1,0,21.651,6.138,6.138,0,0,1-5.452,5.453Zm0,0" fill="url(#linear-gradient)"/>
    <path id="Path_462" data-name="Path 462" d="M58.163,34.172a5.433,5.433,0,0,0-4.826-4.827,90.163,90.163,0,0,0-19.165,0,5.434,5.434,0,0,0-4.827,4.827,90.16,90.16,0,0,0,0,19.165,5.434,5.434,0,0,0,4.827,4.827,90.126,90.126,0,0,0,19.165,0,5.433,5.433,0,0,0,4.827-4.827,90.126,90.126,0,0,0,0-19.165Zm0,0" transform="translate(-26.729 -26.835)" fill="url(#linear-gradient-2)"/>
    <path id="Path_463" data-name="Path 463" d="M7.672,409.8q.035.356.072.713a6.2,6.2,0,0,0,5.449,5.558,99.78,99.78,0,0,0,21.638,0,6.2,6.2,0,0,0,5.449-5.558q.037-.356.072-.713Zm0,0" transform="translate(-7.157 -382.954)" fill="url(#linear-gradient-3)"/>
    <g id="instagram_1_" data-name="instagram (1)" transform="translate(7.432 7.664)">
      <path id="Path_467" data-name="Path 467" d="M13.471,0H5.716A5.722,5.722,0,0,0,0,5.716v7.755a5.722,5.722,0,0,0,5.716,5.716h7.755a5.722,5.722,0,0,0,5.716-5.716V5.716A5.722,5.722,0,0,0,13.471,0Zm3.786,13.471a3.786,3.786,0,0,1-3.786,3.786H5.716A3.786,3.786,0,0,1,1.93,13.471V5.716A3.786,3.786,0,0,1,5.716,1.93h7.755a3.786,3.786,0,0,1,3.786,3.786v7.755Z" fill="url(#linear-gradient-4)"/>
      <path id="Path_468" data-name="Path 468" d="M137.962,133a4.962,4.962,0,1,0,4.962,4.962A4.968,4.968,0,0,0,137.962,133Zm0,7.994a3.032,3.032,0,1,1,3.032-3.032A3.032,3.032,0,0,1,137.962,140.994Z" transform="translate(-128.369 -128.369)" fill="url(#linear-gradient-5)"/>
      <circle id="Ellipse_24" data-name="Ellipse 24" cx="1.189" cy="1.189" r="1.189" transform="translate(13.376 3.479)" fill="url(#linear-gradient-6)"/>
    </g>
  </g>
</svg>
