<svg xmlns="http://www.w3.org/2000/svg" xmlns:xlink="http://www.w3.org/1999/xlink" width="33.71" height="33.71" viewBox="0 0 33.71 33.71">
  <defs>
    <linearGradient id="linear-gradient" x1="0.227" y1="-0.025" x2="0.948" y2="1.363" gradientUnits="objectBoundingBox">
      <stop offset="0" stop-color="#fffcf8"/>
      <stop offset="0.188" stop-color="#faf8f6"/>
      <stop offset="0.404" stop-color="#eceef2"/>
      <stop offset="0.635" stop-color="#d5dcea"/>
      <stop offset="0.875" stop-color="#b5c4df"/>
      <stop offset="1" stop-color="#a1b5d8"/>
    </linearGradient>
    <linearGradient id="linear-gradient-2" x1="0.369" y1="0.426" x2="-1.54" y2="-0.648" gradientUnits="objectBoundingBox">
      <stop offset="0" stop-color="#a1b5d8" stop-opacity="0"/>
      <stop offset="0.309" stop-color="#90a2bd" stop-opacity="0.31"/>
      <stop offset="0.755" stop-color="#7c8b9c" stop-opacity="0.757"/>
      <stop offset="1" stop-color="#748290"/>
    </linearGradient>
    <linearGradient id="linear-gradient-3" x1="0.5" y1="0.413" x2="0.5" y2="1.193" xlink:href="#linear-gradient-2"/>
    <linearGradient id="linear-gradient-4" x1="0.439" y1="0.245" x2="0.587" y2="0.867" gradientUnits="objectBoundingBox">
      <stop offset="0" stop-color="#e52d27"/>
      <stop offset="1" stop-color="#b31217"/>
    </linearGradient>
  </defs>
  <g id="footer-youtube" transform="translate(0 0)">
    <path id="Path_461" data-name="Path 461" d="M27.68,33.132a101.819,101.819,0,0,1-21.651,0A6.138,6.138,0,0,1,.577,27.68a101.816,101.816,0,0,1,0-21.651A6.138,6.138,0,0,1,6.029.577a101.816,101.816,0,0,1,21.651,0,6.138,6.138,0,0,1,5.453,5.452,101.817,101.817,0,0,1,0,21.651,6.138,6.138,0,0,1-5.452,5.453Zm0,0" fill="url(#linear-gradient)"/>
    <path id="Path_462" data-name="Path 462" d="M58.163,34.172a5.433,5.433,0,0,0-4.826-4.827,90.163,90.163,0,0,0-19.165,0,5.434,5.434,0,0,0-4.827,4.827,90.16,90.16,0,0,0,0,19.165,5.434,5.434,0,0,0,4.827,4.827,90.126,90.126,0,0,0,19.165,0,5.433,5.433,0,0,0,4.827-4.827,90.126,90.126,0,0,0,0-19.165Zm0,0" transform="translate(-26.899 -26.9)" fill="url(#linear-gradient-2)"/>
    <path id="Path_463" data-name="Path 463" d="M7.672,409.8q.035.356.072.713a6.2,6.2,0,0,0,5.449,5.558,99.78,99.78,0,0,0,21.638,0,6.2,6.2,0,0,0,5.449-5.558q.037-.356.072-.713Zm0,0" transform="translate(-7.157 -382.954)" fill="url(#linear-gradient-3)"/>
    <path id="Path_465" data-name="Path 465" d="M108.211,160.589c-2.689-.093-4.77-.146-6.849-.248a7.1,7.1,0,0,1-1.888-.322,2.733,2.733,0,0,1-1.9-2.409,37.623,37.623,0,0,1-.164-7.178c.037-.658.153-1.311.221-1.967a2.865,2.865,0,0,1,2.514-2.353,62.615,62.615,0,0,1,8.082-.3c1.837.018,3.674.089,5.509.164a11,11,0,0,1,1.715.215,2.615,2.615,0,0,1,2.182,2.341,25.887,25.887,0,0,1,.312,5.264c-.047,1.333-.18,2.663-.314,3.991a2.7,2.7,0,0,1-2.485,2.408c-2.51.171-5.023.292-6.934.4Zm0,0" transform="translate(-90.785 -136.339)" fill="url(#linear-gradient-4)"/>
    <path id="Path_466" data-name="Path 466" d="M225.8,213.166l5.336-3.277L225.8,206.61Zm0,0" transform="translate(-210.987 -193.069)" fill="#fff"/>
  </g>
</svg>
