<svg xmlns="http://www.w3.org/2000/svg" xmlns:xlink="http://www.w3.org/1999/xlink" width="105" height="145" viewBox="0 0 105 145">
  <defs>
    <clipPath id="clip-path">
      <rect id="Rectangle_2983" data-name="Rectangle 2983" width="105" height="145" transform="translate(6 88.526)" fill="#fff"/>
    </clipPath>
  </defs>
  <g id="footer_left_shapes" transform="translate(-6 -88.526)" clip-path="url(#clip-path)">
    <g id="Group_102" data-name="Group 102" transform="translate(0 88.306)">
      <path id="Path_321" data-name="Path 321" d="M693.25,269.239c-4.189-15.564-8.808-30.947-13.6-46.329-1.149-3.7-4.654-4.865-7.833-2.705-12.509,8.495-25.019,16.852-36.86,26.256-2.283,1.811-1.781,5.455.473,7,13.87,9.52,32.6,23.579,50.206,23.673,4.473.029,7.6-6.276,3.062-8.895-7.1-4.095-15.615-5.557-23.2-8.706A127.182,127.182,0,0,1,640.339,246.1c-.175,2.553-.342,5.106-.516,7.658,13.236-8.153,25.7-17.288,38.292-26.394l-7.433-1.491c5.367,15.193,10.887,30.285,16.844,45.26,1.251,3.156,6.618,1.425,5.724-1.891Z" transform="translate(-582.334 -114.604)" fill="#89cff0"/>
      <path id="Path_322" data-name="Path 322" d="M43.439,31.719c-14.182-6.794-28.7-14.6-41.485-23.779C-2.742,4.571,1.881-2,6.833.591,20.5,7.751,33.814,17,46,26.424c2.448,1.893.649,6.833-2.564,5.3Z" transform="translate(46.683 86.459) rotate(-172)" fill="#ffec94"/>
      <path id="Path_320" data-name="Path 320" d="M605.6,231.254c3.951-3.793,5.452-9.7,1.686-14.254a11.054,11.054,0,0,0-14.84-1.78c-10.692,8.254.453,23.483,11.992,20.331,2.137-.583,1.6-3.629-.5-3.75-3.376-.191-6.987-.322-9.682-2.684a7.018,7.018,0,0,1-.583-9.757c6.289-7.734,17.215,3.655,10.607,10.569a.937.937,0,0,0,1.325,1.325Z" transform="translate(-517.719 -213.133)" fill="#f7c3c3"/>
    </g>
  </g>
</svg>
