<svg xmlns="http://www.w3.org/2000/svg" xmlns:xlink="http://www.w3.org/1999/xlink" width="33.71" height="33.71" viewBox="0 0 33.71 33.71">
  <defs>
    <linearGradient id="linear-gradient" x1="0.227" y1="-0.025" x2="0.948" y2="1.363" gradientUnits="objectBoundingBox">
      <stop offset="0" stop-color="#fffcf8"/>
      <stop offset="0.188" stop-color="#faf8f6"/>
      <stop offset="0.404" stop-color="#eceef2"/>
      <stop offset="0.635" stop-color="#d5dcea"/>
      <stop offset="0.875" stop-color="#b5c4df"/>
      <stop offset="1" stop-color="#a1b5d8"/>
    </linearGradient>
    <linearGradient id="linear-gradient-2" x1="0.369" y1="0.426" x2="-1.54" y2="-0.648" gradientUnits="objectBoundingBox">
      <stop offset="0" stop-color="#a1b5d8" stop-opacity="0"/>
      <stop offset="0.309" stop-color="#90a2bd" stop-opacity="0.31"/>
      <stop offset="0.755" stop-color="#7c8b9c" stop-opacity="0.757"/>
      <stop offset="1" stop-color="#748290"/>
    </linearGradient>
    <linearGradient id="linear-gradient-3" x1="0.5" y1="0.413" x2="0.5" y2="1.193" xlink:href="#linear-gradient-2"/>
    <linearGradient id="linear-gradient-4" x1="0.382" y1="0.315" x2="0.748" y2="-0.076" gradientUnits="objectBoundingBox">
      <stop offset="0" stop-color="#f00044"/>
      <stop offset="1" stop-color="#c70038"/>
    </linearGradient>
    <linearGradient id="linear-gradient-5" x1="0.01" y1="0.94" x2="1.092" y2="0.461" gradientUnits="objectBoundingBox">
      <stop offset="0" stop-color="#08fff9"/>
      <stop offset="1" stop-color="#07d4cf"/>
    </linearGradient>
  </defs>
  <g id="footer-tiktok" transform="translate(0 0)">
    <path id="Path_461" data-name="Path 461" d="M27.68,33.132a101.819,101.819,0,0,1-21.651,0A6.138,6.138,0,0,1,.577,27.68a101.816,101.816,0,0,1,0-21.651A6.138,6.138,0,0,1,6.029.577a101.816,101.816,0,0,1,21.651,0,6.138,6.138,0,0,1,5.453,5.452,101.817,101.817,0,0,1,0,21.651,6.138,6.138,0,0,1-5.452,5.453Zm0,0" fill="url(#linear-gradient)"/>
    <path id="Path_462" data-name="Path 462" d="M58.163,34.172a5.433,5.433,0,0,0-4.826-4.827,90.163,90.163,0,0,0-19.165,0,5.434,5.434,0,0,0-4.827,4.827,90.16,90.16,0,0,0,0,19.165,5.434,5.434,0,0,0,4.827,4.827,90.126,90.126,0,0,0,19.165,0,5.433,5.433,0,0,0,4.827-4.827,90.126,90.126,0,0,0,0-19.165Zm0,0" transform="translate(-26.729 -26.835)" fill="url(#linear-gradient-2)"/>
    <path id="Path_463" data-name="Path 463" d="M7.672,409.8q.035.356.072.713a6.2,6.2,0,0,0,5.449,5.558,99.78,99.78,0,0,0,21.638,0,6.2,6.2,0,0,0,5.449-5.558q.037-.356.072-.713Zm0,0" transform="translate(-7.157 -382.954)" fill="url(#linear-gradient-3)"/>
    <g id="Group_109" data-name="Group 109" transform="translate(7.105 5.999)">
      <path id="Path_454" data-name="Path 454" d="M307.8,114.894a5.256,5.256,0,0,1-1.074-3.187h-.014V111.7H305.8A5.282,5.282,0,0,0,307.8,114.894Z" transform="translate(-292.685 -110.682)" fill="#f00044"/>
      <path id="Path_455" data-name="Path 455" d="M168.7,229.776a3.106,3.106,0,0,0-1.628,5.75,3.109,3.109,0,0,1,2.647-4.732,3.04,3.04,0,0,1,.977.159v-3.478a6.484,6.484,0,0,0-.977-.076h-.042v2.536A3.071,3.071,0,0,0,168.7,229.776Z" transform="translate(-162.198 -218.366)" fill="#f00044"/>
      <path id="Path_456" data-name="Path 456" d="M168.677,186.7a5.383,5.383,0,0,1-1.012-.1v2.473a8.575,8.575,0,0,1-3.381-.686,8.442,8.442,0,0,1-1.919-1.122v7.669h-.007a6.5,6.5,0,0,1-10.558,5.044q.229.281.478.54a6.434,6.434,0,0,0,4.593,1.905,7.54,7.54,0,0,0,.977-.069,6.5,6.5,0,0,0,5.522-6.395h.007v-7.676a8.665,8.665,0,0,0,5.3,1.808Z" transform="translate(-149.354 -180.392)" fill="url(#linear-gradient-4)"/>
      <path id="Path_457" data-name="Path 457" d="M337.794,159.8v-.921A5.276,5.276,0,0,1,334.6,157.8,5.314,5.314,0,0,0,337.794,159.8Z" transform="translate(-319.49 -153.588)" fill="#08fff9"/>
      <path id="Path_458" data-name="Path 458" d="M189.54,115.637a3.039,3.039,0,0,0,.977-.159,3.106,3.106,0,0,0,2.127-2.944l.007-5.141V98.018h2.487a5.383,5.383,0,0,1-.1-1.012h-.014V97h-3.388v9.381l-.007,5.141a3.106,3.106,0,0,1-2.127,2.944,3.039,3.039,0,0,1-.977.159,3.1,3.1,0,0,1-1.628-.457A3.106,3.106,0,0,0,189.54,115.637Z" transform="translate(-182.023 -97)" fill="url(#linear-gradient-5)"/>
      <path id="Path_459" data-name="Path 459" d="M119.424,215.624a6.466,6.466,0,0,1,4.552-1.905v-.942a6.495,6.495,0,0,0-5.57,11.016,5.8,5.8,0,0,0,.54.478,6.5,6.5,0,0,1,.478-8.646Z" transform="translate(-116.5 -204.684)" fill="#08fff9"/>
      <path id="Path_460" data-name="Path 460" d="M137.564,131.625a6.5,6.5,0,0,0,5.522-6.395h.007v-7.676a8.665,8.665,0,0,0,5.3,1.808v-2.473a8.356,8.356,0,0,1-5.2-5.189h-2.487v9.381l-.007,5.141a3.106,3.106,0,0,1-2.127,2.944,3.039,3.039,0,0,1-.977.159,3.649,3.649,0,1,1-1.018-7.226,3.04,3.04,0,0,1,.977.159V119.73a6.045,6.045,0,1,0-.977,11.979A8.965,8.965,0,0,0,137.564,131.625Z" transform="translate(-130.089 -110.682)"/>
    </g>
  </g>
</svg>
