<svg id="getintouch_shape" xmlns="http://www.w3.org/2000/svg" xmlns:xlink="http://www.w3.org/1999/xlink" width="712" height="993.511" viewBox="0 0 712 993.511">
  <defs>
    <clipPath id="clip-path">
      <rect id="Rectangle_2981" data-name="Rectangle 2981" width="712" height="993" fill="#fff"/>
    </clipPath>
  </defs>
  <g id="wedo_shape" transform="translate(0 0.511)" clip-path="url(#clip-path)">
    <path id="Polygon_4" data-name="Polygon 4" d="M717.147,0a105,105,0,0,1,91.474,53.449l200.326,355.468a105,105,0,0,1,0,103.1L808.621,867.487a105,105,0,0,1-91.474,53.449H320.852a105,105,0,0,1-91.474-53.449L29.052,512.019a105,105,0,0,1,0-103.1L229.378,53.449A105,105,0,0,1,320.852,0Z" transform="translate(-477.583 567.145) rotate(-47)" fill="#dcdcdc" opacity="0.15"/>
  </g>
  <g id="Group_65" data-name="Group 65" transform="translate(33.226)">
    <path id="Path_389" data-name="Path 389" d="M704.2,228.459c-4.957,18.414-10.421,36.614-16.091,54.813-1.359,4.38-5.507,5.756-9.267,3.2-14.8-10.05-29.6-19.937-43.609-31.063-2.7-2.143-2.108-6.454.56-8.278,16.409-11.264,38.575-27.9,59.4-28.009,5.292-.034,8.992,7.426,3.623,10.524-8.4,4.845-18.475,6.574-27.45,10.3-10.36,4.311-20.617,9.362-29.764,15.893-.207-3.02-.4-6.041-.611-9.061,15.66,9.646,30.409,20.454,45.3,31.227L677.5,279.77c6.35-17.976,12.881-35.831,19.929-53.548,1.48-3.734,7.83-1.686,6.772,2.237Z" transform="translate(-566.103 -135.73)" fill="#f7c3c3"/>
    <path id="Path_400" data-name="Path 400" d="M51.393,37.527C34.615,29.489,17.435,20.249,2.311,9.394-3.244,5.408,2.226-2.367,8.084.7,24.252,9.171,40.006,20.111,54.427,31.262c2.9,2.239.768,8.084-3.034,6.265Z" transform="matrix(0.848, 0.53, -0.53, 0.848, 20.069, 0)" fill="#89cff0"/>
    <path id="Path_401" data-name="Path 401" d="M592.7,218.718c-4.675,4.487-6.45,11.473-2,16.864,4.2,5.073,12.314,6.15,17.557,2.105,12.65-9.766-.536-27.783-14.187-24.054-2.528.69-1.9,4.294.6,4.437,3.994.226,8.267.381,11.455,3.176a8.3,8.3,0,0,1,.69,11.544c-7.44,9.15-20.367-4.324-12.549-12.5a1.109,1.109,0,0,0-1.567-1.567Z" transform="translate(-433.452 -204.95)" fill="#ffb15e"/>
  </g>
</svg>
