<svg id="headshot" xmlns="http://www.w3.org/2000/svg" width="50" height="50" viewBox="0 0 50 50">
  <g id="Group_5374" data-name="Group 5374" transform="translate(0.732 0.732)">
    <g id="Group_5372" data-name="Group 5372">
      <path id="Path_27840" data-name="Path 27840" d="M16.289,7.5H7.5v8.789h3.906V11.406h4.883Z" transform="translate(-7.5 -7.5)" fill="#89cff0"/>
      <path id="Path_27841" data-name="Path 27841" d="M414.5,7.5h8.789v8.789h-3.906V11.406H414.5Z" transform="translate(-374.754 -7.5)" fill="#89cff0"/>
    </g>
    <g id="Group_5373" data-name="Group 5373" transform="translate(0 39.746)">
      <path id="Path_27842" data-name="Path 27842" d="M16.289,423.289H7.5V414.5h3.906v4.883h4.883Z" transform="translate(-7.5 -414.5)" fill="#89cff0"/>
      <path id="Path_27843" data-name="Path 27843" d="M414.5,423.289h8.789V414.5h-3.906v4.883H414.5Z" transform="translate(-374.754 -414.5)" fill="#89cff0"/>
    </g>
  </g>
  <path id="Path_27844" data-name="Path 27844" d="M97.953,272.483h1.953V266.5H97.953A1.953,1.953,0,0,0,96,268.448v2.082A1.953,1.953,0,0,0,97.953,272.483Z" transform="translate(-86.625 -240.47)" fill="#ffdec7"/>
  <path id="Path_27845" data-name="Path 27845" d="M159.437,194.458v11.062a10.254,10.254,0,0,1-10.254,10.254h-2.93A10.254,10.254,0,0,1,136,205.521v-6.763a5.63,5.63,0,0,0,3.809-5.326v-1.524h17.728a5.828,5.828,0,0,0,1.308-.147,6.429,6.429,0,0,1,.594,2.7Z" transform="translate(-122.719 -173.033)" fill="#ffdec7"/>
  <path id="Path_27846" data-name="Path 27846" d="M143.044,197.41a5.609,5.609,0,0,0,1.63-3.55h12.863a7.7,7.7,0,0,0,1.849-.224,6.352,6.352,0,0,0-.541-1.877,5.828,5.828,0,0,1-1.308.147H139.809v1.524A5.63,5.63,0,0,1,136,198.758v6.763a10.254,10.254,0,0,0,10.254,10.254h2.93c.329,0,.655-.016.977-.047a10.253,10.253,0,0,1-9.277-10.207v-6.763A5.626,5.626,0,0,0,143.044,197.41Z" transform="translate(-122.719 -173.033)" fill="#fec5a5"/>
  <path id="Path_27847" data-name="Path 27847" d="M108.744,74.33a9.671,9.671,0,0,0-9,6.131A5.628,5.628,0,0,0,96,85.764v5.244A2.089,2.089,0,0,0,98.089,93.1a5.626,5.626,0,0,0,5.626-5.626V85.945h17.728a5.808,5.808,0,0,0,0-11.615Z" transform="translate(-86.625 -67.071)" fill="#89cff0"/>
  <path id="Path_27848" data-name="Path 27848" d="M113.627,74.33a9.672,9.672,0,0,0-9,6.132,5.628,5.628,0,0,0-3.743,5.3v5.244a2.068,2.068,0,0,0,.338,1.137,5.6,5.6,0,0,1-3.132.952A2.089,2.089,0,0,1,96,91.008V85.764a5.628,5.628,0,0,1,3.743-5.3,9.672,9.672,0,0,1,9-6.132Z" transform="translate(-86.625 -67.071)" fill="#447d99"/>
  <path id="Path_27849" data-name="Path 27849" d="M377.953,272.483H376V266.5h1.953a1.953,1.953,0,0,1,1.953,1.953v2.082A1.953,1.953,0,0,1,377.953,272.483Z" transform="translate(-339.281 -240.47)" fill="#fec5a5"/>
  <g id="Group_5389" data-name="Group 5389" transform="translate(0 0)">
    <g id="Group_5381" data-name="Group 5381">
      <g id="Group_5377" data-name="Group 5377">
        <g id="Group_5375" data-name="Group 5375">
          <path id="Path_27850" data-name="Path 27850" d="M4.639,10.254H.732A.732.732,0,0,1,0,9.521V.732A.732.732,0,0,1,.732,0H9.521a.732.732,0,0,1,.732.732V4.639a.732.732,0,0,1-.732.732H5.371v4.15A.732.732,0,0,1,4.639,10.254ZM1.465,8.789H3.906V4.639a.732.732,0,0,1,.732-.732h4.15V1.465H1.465Z" transform="translate(0 0)"/>
        </g>
        <g id="Group_5376" data-name="Group 5376" transform="translate(39.746 0)">
          <path id="Path_27851" data-name="Path 27851" d="M416.521,10.254h-3.906a.732.732,0,0,1-.732-.732V5.371h-4.15A.732.732,0,0,1,407,4.639V.732A.732.732,0,0,1,407.732,0h8.789a.732.732,0,0,1,.732.732V9.521A.732.732,0,0,1,416.521,10.254Zm-3.174-1.465h2.441V1.465h-7.324V3.906h4.15a.732.732,0,0,1,.732.732Z" transform="translate(-407 0)"/>
        </g>
      </g>
      <g id="Group_5380" data-name="Group 5380" transform="translate(0 39.746)">
        <g id="Group_5378" data-name="Group 5378">
          <path id="Path_27852" data-name="Path 27852" d="M9.521,417.254H.732A.732.732,0,0,1,0,416.521v-8.789A.732.732,0,0,1,.732,407H4.639a.732.732,0,0,1,.732.732v4.15h4.15a.732.732,0,0,1,.732.732v3.906A.732.732,0,0,1,9.521,417.254Zm-8.057-1.465H8.789v-2.441H4.639a.732.732,0,0,1-.732-.732v-4.15H1.465Z" transform="translate(0 -407)"/>
        </g>
        <g id="Group_5379" data-name="Group 5379" transform="translate(38.746)">
          <path id="Path_27853" data-name="Path 27853" d="M416.521,417.254h-8.789a.732.732,0,0,1-.732-.732v-3.906a.732.732,0,0,1,.732-.732h4.15v-4.15a.732.732,0,0,1,.732-.732h3.906a.732.732,0,0,1,.732.732v8.789A.732.732,0,0,1,416.521,417.254Zm-8.057-1.465h7.324v-7.324h-2.441v4.15a.732.732,0,0,1-.732.732h-4.15Z" transform="translate(-406 -407)"/>
        </g>
      </g>
    </g>
    <g id="Group_5388" data-name="Group 5388" transform="translate(8.643 6.526)">
      <g id="Group_5386" data-name="Group 5386" transform="translate(9.993 20.416)">
        <g id="Group_5382" data-name="Group 5382" transform="translate(2.098 7.734)">
          <path id="Path_27854" data-name="Path 27854" d="M216.586,358.1a5.548,5.548,0,0,1-4.072-1.786.732.732,0,1,1,1.078-.992,4.07,4.07,0,0,0,5.988,0,.732.732,0,1,1,1.078.992A5.548,5.548,0,0,1,216.586,358.1Z" transform="translate(-212.32 -355.086)"/>
        </g>
        <g id="Group_5385" data-name="Group 5385">
          <g id="Group_5383" data-name="Group 5383">
            <path id="Path_27855" data-name="Path 27855" d="M191.565,278.63a.732.732,0,0,1-.732-.732v-1.279a.732.732,0,0,1,1.465,0V277.9A.732.732,0,0,1,191.565,278.63Z" transform="translate(-190.833 -275.887)"/>
          </g>
          <g id="Group_5384" data-name="Group 5384" transform="translate(11.263)">
            <path id="Path_27856" data-name="Path 27856" d="M306.9,278.63a.732.732,0,0,1-.732-.732v-1.279a.732.732,0,0,1,1.465,0V277.9A.732.732,0,0,1,306.9,278.63Z" transform="translate(-306.167 -275.887)"/>
          </g>
        </g>
      </g>
      <g id="Group_5387" data-name="Group 5387">
        <path id="Path_27857" data-name="Path 27857" d="M245,85.6h-1.221V81.728a7.1,7.1,0,0,0-.356-2.228,6.54,6.54,0,0,0-2.278-12.67h-1.784a.732.732,0,0,0,0,1.465h1.784a5.075,5.075,0,0,1,0,10.15H229.392a.732.732,0,0,0,0,1.465h11.755a6.572,6.572,0,0,0,.851-.057,5.644,5.644,0,0,1,.318,1.876V92.791a9.556,9.556,0,0,1-9.4,9.521.732.732,0,0,0,.009,1.465h.009a10.986,10.986,0,0,0,10.843-10.727H245a2.689,2.689,0,0,0,2.686-2.686V88.282A2.689,2.689,0,0,0,245,85.6Zm1.221,4.767A1.222,1.222,0,0,1,245,91.584h-1.221V87.061H245a1.222,1.222,0,0,1,1.221,1.221Z" transform="translate(-214.972 -66.83)"/>
        <path id="Path_27858" data-name="Path 27858" d="M103.271,102.312a9.556,9.556,0,0,1-9.4-9.521V86.53a6.618,6.618,0,0,0,3.809-6.619h2.049a.732.732,0,0,0,0-1.465H96.947a.732.732,0,0,0-.732.732c.158,2.524-.615,5.258-3.307,6.156-.967.33-2.943.583-2.943-1.093V79a4.9,4.9,0,0,1,3.256-4.612.733.733,0,0,0,.437-.422,8.889,8.889,0,0,1,8.319-5.667H109.7a.732.732,0,1,0,0-1.465h-7.723a10.549,10.549,0,0,0-9.558,6.294A6.371,6.371,0,0,0,88.5,79v5.244a2.813,2.813,0,0,0,.886,2.05,2.679,2.679,0,0,0-.886,1.992v2.082a2.689,2.689,0,0,0,2.686,2.686h1.224a10.986,10.986,0,0,0,10.843,10.727h.009a.732.732,0,0,0,.009-1.465ZM89.965,90.364V88.283a1.222,1.222,0,0,1,1.221-1.221h1.221v4.523H91.186A1.222,1.222,0,0,1,89.965,90.364Z" transform="translate(-88.5 -66.831)"/>
      </g>
    </g>
  </g>
</svg>
