<svg xmlns="http://www.w3.org/2000/svg" width="25.774" height="24" viewBox="0 0 25.774 24">
  <g id="home_icn" transform="translate(-0.001 -17.047)">
    <g id="Group_3473" data-name="Group 3473" transform="translate(0.001 17.047)">
      <g id="Group_3472" data-name="Group 3472" transform="translate(0 0)">
        <path id="Path_25752" data-name="Path 25752" d="M25.342,27.892l-3.906-3.906V19.474a1.477,1.477,0,0,0-2.955,0v1.558l-2.908-2.909a3.887,3.887,0,0,0-5.373,0L.433,27.892a1.478,1.478,0,0,0,2.09,2.089l9.766-9.767a.872.872,0,0,1,1.2,0l9.768,9.768a1.478,1.478,0,1,0,2.09-2.089Z" transform="translate(-0.001 -17.047)" fill="#009eff"/>
        <path id="Path_25753" data-name="Path 25753" d="M78.457,127.96a.725.725,0,0,0-1.026,0l-8.591,8.588a.727.727,0,0,0-.213.514v6.264a2.662,2.662,0,0,0,2.662,2.662h4.253V139.4h4.8v6.587H84.6a2.662,2.662,0,0,0,2.662-2.662v-6.264a.724.724,0,0,0-.213-.514Z" transform="translate(-65.057 -121.988)" fill="#009eff"/>
      </g>
    </g>
  </g>
</svg>
