<svg id="image-gallery" xmlns="http://www.w3.org/2000/svg" width="49.119" height="45.025" viewBox="0 0 49.119 45.025">
  <g id="Group_3546" data-name="Group 3546" transform="translate(0 15.761)">
    <path id="Path_26993" data-name="Path 26993" d="M35.719,38.965a4.082,4.082,0,0,1-1.044-.135L3.028,30.355A4.13,4.13,0,0,1,.135,25.341L4.127,10.458a1.023,1.023,0,1,1,1.977.528L2.114,25.865A2.077,2.077,0,0,0,3.567,28.38L35.2,36.851a2.037,2.037,0,0,0,2.491-1.441l1.6-5.923a1.024,1.024,0,0,1,1.977.532l-1.6,5.915a4.088,4.088,0,0,1-3.952,3.031Z" transform="translate(0 -9.701)" fill="#cecece"/>
  </g>
  <g id="Group_3547" data-name="Group 3547" transform="translate(8.185)">
    <path id="Path_26994" data-name="Path 26994" d="M40.839,34.745H8.093A4.1,4.1,0,0,1,4,30.652V6.093A4.1,4.1,0,0,1,8.093,2H40.839a4.1,4.1,0,0,1,4.093,4.093V30.652A4.1,4.1,0,0,1,40.839,34.745ZM8.093,4.047A2.05,2.05,0,0,0,6.047,6.093V30.652A2.05,2.05,0,0,0,8.093,32.7H40.839a2.05,2.05,0,0,0,2.047-2.047V6.093a2.05,2.05,0,0,0-2.047-2.047Z" transform="translate(-4 -2)" fill="#cecece"/>
  </g>
  <g id="Group_3548" data-name="Group 3548" transform="translate(14.325 6.14)">
    <path id="Path_26995" data-name="Path 26995" d="M11.093,13.186a4.093,4.093,0,1,1,4.093-4.093A4.1,4.1,0,0,1,11.093,13.186Zm0-6.14A2.047,2.047,0,1,0,13.14,9.093,2.05,2.05,0,0,0,11.093,7.047Z" transform="translate(-7 -5)" fill="#cecece"/>
  </g>
  <g id="Group_3549" data-name="Group 3549" transform="translate(8.328 11.359)">
    <path id="Path_26996" data-name="Path 26996" d="M5.094,26.747A1.022,1.022,0,0,1,4.369,25l9.666-9.666a3.145,3.145,0,0,1,4.341,0l2.878,2.878,7.965-9.558A3.075,3.075,0,0,1,31.556,7.55h.023A3.068,3.068,0,0,1,33.91,8.62l10.7,12.488a1.023,1.023,0,0,1-1.553,1.332L32.356,9.953a1.012,1.012,0,0,0-.778-.356,1.086,1.086,0,0,0-.786.368L22.109,20.384a1.019,1.019,0,0,1-.741.366.985.985,0,0,1-.77-.3l-3.67-3.67a1.051,1.051,0,0,0-1.447,0L5.816,26.448a1.02,1.02,0,0,1-.722.3Z" transform="translate(-4.07 -7.55)" fill="#cecece"/>
  </g>
</svg>
