<svg xmlns="http://www.w3.org/2000/svg" width="193.035" height="193.035" viewBox="0 0 193.035 193.035">
  <g id="img-scan" transform="translate(-114.5 -208.5)">
    <g id="end-user" transform="translate(129.213 223.213)">
      <g id="Group_3073" data-name="Group 3073" transform="translate(0 0)">
        <g id="Group_3037" data-name="Group 3037" transform="translate(0 0)">
          <circle id="Ellipse_146" data-name="Ellipse 146" cx="82.393" cy="82.393" r="82.393" fill="#e3e9ec"/>
        </g>
        <g id="Group_3038" data-name="Group 3038" transform="translate(36.887 4.835)">
          <path id="Path_26571" data-name="Path 26571" d="M150.578,42.191A82.258,82.258,0,0,1,77.657,188.258,82.25,82.25,0,1,0,150.578,42.191Z" transform="translate(-77.657 -42.191)" fill="#c9e1ee"/>
        </g>
        <g id="Group_3072" data-name="Group 3072" transform="translate(22.622 11.238)">
          <g id="Group_3071" data-name="Group 3071">
            <g id="Group_3041" data-name="Group 3041" transform="translate(0 102.901)">
              <g id="Group_3039" data-name="Group 3039">
                <path id="Path_26572" data-name="Path 26572" d="M181.4,187.882a82.253,82.253,0,0,1-119.53,0,34.275,34.275,0,0,1,32.934-24.751h53.662A34.275,34.275,0,0,1,181.4,187.882Z" transform="translate(-61.873 -163.131)" fill="#58595b"/>
              </g>
              <g id="Group_3040" data-name="Group 3040" transform="translate(92.733 0.545)">
                <path id="Path_26573" data-name="Path 26573" d="M175.49,200.947V188.895a34.186,34.186,0,0,0-11.012-25.161,34.319,34.319,0,0,1,26.8,24.206A82.172,82.172,0,0,1,175.49,200.947Z" transform="translate(-164.478 -163.734)" fill="#414042"/>
              </g>
            </g>
            <g id="Group_3060" data-name="Group 3060" transform="translate(18.727)">
              <g id="Group_3042" data-name="Group 3042" transform="translate(31.19 84.524)">
                <path id="Path_26574" data-name="Path 26574" d="M117.1,142.8v24.375a9.849,9.849,0,0,0,19.7,0V142.8Z" transform="translate(-117.103 -142.798)" fill="#fcc4ae"/>
              </g>
              <g id="Group_3059" data-name="Group 3059">
                <g id="Group_3043" data-name="Group 3043" transform="translate(31.19 84.523)">
                  <path id="Path_26575" data-name="Path 26575" d="M117.1,150.42a31.028,31.028,0,0,0,19.7,0V142.8H117.1Z" transform="translate(-117.103 -142.797)" fill="#f2ad97"/>
                </g>
                <g id="Group_3044" data-name="Group 3044" transform="translate(9.998 11.271)">
                  <path id="Path_26576" data-name="Path 26576" d="M124.7,139.941A31.041,31.041,0,0,1,93.655,108.9V92.788a31.041,31.041,0,1,1,62.081,0V108.9A31.041,31.041,0,0,1,124.7,139.941Z" transform="translate(-93.655 -61.747)" fill="#ffd2c0"/>
                </g>
                <g id="Group_3045" data-name="Group 3045" transform="translate(9.998 13.376)">
                  <path id="Path_26577" data-name="Path 26577" d="M93.655,93.012V101.3A44.394,44.394,0,0,0,113.441,64.34c0-.089,0-.176,0-.264A31.051,31.051,0,0,0,93.655,93.012Z" transform="translate(-93.655 -64.076)" fill="#7c3108"/>
                </g>
                <g id="Group_3046" data-name="Group 3046" transform="translate(17.052 18.326)">
                  <path id="Path_26578" data-name="Path 26578" d="M145.147,69.553a30.913,30.913,0,0,1,7.054,19.7v16.113a31.04,31.04,0,0,1-50.741,23.987,31.041,31.041,0,0,0,55.027-19.7V93.539a30.978,30.978,0,0,0-11.34-23.986Z" transform="translate(-101.46 -69.553)" fill="#fcc4ae"/>
                </g>
                <g id="Group_3047" data-name="Group 3047" transform="translate(0 48.724)">
                  <path id="Path_26579" data-name="Path 26579" d="M92.592,112.887v-9.7a10,10,0,1,0,1.7,19.842,30.978,30.978,0,0,1-1.7-10.141Z" transform="translate(-82.593 -103.187)" fill="#ffd2c0"/>
                </g>
                <g id="Group_3048" data-name="Group 3048" transform="translate(70.374 48.724)">
                  <path id="Path_26580" data-name="Path 26580" d="M162.163,103.187v9.7a30.978,30.978,0,0,1-1.7,10.141,9.994,9.994,0,1,0,1.7-19.842Z" transform="translate(-160.459 -103.187)" fill="#ffd2c0"/>
                </g>
                <g id="Group_3049" data-name="Group 3049" transform="translate(70.373 50.848)">
                  <path id="Path_26581" data-name="Path 26581" d="M168.324,105.537a10,10,0,0,1-7.369,16.147q-.228.794-.5,1.571a9.993,9.993,0,0,0,7.866-17.718Z" transform="translate(-160.458 -105.537)" fill="#fcc4ae"/>
                </g>
                <g id="Group_3050" data-name="Group 3050" transform="translate(0.258 1.803)">
                  <path id="Path_26582" data-name="Path 26582" d="M112.4,54.538c.052,16.481-5.618,37.865-19.652,45.5-2.969,1.615-10.161-7.192-9.864-10.558A45.2,45.2,0,0,1,96.964,60.2a40.534,40.534,0,0,1,15.307-8.933c.083,1.078.128,2.165.128,3.267Z" transform="translate(-82.874 -51.271)" fill="#7c3108"/>
                </g>
                <g id="Group_3051" data-name="Group 3051" transform="translate(14.349)">
                  <path id="Path_26583" data-name="Path 26583" d="M163.408,90.646c-26.02,13.433-58.734-1.9-64.939-30.634a40.53,40.53,0,0,1,15.208-8.9c24.191-7.853,48.3,10.557,51.971,35.162a4.24,4.24,0,0,1-2.24,4.373Z" transform="translate(-98.469 -49.276)" fill="#8c3f0a"/>
                </g>
                <g id="Group_3052" data-name="Group 3052" transform="translate(22.389 8.082)">
                  <path id="Path_26584" data-name="Path 26584" d="M166.5,87.132a44.725,44.725,0,0,0-17.143-28.914,44.7,44.7,0,0,1,8.619,20.39,4.239,4.239,0,0,1-2.241,4.374c-16.2,8.365-35,5.575-48.375-4.658,12.8,16.8,36.839,23.536,56.9,13.181a4.239,4.239,0,0,0,2.24-4.373Z" transform="translate(-107.365 -58.218)" fill="#7c3108"/>
                </g>
                <g id="Group_3055" data-name="Group 3055" transform="translate(24.071 50.598)">
                  <g id="Group_3053" data-name="Group 3053">
                    <circle id="Ellipse_147" data-name="Ellipse 147" cx="3.761" cy="3.761" r="3.761" fill="#995222"/>
                  </g>
                  <g id="Group_3054" data-name="Group 3054" transform="translate(29.174)">
                    <circle id="Ellipse_148" data-name="Ellipse 148" cx="3.761" cy="3.761" r="3.761" fill="#995222"/>
                  </g>
                </g>
                <g id="Group_3058" data-name="Group 3058" transform="translate(4.253 52.977)">
                  <g id="Group_3056" data-name="Group 3056">
                    <path id="Path_26585" data-name="Path 26585" d="M93.044,113.34v-5.447a5.745,5.745,0,1,0,0,11.491,5.514,5.514,0,0,0,.589-.06A31.15,31.15,0,0,1,93.044,113.34Z" transform="translate(-87.299 -107.893)" fill="#f2ad97"/>
                  </g>
                  <g id="Group_3057" data-name="Group 3057" transform="translate(67.241)">
                    <path id="Path_26586" data-name="Path 26586" d="M162.287,113.34v-5.447a5.745,5.745,0,0,1,0,11.491,5.513,5.513,0,0,1-.589-.06A31.151,31.151,0,0,0,162.287,113.34Z" transform="translate(-161.698 -107.893)" fill="#f2ad97"/>
                  </g>
                </g>
              </g>
            </g>
            <g id="Group_3061" data-name="Group 3061" transform="translate(52.472 69.929)">
              <path id="Path_26587" data-name="Path 26587" d="M132.309,126.649a1.333,1.333,0,0,1,1.3,1.628,7.015,7.015,0,0,1-13.645,0,1.333,1.333,0,0,1,1.3-1.628Z" transform="translate(-119.931 -126.649)" fill="#e59076"/>
            </g>
            <g id="Group_3070" data-name="Group 3070" transform="translate(27.527 97.358)">
              <g id="Group_3067" data-name="Group 3067" transform="translate(10.092)">
                <g id="Group_3062" data-name="Group 3062" transform="translate(0.001 0.002)">
                  <path id="Path_26588" data-name="Path 26588" d="M147.8,162.541l-18.581,50.406c-1.193.052-2.386.085-3.58.085s-2.387-.034-3.58-.085L103.5,162.541,115.754,157v5.319l9.888,15.392,9.887-15.393V157Z" transform="translate(-103.498 -157)" fill="#d1d3d4"/>
                </g>
                <g id="Group_3063" data-name="Group 3063">
                  <path id="Path_26589" data-name="Path 26589" d="M103.5,162.535l9.249,25.09a1.491,1.491,0,0,0,2.453.538l10.443-10.444-9.88-15.4V157Z" transform="translate(-103.497 -156.998)" fill="#f1f2f2"/>
                </g>
                <g id="Group_3064" data-name="Group 3064" transform="translate(22.146)">
                  <path id="Path_26590" data-name="Path 26590" d="M150.154,162.535l-9.258,25.09a1.491,1.491,0,0,1-2.453.538L128,177.718l9.88-15.4V157Z" transform="translate(-128 -156.998)" fill="#f1f2f2"/>
                </g>
                <g id="Group_3065" data-name="Group 3065" transform="translate(13.875 20.72)">
                  <path id="Path_26591" data-name="Path 26591" d="M135.391,188.195l-6.163,6.163a2.982,2.982,0,0,1-4.216,0l-6.163-6.163,8.271-8.271Z" transform="translate(-118.849 -179.924)" fill="#e63950"/>
                </g>
                <g id="Group_3066" data-name="Group 3066" transform="translate(16.094 33.039)">
                  <path id="Path_26592" data-name="Path 26592" d="M133.408,209.731l-2.472,6.733c-1.193.052-2.386.085-3.58.085s-2.387-.034-3.58-.085l-2.472-6.733,1.824-16.177,2.114,2.114a3,3,0,0,0,4.228,0l2.114-2.114Z" transform="translate(-121.304 -193.554)" fill="#b7022d"/>
                </g>
              </g>
              <g id="Group_3068" data-name="Group 3068" transform="translate(0 5.543)">
                <path id="Path_26593" data-name="Path 26593" d="M120.988,213.537c-1.96-.068-3.886-.221-5.8-.46L95.3,191.531a1.46,1.46,0,0,1,.119-2.114l5.25-4.636a1.5,1.5,0,0,0-.818-2.608l-6.188-.665a1.5,1.5,0,0,1-1.245-1.995l5.95-16.381h4.057Z" transform="translate(-92.331 -163.131)" fill="#939598"/>
              </g>
              <g id="Group_3069" data-name="Group 3069" transform="translate(35.817 5.543)">
                <path id="Path_26594" data-name="Path 26594" d="M159.286,181.507l-6.188.665a1.5,1.5,0,0,0-.818,2.608l5.25,4.636a1.459,1.459,0,0,1,.119,2.114l-19.893,21.546c-1.909.239-3.836.392-5.8.46l18.581-50.406H154.6l5.932,16.381A1.5,1.5,0,0,1,159.286,181.507Z" transform="translate(-131.96 -163.131)" fill="#939598"/>
              </g>
            </g>
          </g>
        </g>
      </g>
    </g>
    <line id="Line_25" data-name="Line 25" y2="193.035" transform="translate(211.018 208.5)" fill="none" stroke="#ffb15e" stroke-width="2" stroke-dasharray="4"/>
    <path id="Path_26595" data-name="Path 26595" d="M0,193.035V0" transform="translate(307.535 305.018) rotate(90)" fill="none" stroke="#ffb15e" stroke-width="2" stroke-dasharray="4"/>
  </g>
</svg>
