<svg id="insta_jd1" xmlns="http://www.w3.org/2000/svg" xmlns:xlink="http://www.w3.org/1999/xlink" width="34.781" height="34.781" viewBox="0 0 34.781 34.781">
  <defs>
    <radialGradient id="radial-gradient" cx="0.205" cy="0.874" r="1.103" gradientTransform="translate(0)" gradientUnits="objectBoundingBox">
      <stop offset="0" stop-color="#fae100"/>
      <stop offset="0.054" stop-color="#fadc04"/>
      <stop offset="0.117" stop-color="#fbce0e"/>
      <stop offset="0.183" stop-color="#fcb720"/>
      <stop offset="0.251" stop-color="#fe9838"/>
      <stop offset="0.305" stop-color="#ff7950"/>
      <stop offset="0.492" stop-color="#ff1c74"/>
      <stop offset="1" stop-color="#6c1cd1"/>
    </radialGradient>
    <linearGradient id="linear-gradient" x1="0.369" y1="0.426" x2="-1.54" y2="-0.648" gradientUnits="objectBoundingBox">
      <stop offset="0" stop-color="#a1b5d8" stop-opacity="0"/>
      <stop offset="0.309" stop-color="#90a2bd" stop-opacity="0.31"/>
      <stop offset="0.755" stop-color="#7c8b9c" stop-opacity="0.757"/>
      <stop offset="1" stop-color="#748290"/>
    </linearGradient>
    <linearGradient id="linear-gradient-2" x1="0.5" y1="0.413" x2="0.5" y2="1.193" gradientUnits="objectBoundingBox">
      <stop offset="0" stop-color="#fae100" stop-opacity="0"/>
      <stop offset="0.307" stop-color="#fca800" stop-opacity="0.306"/>
      <stop offset="0.627" stop-color="#fe7300" stop-opacity="0.627"/>
      <stop offset="0.868" stop-color="#ff5200" stop-opacity="0.867"/>
      <stop offset="1" stop-color="#ff4500"/>
    </linearGradient>
    <linearGradient id="linear-gradient-3" x1="0.316" y1="0.311" x2="0.012" y2="0.005" gradientUnits="objectBoundingBox">
      <stop offset="0" stop-color="#833ab4" stop-opacity="0"/>
      <stop offset="1" stop-color="#833ab4"/>
    </linearGradient>
    <linearGradient id="linear-gradient-4" x1="0.582" y1="0.887" x2="0.418" y2="0.113" xlink:href="#linear-gradient-3"/>
    <linearGradient id="linear-gradient-5" x1="0.605" y1="0.605" x2="-0.16" y2="-0.16" xlink:href="#linear-gradient-3"/>
    <linearGradient id="linear-gradient-6" x1="0.376" y1="0.332" x2="-0.072" y2="-0.063" xlink:href="#linear-gradient-3"/>
    <linearGradient id="linear-gradient-7" x1="0.816" y1="0.182" x2="0.172" y2="0.835" gradientUnits="objectBoundingBox">
      <stop offset="0" stop-color="#833ab4"/>
      <stop offset="0.092" stop-color="#9c3495"/>
      <stop offset="0.293" stop-color="#dc2546"/>
      <stop offset="0.392" stop-color="#fd1d1d"/>
      <stop offset="0.559" stop-color="#fc6831"/>
      <stop offset="0.689" stop-color="#fc9b40"/>
      <stop offset="0.752" stop-color="#fcaf45"/>
      <stop offset="0.781" stop-color="#fdb750"/>
      <stop offset="0.866" stop-color="#fecb6a"/>
      <stop offset="0.942" stop-color="#ffd87a"/>
      <stop offset="1" stop-color="#ffdc80"/>
    </linearGradient>
  </defs>
  <path id="Path_26596" data-name="Path 26596" d="M34.185,6.221A6.333,6.333,0,0,0,28.56.6,105.052,105.052,0,0,0,6.221.6,6.333,6.333,0,0,0,.595,6.221a105.052,105.052,0,0,0,0,22.339,6.333,6.333,0,0,0,5.626,5.626,105.053,105.053,0,0,0,22.339,0,6.333,6.333,0,0,0,5.626-5.626,105.051,105.051,0,0,0,0-22.339Zm0,0" transform="translate(0.001 0)" fill="url(#radial-gradient)"/>
  <path id="Path_26597" data-name="Path 26597" d="M59.169,34.355a5.62,5.62,0,0,0-4.992-4.992,93.257,93.257,0,0,0-19.823,0,5.62,5.62,0,0,0-4.992,4.992,93.254,93.254,0,0,0,0,19.823,5.62,5.62,0,0,0,4.992,4.992,93.218,93.218,0,0,0,19.823,0,5.619,5.619,0,0,0,4.992-4.992,93.218,93.218,0,0,0,0-19.823Zm0,0" transform="translate(-26.875 -26.876)" fill="url(#linear-gradient)"/>
  <path id="Path_26598" data-name="Path 26598" d="M7.672,409.8q.036.361.074.721a6.333,6.333,0,0,0,5.626,5.626,105.053,105.053,0,0,0,22.339,0,6.333,6.333,0,0,0,5.626-5.626q.039-.361.075-.721Zm0,0" transform="translate(-7.151 -381.966)" fill="url(#linear-gradient-2)"/>
  <path id="Path_26599" data-name="Path 26599" d="M122.816,119.266a105.146,105.146,0,0,0,.592-12l-7.95-7.95a5.694,5.694,0,0,0-4.149-1.9c-3.506-.126-7.022-.12-10.529,0a5.626,5.626,0,0,0-5.471,4.934c-.092.508-.147,1.022-.22,1.534v8.434c.04.273.1.545.117.82a6.131,6.131,0,0,0,1.987,4.262l8.09,8.09a105.146,105.146,0,0,0,11.906-.593,6.333,6.333,0,0,0,5.626-5.626Zm0,0" transform="translate(-88.63 -90.707)" fill="url(#linear-gradient-3)"/>
  <path id="Path_26600" data-name="Path 26600" d="M151.863,146.714a6.333,6.333,0,0,1-5.626,5.626,105.205,105.205,0,0,1-11.905.593l-8.078-8.078a5.664,5.664,0,0,0,3.574,1.372c3.505.132,7.023.128,10.528,0a5.634,5.634,0,0,0,5.564-5.632c.106-3.366.106-6.741,0-10.108a5.869,5.869,0,0,0-1.41-3.724l7.945,7.945a105.333,105.333,0,0,1-.592,12Zm0,0" transform="translate(-117.677 -118.154)" fill="url(#linear-gradient-4)"/>
  <path id="Path_26601" data-name="Path 26601" d="M183.667,175.8a5.57,5.57,0,1,0-7.87,7.87l12.889,12.889q1.023-.089,2.046-.2a6.333,6.333,0,0,0,5.626-5.626q.109-1.023.2-2.046Zm0,0" transform="translate(-162.172 -162.173)" fill="url(#linear-gradient-5)"/>
  <path id="Path_26602" data-name="Path 26602" d="M336.038,161.639l-10.373-10.373a1.324,1.324,0,1,0-1.855,1.855l12.043,12.043Q335.975,163.4,336.038,161.639Zm0,0" transform="translate(-301.324 -140.502)" fill="url(#linear-gradient-6)"/>
  <path id="Path_26603" data-name="Path 26603" d="M95.09,103.878c.072-.512.128-1.026.22-1.534a5.626,5.626,0,0,1,5.471-4.934c3.506-.12,7.023-.127,10.529,0a5.634,5.634,0,0,1,5.564,5.631q.158,5.05,0,10.108a5.634,5.634,0,0,1-5.564,5.631c-3.506.127-7.023.13-10.529,0a5.732,5.732,0,0,1-5.573-5.647c-.018-.275-.077-.547-.117-.82v-8.433ZM106.024,116.9c1.6,0,3.21.048,4.813-.011a3.914,3.914,0,0,0,4.116-4.1q.109-4.691,0-9.386a3.89,3.89,0,0,0-4.116-4.1q-4.781-.1-9.565,0a3.867,3.867,0,0,0-4.109,4.037q-.129,4.75,0,9.506a3.892,3.892,0,0,0,4.11,4.042c1.582.059,3.168.011,4.752.011Zm0,0" transform="translate(-88.63 -90.706)" fill="url(#linear-gradient-7)"/>
  <g id="Group_3082" data-name="Group 3082" transform="translate(6.46 6.611)">
    <path id="Path_26604" data-name="Path 26604" d="M95.09,103.878c.072-.512.128-1.026.22-1.534a5.626,5.626,0,0,1,5.471-4.934c3.506-.12,7.023-.127,10.529,0a5.634,5.634,0,0,1,5.564,5.631q.158,5.05,0,10.108a5.634,5.634,0,0,1-5.564,5.631c-3.506.127-7.023.13-10.529,0a5.732,5.732,0,0,1-5.573-5.647c-.018-.275-.077-.547-.117-.82v-8.433ZM106.024,116.9c1.6,0,3.21.048,4.813-.011a3.914,3.914,0,0,0,4.116-4.1q.109-4.691,0-9.386a3.89,3.89,0,0,0-4.116-4.1q-4.781-.1-9.565,0a3.867,3.867,0,0,0-4.109,4.037q-.129,4.75,0,9.506a3.892,3.892,0,0,0,4.11,4.042c1.582.059,3.168.011,4.752.011Zm0,0" transform="translate(-95.09 -97.317)" fill="#fff"/>
    <path id="Path_26605" data-name="Path 26605" d="M179.563,174a5.571,5.571,0,1,0,5.571,5.571A5.571,5.571,0,0,0,179.563,174Zm0,9.224a3.653,3.653,0,1,1,3.653-3.653A3.653,3.653,0,0,1,179.563,183.22Zm0,0" transform="translate(-168.632 -168.787)" fill="#fff"/>
    <path id="Path_26606" data-name="Path 26606" d="M325.936,152.068a1.325,1.325,0,1,1-1.325-1.325A1.325,1.325,0,0,1,325.936,152.068Zm0,0" transform="translate(-307.784 -147.113)" fill="#fff"/>
  </g>
</svg>
