<svg xmlns="http://www.w3.org/2000/svg" width="345.046" height="200.004" viewBox="0 0 345.046 200.004">
  <g id="job_completed_graphic" transform="translate(-29.161 -42.225)">
    <g id="Background_Simple" data-name="Background Simple" transform="translate(29.161 42.225)">
      <g id="Group_3701" data-name="Group 3701">
        <path id="Path_27318" data-name="Path 27318" d="M345.286,91.614c-10.084-15.241-22.743-28.579-39.15-37.438-39.8-21.487-86.948-12.916-119.61,17.024-12.318,11.29-20.951,25.938-32.816,37.663-5.808,5.739-12.436,10.891-20.224,13.61-13.381,4.671-29.074.3-42.981,1.447-20.827,1.724-44.257,9.517-54.259,29.288-10.5,20.751-8.846,48.168,1.767,68.553,1.69,3.246,8.567,16.273,12.98,16.273H355.735c1.212,0,4.906-8.978,5.364-9.92a148.23,148.23,0,0,0,10.184-27.609c7.528-29.08-.426-59.323-13.051-85.759A191.381,191.381,0,0,0,345.286,91.614Z" transform="translate(-29.161 -42.225)" fill="#89cff0"/>
        <path id="Path_27319" data-name="Path 27319" d="M345.286,91.614c-10.084-15.241-22.743-28.579-39.15-37.438-39.8-21.487-86.948-12.916-119.61,17.024-12.318,11.29-20.951,25.938-32.816,37.663-5.808,5.739-12.436,10.891-20.224,13.61-13.381,4.671-29.074.3-42.981,1.447-20.827,1.724-44.257,9.517-54.259,29.288-10.5,20.751-8.846,48.168,1.767,68.553,1.69,3.246,8.567,16.273,12.98,16.273H355.735c1.212,0,4.906-8.978,5.364-9.92a148.23,148.23,0,0,0,10.184-27.609c7.528-29.08-.426-59.323-13.051-85.759A191.381,191.381,0,0,0,345.286,91.614Z" transform="translate(-29.161 -42.225)" fill="#fff" opacity="0.7"/>
      </g>
    </g>
    <g id="Floor" transform="translate(40.766 238.035)">
      <g id="Group_3702" data-name="Group 3702">
        <line id="Line_48" data-name="Line 48" x2="299.182" transform="translate(25.462)" fill="none" stroke="#263238" stroke-miterlimit="10" stroke-width="1"/>
        <line id="Line_49" data-name="Line 49" x2="22.112" fill="none" stroke="#263238" stroke-miterlimit="10" stroke-width="1"/>
      </g>
    </g>
    <g id="Pictures" transform="translate(240.15 48.461)">
      <g id="Group_3703" data-name="Group 3703" opacity="0.3">
        <rect id="Rectangle_2962" data-name="Rectangle 2962" width="45.047" height="60.527" fill="none" stroke="#000" stroke-linejoin="round" stroke-width="1"/>
        <rect id="Rectangle_2963" data-name="Rectangle 2963" width="26.926" height="36.18" transform="translate(9.06 12.174)" fill="none" stroke="#000" stroke-linejoin="round" stroke-width="1"/>
      </g>
      <g id="Group_3704" data-name="Group 3704" transform="translate(57.571 6.232)" opacity="0.3">
        <rect id="Rectangle_2964" data-name="Rectangle 2964" width="26.936" height="36.193" fill="none" stroke="#000" stroke-linejoin="round" stroke-width="1"/>
        <rect id="Rectangle_2965" data-name="Rectangle 2965" width="16.101" height="21.634" transform="translate(5.418 7.279)" fill="none" stroke="#000" stroke-linejoin="round" stroke-width="1"/>
      </g>
    </g>
    <g id="Window" transform="translate(65.871 44.364)">
      <g id="Group_3709" data-name="Group 3709" transform="translate(0 0)">
        <path id="Path_27320" data-name="Path 27320" d="M221.792,46.46a2.311,2.311,0,0,0-2.186,1.577H106.332a2.318,2.318,0,1,0,0,1.482H219.606a2.314,2.314,0,1,0,2.186-3.059Z" transform="translate(-101.828 -46.46)" opacity="0.2"/>
        <g id="Group_3705" data-name="Group 3705" transform="translate(4.321 2.607)" opacity="0.2">
          <path id="Path_27321" data-name="Path 27321" d="M137.356,53.343c1.615,39.271,3.027,78.918,4.717,118.046l-.167,7.669s-7.26,0-11.081.382-9.743.382-13.947.382a12.432,12.432,0,0,1-6.5-1.529l.273-6.916c.848-39.108,1.763-78.759,2.36-118.034" transform="translate(-110.382 -52.473)" fill="none" stroke="#000" stroke-linejoin="round" stroke-width="1"/>
          <line id="Line_50" data-name="Line 50" x1="0.02" y2="4.624" transform="translate(8.855 112.424)" fill="none" stroke="#000" stroke-linejoin="round" stroke-width="1"/>
          <line id="Line_51" data-name="Line 51" x1="0.377" y2="85.987" transform="translate(8.893 22.331)" fill="none" stroke="#000" stroke-linejoin="round" stroke-width="1"/>
          <line id="Line_52" data-name="Line 52" x1="0.087" y2="19.765" transform="translate(9.282)" fill="none" stroke="#000" stroke-linejoin="round" stroke-width="1"/>
          <line id="Line_53" data-name="Line 53" x1="0.865" y2="57.247" transform="translate(15.015 45.17)" fill="none" stroke="#000" stroke-linejoin="round" stroke-width="1"/>
          <line id="Line_54" data-name="Line 54" x1="0.621" y2="41.075" transform="translate(15.935 0.513)" fill="none" stroke="#000" stroke-linejoin="round" stroke-width="1"/>
          <line id="Line_55" data-name="Line 55" x2="0.241" y2="53.135" transform="translate(21.961 61.089)" fill="none" stroke="#000" stroke-linejoin="round" stroke-width="1"/>
          <line id="Line_56" data-name="Line 56" x2="0.151" y2="33.369" transform="translate(21.79 23.359)" fill="none" stroke="#000" stroke-linejoin="round" stroke-width="1"/>
          <line id="Line_57" data-name="Line 57" x2="0.083" y2="18.225" transform="translate(21.689 1.027)" fill="none" stroke="#000" stroke-linejoin="round" stroke-width="1"/>
        </g>
        <g id="Group_3706" data-name="Group 3706" transform="translate(84.881 2.607)" opacity="0.2">
          <path id="Path_27322" data-name="Path 27322" d="M274.868,53.343c-1.553,41.579-3.53,83.579-5.017,124.939a69.749,69.749,0,0,0,8.126.748H294.2a46.642,46.642,0,0,0,7.512-.776c-.731-41.332-1.226-83.331-2.508-124.911" transform="translate(-269.851 -52.473)" fill="none" stroke="#000" stroke-linejoin="round" stroke-width="1"/>
          <line id="Line_58" data-name="Line 58" x2="0.02" y2="4.624" transform="translate(23.116 112.424)" fill="none" stroke="#000" stroke-linejoin="round" stroke-width="1"/>
          <line id="Line_59" data-name="Line 59" x2="0.377" y2="85.987" transform="translate(22.721 22.331)" fill="none" stroke="#000" stroke-linejoin="round" stroke-width="1"/>
          <line id="Line_60" data-name="Line 60" x2="0.087" y2="19.765" transform="translate(22.623)" fill="none" stroke="#000" stroke-linejoin="round" stroke-width="1"/>
          <line id="Line_61" data-name="Line 61" x2="0.865" y2="57.247" transform="translate(16.111 45.17)" fill="none" stroke="#000" stroke-linejoin="round" stroke-width="1"/>
          <line id="Line_62" data-name="Line 62" x2="0.621" y2="41.075" transform="translate(15.436 0.513)" fill="none" stroke="#000" stroke-linejoin="round" stroke-width="1"/>
          <line id="Line_63" data-name="Line 63" x1="0.241" y2="53.135" transform="translate(9.789 61.089)" fill="none" stroke="#000" stroke-linejoin="round" stroke-width="1"/>
          <line id="Line_64" data-name="Line 64" x1="0.151" y2="33.369" transform="translate(10.05 23.359)" fill="none" stroke="#000" stroke-linejoin="round" stroke-width="1"/>
          <line id="Line_65" data-name="Line 65" x1="0.083" y2="18.225" transform="translate(10.22 1.027)" fill="none" stroke="#000" stroke-linejoin="round" stroke-width="1"/>
        </g>
        <g id="Group_3707" data-name="Group 3707" transform="translate(32.017 14.637)" opacity="0.2">
          <path id="Path_27323" data-name="Path 27323" d="M165.205,75.434h11.4v13.3h-10.64" transform="translate(-165.205 -75.434)" fill="none" stroke="#000" stroke-linejoin="round" stroke-width="1"/>
          <rect id="Rectangle_2966" data-name="Rectangle 2966" width="11.916" height="13.341" transform="translate(13.388 0.033)" fill="none" stroke="#000" stroke-linejoin="round" stroke-width="1"/>
        </g>
        <g id="Group_3708" data-name="Group 3708" transform="translate(64.028 14.637)" opacity="0.2">
          <path id="Path_27324" data-name="Path 27324" d="M267.493,75.434h-11.4v13.3h10.64" transform="translate(-242.189 -75.434)" fill="none" stroke="#000" stroke-linejoin="round" stroke-width="1"/>
          <rect id="Rectangle_2967" data-name="Rectangle 2967" width="11.916" height="13.341" transform="translate(11.916 13.373) rotate(180)" fill="none" stroke="#000" stroke-linejoin="round" stroke-width="1"/>
        </g>
        <path id="Path_27325" data-name="Path 27325" d="M167.907,156.011h23.727V116.137h-24.77" transform="translate(-134.01 -80.938)" fill="none" stroke="#000" stroke-linejoin="round" stroke-width="1" opacity="0.2"/>
        <path id="Path_27326" data-name="Path 27326" d="M252.531,115.468H228.283V155.68h22.423" transform="translate(-164.401 -80.607)" fill="none" stroke="#000" stroke-linejoin="round" stroke-width="1" opacity="0.2"/>
        <path id="Path_27327" data-name="Path 27327" d="M170.477,213.8h22.944v40.082H172.215" transform="translate(-135.797 -129.262)" fill="none" stroke="#000" stroke-linejoin="round" stroke-width="1" opacity="0.2"/>
        <path id="Path_27328" data-name="Path 27328" d="M250.967,213.127H228.283v40.792h20.681" transform="translate(-164.401 -128.931)" fill="none" stroke="#000" stroke-linejoin="round" stroke-width="1" opacity="0.2"/>
        <line id="Line_66" data-name="Line 66" x2="48.568" transform="translate(36.313 127.534)" fill="none" stroke="#000" stroke-linejoin="round" stroke-width="1" opacity="0.2"/>
        <line id="Line_67" data-name="Line 67" x2="57.383" transform="translate(31.92 10.022)" fill="none" stroke="#000" stroke-linejoin="round" stroke-width="1" opacity="0.2"/>
        <line id="Line_68" data-name="Line 68" y2="116.689" transform="translate(60.749 10.296)" fill="none" stroke="#000" stroke-linejoin="round" stroke-width="1" opacity="0.2"/>
        <line id="Line_69" data-name="Line 69" x2="55.817" transform="translate(32.649 32.116)" fill="none" stroke="#000" stroke-linejoin="round" stroke-width="1" opacity="0.2"/>
      </g>
    </g>
    <g id="Plant" transform="translate(303.313 128.917)">
      <g id="Group_3719" data-name="Group 3719" transform="translate(0 0)">
        <path id="Path_27329" data-name="Path 27329" d="M636.944,224.582s-5.924-3.291-6.362,4.168-1.536,79.893-1.536,79.893" transform="translate(-600.15 -218.793)" fill="none" stroke="#263238" stroke-linecap="round" stroke-miterlimit="10" stroke-width="1"/>
        <path id="Path_27330" data-name="Path 27330" d="M626,234.843a465.143,465.143,0,0,1,2.638,78.577" transform="translate(-598.641 -224.229)" fill="none" stroke="#263238" stroke-linecap="round" stroke-miterlimit="10" stroke-width="1"/>
        <g id="Group_3710" data-name="Group 3710" transform="translate(14.812 0.631)">
          <path id="Path_27331" data-name="Path 27331" d="M618.457,221.739s-2.266,1.452-3.555-.21.872-4.706-1.033-6.007-5.194.685-5.194.685,2.532.744,2.451,2.127-1.3,1.905-1.464,1.3-1.37-3.648-3.427-2.382a5.093,5.093,0,0,0-2.371,3.23s4.787-.51,5.077,1.291-1.964-.314-3.939-.431-3.776.174-3.648,1.371a15.586,15.586,0,0,1-.186,3.16,5.88,5.88,0,0,1,3.846-1.359c2.173.128,2.091,1.511.116,1.394s-3.672,1.765-3.672,1.765a16.32,16.32,0,0,0,4.089,4.6c2.288,1.522,3.113.976,3.381-.2s-.348-4.183,1.035-4.1-2.29,5.216-.524,5.519,3.184-.209,3.648-1.371l.465-1.162a15.526,15.526,0,0,1-.348-4.182c.267-1.174.593.035.906,1.441s.511,4.787,1.115,4.624,2.533-2.625,2.986-3.59-2.544-3.916-2.509-4.508,2.347.534,2.707,1.15a15.462,15.462,0,0,1,.708,1.43s1.441-.906,1.406-3.683S618.457,221.739,618.457,221.739Z" transform="translate(-601.168 -215.08)" fill="#92e3a9"/>
          <path id="Path_27332" data-name="Path 27332" d="M618.457,221.739s-2.266,1.452-3.555-.21.872-4.706-1.033-6.007-5.194.685-5.194.685,2.532.744,2.451,2.127-1.3,1.905-1.464,1.3-1.37-3.648-3.427-2.382a5.093,5.093,0,0,0-2.371,3.23s4.787-.51,5.077,1.291-1.964-.314-3.939-.431-3.776.174-3.648,1.371a15.586,15.586,0,0,1-.186,3.16,5.88,5.88,0,0,1,3.846-1.359c2.173.128,2.091,1.511.116,1.394s-3.672,1.765-3.672,1.765a16.32,16.32,0,0,0,4.089,4.6c2.288,1.522,3.113.976,3.381-.2s-.348-4.183,1.035-4.1-2.29,5.216-.524,5.519,3.184-.209,3.648-1.371l.465-1.162a15.526,15.526,0,0,1-.348-4.182c.267-1.174.593.035.906,1.441s.511,4.787,1.115,4.624,2.533-2.625,2.986-3.59-2.544-3.916-2.509-4.508,2.347.534,2.707,1.15a15.462,15.462,0,0,1,.708,1.43s1.441-.906,1.406-3.683S618.457,221.739,618.457,221.739Z" transform="translate(-601.168 -215.08)" fill="#263238" opacity="0.3"/>
          <path id="Path_27333" data-name="Path 27333" d="M612.653,235.785a28.588,28.588,0,0,1,5.48-5.478" transform="translate(-606.851 -222.615)" fill="none" stroke="#263238" stroke-linecap="round" stroke-miterlimit="10" stroke-width="1"/>
          <path id="Path_27334" data-name="Path 27334" d="M609.262,244.262s.379-.527.995-1.318" transform="translate(-605.173 -228.868)" fill="none" stroke="#263238" stroke-linecap="round" stroke-miterlimit="10" stroke-width="1"/>
          <path id="Path_27335" data-name="Path 27335" d="M625.41,231.2a16.381,16.381,0,0,1,2.6,6.3" transform="translate(-613.164 -223.059)" fill="none" stroke="#263238" stroke-linecap="round" stroke-miterlimit="10" stroke-width="1"/>
          <path id="Path_27336" data-name="Path 27336" d="M620.488,234.829s.616-.36.382,3.59" transform="translate(-610.728 -224.848)" fill="none" stroke="#263238" stroke-linecap="round" stroke-miterlimit="10" stroke-width="1"/>
          <path id="Path_27337" data-name="Path 27337" d="M623.663,224.3a3.2,3.2,0,0,0,.593-3.335" transform="translate(-612.299 -217.994)" fill="none" stroke="#263238" stroke-linecap="round" stroke-miterlimit="10" stroke-width="1"/>
          <line id="Line_70" data-name="Line 70" x1="0.894" y1="1.638" transform="translate(8.773 6.553)" fill="none" stroke="#263238" stroke-linecap="round" stroke-miterlimit="10" stroke-width="1"/>
          <path id="Path_27338" data-name="Path 27338" d="M612.049,232.4s-2.846-2.15-4.624-2.255" transform="translate(-604.264 -222.534)" fill="none" stroke="#263238" stroke-linecap="round" stroke-miterlimit="10" stroke-width="1"/>
        </g>
        <g id="Group_3711" data-name="Group 3711" transform="translate(27.348)">
          <path id="Path_27339" data-name="Path 27339" d="M638.812,215.268s-.091,3.258-2.634,3.417-4.117-4.08-6.718-3.06-2.855,5.667-2.855,5.667,2.471-2.028,3.8-1,1.021,2.6.3,2.353-4.586-1.115-4.721,1.808a6.17,6.17,0,0,0,1.618,4.575s2.752-5.141,4.753-4.2-1.653,1.751-3.116,3.65-2.4,3.9-1.115,4.587a18.891,18.891,0,0,1,3.037,2.341,7.123,7.123,0,0,1,1.261-4.777c1.609-2.088,2.938-1.064,1.475.835s-.735,4.88-.735,4.88a19.769,19.769,0,0,0,7.394-.957c3.084-1.254,3.1-2.452,2.107-3.52s-4.425-2.5-3.4-3.831,3.662,5.848,5.168,4.286,1.961-3.33,1.115-4.587l-.846-1.257s-3.433-1.435-4.425-2.5.439-.569,2.06.075,5.141,2.752,5.39,2.036-.9-4.326-1.558-5.437-5.654-.122-6.224-.561,2.135-1.985,3-1.926a18.569,18.569,0,0,1,1.914.265s.075-2.06-2.728-3.919S638.812,215.268,638.812,215.268Z" transform="translate(-625.981 -213.832)" fill="#92e3a9"/>
          <path id="Path_27340" data-name="Path 27340" d="M638.812,215.268s-.091,3.258-2.634,3.417-4.117-4.08-6.718-3.06-2.855,5.667-2.855,5.667,2.471-2.028,3.8-1,1.021,2.6.3,2.353-4.586-1.115-4.721,1.808a6.17,6.17,0,0,0,1.618,4.575s2.752-5.141,4.753-4.2-1.653,1.751-3.116,3.65-2.4,3.9-1.115,4.587a18.891,18.891,0,0,1,3.037,2.341,7.123,7.123,0,0,1,1.261-4.777c1.609-2.088,2.938-1.064,1.475.835s-.735,4.88-.735,4.88a19.769,19.769,0,0,0,7.394-.957c3.084-1.254,3.1-2.452,2.107-3.52s-4.425-2.5-3.4-3.831,3.662,5.848,5.168,4.286,1.961-3.33,1.115-4.587l-.846-1.257s-3.433-1.435-4.425-2.5.439-.569,2.06.075,5.141,2.752,5.39,2.036-.9-4.326-1.558-5.437-5.654-.122-6.224-.561,2.135-1.985,3-1.926a18.569,18.569,0,0,1,1.914.265s.075-2.06-2.728-3.919S638.812,215.268,638.812,215.268Z" transform="translate(-625.981 -213.832)" fill="#263238" opacity="0.2"/>
          <path id="Path_27341" data-name="Path 27341" d="M647.068,239.194c-.822-2.725-1.812-6.59-1.749-9.221" transform="translate(-635.548 -221.819)" fill="none" stroke="#263238" stroke-linecap="round" stroke-miterlimit="10" stroke-width="1"/>
          <path id="Path_27342" data-name="Path 27342" d="M650.252,252.766s-.27-.74-.642-1.894" transform="translate(-637.673 -232.16)" fill="none" stroke="#263238" stroke-linecap="round" stroke-miterlimit="10" stroke-width="1"/>
          <path id="Path_27343" data-name="Path 27343" d="M647.521,228.672a19.844,19.844,0,0,1,8.078,1.688" transform="translate(-636.64 -221.175)" fill="none" stroke="#263238" stroke-linecap="round" stroke-miterlimit="10" stroke-width="1"/>
          <path id="Path_27344" data-name="Path 27344" d="M647.8,235.962s.059-.862,3.855,2.064" transform="translate(-636.779 -224.724)" fill="none" stroke="#263238" stroke-linecap="round" stroke-miterlimit="10" stroke-width="1"/>
          <path id="Path_27345" data-name="Path 27345" d="M639.817,225.138a3.87,3.87,0,0,0-2.934-2.867" transform="translate(-631.376 -218.008)" fill="none" stroke="#263238" stroke-linecap="round" stroke-miterlimit="10" stroke-width="1"/>
          <line id="Line_71" data-name="Line 71" x1="2.25" y1="0.221" transform="translate(6.919 9.89)" fill="none" stroke="#263238" stroke-linecap="round" stroke-miterlimit="10" stroke-width="1"/>
          <path id="Path_27346" data-name="Path 27346" d="M639.608,239.835s-4.092,1.384-5.409,3.093" transform="translate(-630.048 -226.699)" fill="none" stroke="#263238" stroke-linecap="round" stroke-miterlimit="10" stroke-width="1"/>
        </g>
        <path id="Path_27347" data-name="Path 27347" d="M597.342,259.6s14.168,11.508,12.725,65.633" transform="translate(-584.462 -236.479)" fill="none" stroke="#263238" stroke-linecap="round" stroke-miterlimit="10" stroke-width="1"/>
        <g id="Group_3712" data-name="Group 3712" transform="translate(13.112 19.344)">
          <path id="Path_27348" data-name="Path 27348" d="M613.53,253.639s-.412,3.751-3.361,3.694-4.365-5.1-7.463-4.165-3.829,6.269-3.829,6.269,3.043-2.108,4.48-.8.931,3.1.129,2.744-5.188-1.72-5.619,1.64a7.144,7.144,0,0,0,1.435,5.432s3.661-5.672,5.881-4.4-2.072,1.866-3.94,3.918-3.137,4.272-1.719,5.188a21.884,21.884,0,0,1,3.284,2.988,8.244,8.244,0,0,1,1.906-5.393c2.054-2.258,3.49-.95,1.623,1.1s-1.309,5.561-1.309,5.561,4.946.749,8.623-.407,3.808-2.536,2.764-3.862-4.87-3.305-3.562-4.742,3.674,7.094,5.559,5.434,2.577-3.657,1.72-5.188l-.858-1.531s-3.825-1.98-4.87-3.305.56-.616,2.37.281,5.672,3.661,6.027,2.858-.632-5.077-1.285-6.421-6.513-.675-7.129-1.235,2.651-2.089,3.64-1.939a21.573,21.573,0,0,1,2.183.486s.281-2.37-2.779-4.779S613.53,253.639,613.53,253.639Z" transform="translate(-597.802 -252.124)" fill="#92e3a9"/>
          <path id="Path_27349" data-name="Path 27349" d="M613.53,253.639s-.412,3.751-3.361,3.694-4.365-5.1-7.463-4.165-3.829,6.269-3.829,6.269,3.043-2.108,4.48-.8.931,3.1.129,2.744-5.188-1.72-5.619,1.64a7.144,7.144,0,0,0,1.435,5.432s3.661-5.672,5.881-4.4-2.072,1.866-3.94,3.918-3.137,4.272-1.719,5.188a21.884,21.884,0,0,1,3.284,2.988,8.244,8.244,0,0,1,1.906-5.393c2.054-2.258,3.49-.95,1.623,1.1s-1.309,5.561-1.309,5.561,4.946.749,8.623-.407,3.808-2.536,2.764-3.862-4.87-3.305-3.562-4.742,3.674,7.094,5.559,5.434,2.577-3.657,1.72-5.188l-.858-1.531s-3.825-1.98-4.87-3.305.56-.616,2.37.281,5.672,3.661,6.027,2.858-.632-5.077-1.285-6.421-6.513-.675-7.129-1.235,2.651-2.089,3.64-1.939a21.573,21.573,0,0,1,2.183.486s.281-2.37-2.779-4.779S613.53,253.639,613.53,253.639Z" transform="translate(-597.802 -252.124)" fill="#263238" opacity="0.3"/>
          <path id="Path_27350" data-name="Path 27350" d="M621.764,280.7c-.691-3.221-1.469-7.775-1.148-10.805" transform="translate(-609.054 -260.919)" fill="none" stroke="#263238" stroke-linecap="round" stroke-miterlimit="10" stroke-width="1"/>
          <path id="Path_27351" data-name="Path 27351" d="M624.227,296.665s-.241-.879-.562-2.246" transform="translate(-610.6 -273.052)" fill="none" stroke="#263238" stroke-linecap="round" stroke-miterlimit="10" stroke-width="1"/>
          <path id="Path_27352" data-name="Path 27352" d="M623.35,268.607a22.965,22.965,0,0,1,9.163,2.71" transform="translate(-610.444 -260.28)" fill="none" stroke="#263238" stroke-linecap="round" stroke-miterlimit="10" stroke-width="1"/>
          <path id="Path_27353" data-name="Path 27353" d="M622.977,277.062s.15-.989,4.254,2.745" transform="translate(-610.259 -264.405)" fill="none" stroke="#263238" stroke-linecap="round" stroke-miterlimit="10" stroke-width="1"/>
          <path id="Path_27354" data-name="Path 27354" d="M614.794,263.8s-.111-2.352-3.115-3.585" transform="translate(-604.669 -256.127)" fill="none" stroke="#263238" stroke-linecap="round" stroke-miterlimit="10" stroke-width="1"/>
          <line id="Line_72" data-name="Line 72" x1="2.575" y1="0.468" transform="translate(8.109 10.714)" fill="none" stroke="#263238" stroke-linecap="round" stroke-miterlimit="10" stroke-width="1"/>
          <path id="Path_27355" data-name="Path 27355" d="M612.88,281.24s-4.853,1.211-6.533,3.058" transform="translate(-602.03 -266.531)" fill="none" stroke="#263238" stroke-linecap="round" stroke-miterlimit="10" stroke-width="1"/>
        </g>
        <g id="Group_3713" data-name="Group 3713" transform="translate(13.112 55.89)">
          <path id="Path_27356" data-name="Path 27356" d="M613.53,325.982s-.412,3.751-3.361,3.694-4.365-5.1-7.463-4.165-3.829,6.269-3.829,6.269,3.043-2.108,4.48-.8.931,3.1.129,2.744-5.188-1.719-5.619,1.64a7.143,7.143,0,0,0,1.435,5.432s3.661-5.672,5.881-4.4-2.072,1.865-3.94,3.917-3.137,4.273-1.719,5.188a21.855,21.855,0,0,1,3.284,2.988,8.246,8.246,0,0,1,1.906-5.393c2.054-2.257,3.49-.95,1.623,1.1s-1.309,5.561-1.309,5.561,4.946.749,8.623-.407,3.808-2.536,2.764-3.862-4.87-3.306-3.562-4.742,3.674,7.094,5.559,5.433,2.577-3.657,1.72-5.188l-.858-1.531s-3.825-1.98-4.87-3.306.56-.615,2.37.281,5.672,3.661,6.027,2.858-.632-5.077-1.285-6.421-6.513-.674-7.129-1.235,2.651-2.089,3.64-1.939a21.485,21.485,0,0,1,2.183.486s.281-2.37-2.779-4.779S613.53,325.982,613.53,325.982Z" transform="translate(-597.802 -324.466)" fill="#92e3a9"/>
          <path id="Path_27357" data-name="Path 27357" d="M613.53,325.982s-.412,3.751-3.361,3.694-4.365-5.1-7.463-4.165-3.829,6.269-3.829,6.269,3.043-2.108,4.48-.8.931,3.1.129,2.744-5.188-1.719-5.619,1.64a7.143,7.143,0,0,0,1.435,5.432s3.661-5.672,5.881-4.4-2.072,1.865-3.94,3.917-3.137,4.273-1.719,5.188a21.855,21.855,0,0,1,3.284,2.988,8.246,8.246,0,0,1,1.906-5.393c2.054-2.257,3.49-.95,1.623,1.1s-1.309,5.561-1.309,5.561,4.946.749,8.623-.407,3.808-2.536,2.764-3.862-4.87-3.306-3.562-4.742,3.674,7.094,5.559,5.433,2.577-3.657,1.72-5.188l-.858-1.531s-3.825-1.98-4.87-3.306.56-.615,2.37.281,5.672,3.661,6.027,2.858-.632-5.077-1.285-6.421-6.513-.674-7.129-1.235,2.651-2.089,3.64-1.939a21.485,21.485,0,0,1,2.183.486s.281-2.37-2.779-4.779S613.53,325.982,613.53,325.982Z" transform="translate(-597.802 -324.466)" fill="#263238" opacity="0.3"/>
          <path id="Path_27358" data-name="Path 27358" d="M621.764,353.046c-.691-3.222-1.469-7.775-1.148-10.805" transform="translate(-609.054 -333.261)" fill="none" stroke="#263238" stroke-linecap="round" stroke-miterlimit="10" stroke-width="1"/>
          <path id="Path_27359" data-name="Path 27359" d="M624.227,369.008s-.241-.879-.562-2.246" transform="translate(-610.6 -345.395)" fill="none" stroke="#263238" stroke-linecap="round" stroke-miterlimit="10" stroke-width="1"/>
          <path id="Path_27360" data-name="Path 27360" d="M623.35,340.949a22.974,22.974,0,0,1,9.163,2.71" transform="translate(-610.444 -332.622)" fill="none" stroke="#263238" stroke-linecap="round" stroke-miterlimit="10" stroke-width="1"/>
          <path id="Path_27361" data-name="Path 27361" d="M622.977,349.4s.15-.989,4.254,2.746" transform="translate(-610.259 -336.747)" fill="none" stroke="#263238" stroke-linecap="round" stroke-miterlimit="10" stroke-width="1"/>
          <path id="Path_27362" data-name="Path 27362" d="M614.794,336.143s-.111-2.352-3.115-3.585" transform="translate(-604.669 -328.47)" fill="none" stroke="#263238" stroke-linecap="round" stroke-miterlimit="10" stroke-width="1"/>
          <line id="Line_73" data-name="Line 73" x1="2.575" y1="0.468" transform="translate(8.109 10.714)" fill="none" stroke="#263238" stroke-linecap="round" stroke-miterlimit="10" stroke-width="1"/>
          <path id="Path_27363" data-name="Path 27363" d="M612.88,353.583s-4.853,1.21-6.533,3.058" transform="translate(-602.03 -338.874)" fill="none" stroke="#263238" stroke-linecap="round" stroke-miterlimit="10" stroke-width="1"/>
        </g>
        <path id="Path_27364" data-name="Path 27364" d="M607.331,295.806s8.337,30.311,9.214,39.744L614.79,280.01" transform="translate(-589.405 -246.578)" fill="none" stroke="#263238" stroke-linecap="round" stroke-miterlimit="10" stroke-width="1"/>
        <path id="Path_27365" data-name="Path 27365" d="M636.541,302.1c-10.97-1.974-10.97,44.352-10.97,44.352" transform="translate(-598.431 -257.478)" fill="none" stroke="#263238" stroke-linecap="round" stroke-miterlimit="10" stroke-width="1"/>
        <path id="Path_27366" data-name="Path 27366" d="M627.137,320.719s-6.362-70.24,12.067-70.24" transform="translate(-598.681 -231.966)" fill="none" stroke="#263238" stroke-linecap="round" stroke-miterlimit="10" stroke-width="1"/>
        <g id="Group_3714" data-name="Group 3714" transform="translate(26.491 37.42)">
          <path id="Path_27367" data-name="Path 27367" d="M631.725,293.775c-1.5-1.686-4.683-1.686-6.556,2.622s-.187,3.558-.187,3.558,3.558-1.124,5.807-1.873,5.244-2.622,5.432-1.5-1.5,2.248-3.559,2.622-7.492,1.873-6.93,3,1.873,4.5,1.873,4.5a47.666,47.666,0,0,1,5.057-3.746c2.435-1.5,3.933-.937,2.622.749s-5.057,3.558-4.308,5.806,5.245,5.057,5.245,5.057.562-4.682,1.873-6.181,1.311.187.936,2.809a30.532,30.532,0,0,0-.374,3.372l5.244,1.873a37.331,37.331,0,0,1,2.81-3.746l.937-.936s-4.121-3.559-4.308-5.807,2.81,0,3.746.374,2.435,3,2.435,3,.937-4.308,1.124-5.807l.187-1.5s-3.933-1.5-5.432-1.5-2.248,1.124-2.248-.375,1.5-2.435,3.184-2.248a29.258,29.258,0,0,1,4.5,1.124s1.123-.936.749-3.746-1.311-2.809-3.559-2.06-3.746,2.435-5.432,2.435-.749-2.061.375-2.622,3.933-1.686,4.5-1.873-3-2.809-4.87-3.184-4.3.945-4.121,2.81C638.842,294.712,633.223,295.461,631.725,293.775Z" transform="translate(-624.285 -287.905)" fill="#92e3a9"/>
          <path id="Path_27368" data-name="Path 27368" d="M662.879,337.7q.083.846.117,1.693" transform="translate(-643.382 -312.545)" fill="none" stroke="#263238" stroke-linecap="round" stroke-miterlimit="10" stroke-width="1"/>
          <path id="Path_27369" data-name="Path 27369" d="M655.431,311.084a49.667,49.667,0,0,1,3.526,11.606" transform="translate(-639.697 -299.374)" fill="none" stroke="#263238" stroke-linecap="round" stroke-miterlimit="10" stroke-width="1"/>
          <path id="Path_27370" data-name="Path 27370" d="M652.5,300.558c-.928-2-1.626-3.211-1.626-3.211a5.539,5.539,0,0,0,2.435-2.248,6.237,6.237,0,0,1,1.873-2.248" transform="translate(-637.443 -290.352)" fill="none" stroke="#263238" stroke-linecap="round" stroke-miterlimit="10" stroke-width="1"/>
          <path id="Path_27371" data-name="Path 27371" d="M637.9,312.081s6.743-2.81,6.743-2.248" transform="translate(-631.021 -298.719)" fill="none" stroke="#263238" stroke-linecap="round" stroke-miterlimit="10" stroke-width="1"/>
          <path id="Path_27372" data-name="Path 27372" d="M658.662,305.843a15.059,15.059,0,0,1,5.619-1.5" transform="translate(-641.295 -296.04)" fill="none" stroke="#263238" stroke-linecap="round" stroke-miterlimit="10" stroke-width="1"/>
          <path id="Path_27373" data-name="Path 27373" d="M650.383,316.209a25.977,25.977,0,0,0-3.559,3.559,16.127,16.127,0,0,0-2.622,4.308" transform="translate(-634.14 -301.91)" fill="none" stroke="#263238" stroke-linecap="round" stroke-miterlimit="10" stroke-width="1"/>
          <path id="Path_27374" data-name="Path 27374" d="M660.516,317.365s3.933-1.124,5.993.749" transform="translate(-642.213 -302.317)" fill="none" stroke="#263238" stroke-linecap="round" stroke-miterlimit="10" stroke-width="1"/>
        </g>
        <g id="Group_3715" data-name="Group 3715" transform="translate(27.783 11.571)">
          <path id="Path_27375" data-name="Path 27375" d="M650.979,252.325c-2.039-1.206-4.294-1.232-5.4-2.505s1.065-1.917,2.226-1.436,3.852,1.865,4.361,2.167.157-4.105-.788-5.765-3.531-2.626-4.823-1.27c-2.724,2.861-6.974-.891-6.683-3.127s-1.8-4.642-6.278-3.232-2.81,2.191-2.81,2.191,3.182,1.951,5.221,3.157,5.419,2.241,4.693,3.119-2.679.342-4.313-.968-6.326-4.429-6.806-3.269-2.167,4.361-2.167,4.361a47.707,47.707,0,0,1,6.145,1.363c2.727.857,3.286,2.357,1.153,2.471s-6-1.486-7.209.554-.381,7.276-.381,7.276,3.9-2.646,5.9-2.638.718,1.113-1.507,2.549a30.423,30.423,0,0,0-2.792,1.928l2.024,5.188a37.289,37.289,0,0,1,4.67-.334l1.321.093s-.014-5.445,1.56-7.06,1.842,2.122,2.173,3.074-.667,3.8-.667,3.8,3.867-2.117,5.121-2.958l1.254-.841s-1.447-3.952-2.43-5.084-2.322-.96-1.19-1.943,2.821-.465,3.785.931a29.242,29.242,0,0,1,2.1,4.131s1.444.235,3.32-1.89S653.018,253.531,650.979,252.325Zm-17.726,6c-1.5-.749,2.061-2.247,2.061-2.247C636.624,255.885,634.751,259.07,633.253,258.32Zm2.523-6.993c-.639-.319,1.278-.958,1.278-.958C639.822,250.9,636.415,251.647,635.776,251.328Z" transform="translate(-626.843 -236.737)" fill="#92e3a9"/>
          <path id="Path_27376" data-name="Path 27376" d="M638.276,287.015q-.583.618-1.2,1.2" transform="translate(-631.906 -261.615)" fill="none" stroke="#263238" stroke-linecap="round" stroke-miterlimit="10" stroke-width="1"/>
          <path id="Path_27377" data-name="Path 27377" d="M648.348,263.942a49.663,49.663,0,0,1-6.453,10.271" transform="translate(-634.291 -250.198)" fill="none" stroke="#263238" stroke-linecap="round" stroke-miterlimit="10" stroke-width="1"/>
          <path id="Path_27378" data-name="Path 27378" d="M656.041,257.717c.9-2.009,1.359-3.334,1.359-3.334a5.539,5.539,0,0,0,3.294.365,6.243,6.243,0,0,1,2.925-.059" transform="translate(-641.291 -245.468)" fill="none" stroke="#263238" stroke-linecap="round" stroke-miterlimit="10" stroke-width="1"/>
          <path id="Path_27379" data-name="Path 27379" d="M640.705,252.848s6.542,3.25,6.118,3.619" transform="translate(-633.702 -244.709)" fill="none" stroke="#263238" stroke-linecap="round" stroke-miterlimit="10" stroke-width="1"/>
          <path id="Path_27380" data-name="Path 27380" d="M659.636,263.909a15.059,15.059,0,0,1,4.815,3.261" transform="translate(-643.07 -250.182)" fill="none" stroke="#263238" stroke-linecap="round" stroke-miterlimit="10" stroke-width="1"/>
          <path id="Path_27381" -name="Path 27381" d="M641.67,267.709a25.946,25.946,0,0,0-5.02-.354,16.131,16.131,0,0,0-4.972.844" transform="translate(-629.236 -251.885)" fill="none" stroke="#263238" stroke-linecap="round" stroke-miterlimit="10" stroke-width="1"/>
          <path id="Path_27382" data-name="Path 27382" d="M653.012,272.114s3.427,2.233,3.363,5.017" transform="translate(-639.792 -254.242)" fill="none" stroke="#263238" stroke-linecap="round" stroke-miterlimit="10" stroke-width="1"/>
        </g>
        <g id="Group_3716" data-name="Group 3716" transform="translate(3.391 40.568)">
          <path id="Path_27383" data-name="Path 27383" d="M597.981,306.681c-1.641-.97-3.456-.992-4.345-2.016s.857-1.542,1.791-1.156,3.1,1.5,3.509,1.743.126-3.3-.634-4.639-2.842-2.114-3.881-1.022c-2.193,2.3-5.613-.716-5.379-2.516s-1.446-3.735-5.052-2.6-2.261,1.764-2.261,1.764,2.56,1.57,4.2,2.54,4.36,1.8,3.776,2.51-2.157.275-3.471-.779-5.091-3.565-5.477-2.63-1.744,3.509-1.744,3.509a38.43,38.43,0,0,1,4.945,1.1c2.195.689,2.644,1.9.928,1.989s-4.831-1.2-5.8.445-.306,5.855-.306,5.855,3.142-2.129,4.744-2.123.578.9-1.213,2.052a24.562,24.562,0,0,0-2.246,1.551l1.628,4.175a30.013,30.013,0,0,1,3.759-.269l1.063.075s-.011-4.381,1.256-5.681,1.482,1.707,1.749,2.474-.537,3.061-.537,3.061,3.112-1.7,4.122-2.38l1.009-.677a20.65,20.65,0,0,0-1.955-4.091c-.791-.91-1.869-.773-.958-1.564s2.27-.374,3.046.749a23.55,23.55,0,0,1,1.689,3.325s1.162.189,2.672-1.521S599.623,307.652,597.981,306.681Zm-14.265,4.825c-1.206-.6,1.658-1.809,1.658-1.809C586.43,309.546,584.923,312.109,583.717,311.506Zm2.031-5.628c-.514-.257,1.028-.771,1.028-.771C589,305.536,586.261,306.136,585.748,305.878Z" transform="translate(-578.559 -294.136)" fill="#92e3a9"/>
          <path id="Path_27384" data-name="Path 27384" d="M587.759,334.6q-.47.5-.967.964" transform="translate(-582.633 -314.158)" fill="none" stroke="#263238" stroke-linecap="round" stroke-miterlimit="10" stroke-width="1"/>
          <path id="Path_27385" data-name="Path 27385" d="M595.864,316.029a39.934,39.934,0,0,1-5.193,8.266" transform="translate(-584.552 -304.969)" fill="none" stroke="#263238" stroke-linecap="round" stroke-miterlimit="10" stroke-width="1"/>
          <path id="Path_27386" data-name="Path 27386" d="M602.055,311.02c.723-1.617,1.094-2.683,1.094-2.683a4.457,4.457,0,0,0,2.651.294,5.017,5.017,0,0,1,2.354-.048" transform="translate(-590.185 -301.163)" fill="none" stroke="#263238" stroke-linecap="round" stroke-miterlimit="10" stroke-width="1"/>
          <path id="Path_27387" data-name="Path 27387" d="M589.714,307.1s5.265,2.615,4.923,2.912" transform="translate(-584.079 -300.552)" fill="none" stroke="#263238" stroke-linecap="round" stroke-miterlimit="10" stroke-width="1"/>
          <path id="Path_27388" data-name="Path 27388" d="M604.948,316a12.113,12.113,0,0,1,3.875,2.624" transform="translate(-591.617 -304.956)" fill="none" stroke="#263238" stroke-linecap="round" stroke-miterlimit="10" stroke-width="1"/>
          <path id="Path_27389" data-name="Path 27389" d="M590.49,319.061a20.887,20.887,0,0,0-4.04-.285,12.978,12.978,0,0,0-4,.679" transform="translate(-580.484 -306.326)" fill="none" stroke="#263238" stroke-linecap="round" stroke-miterlimit="10" stroke-width="1"/>
          <path id="Path_27390" data-name="Path 27390" d="M599.618,322.606s2.758,1.8,2.707,4.038" transform="translate(-588.979 -308.224)" fill="none" stroke="#263238" stroke-linecap="round" stroke-miterlimit="10" stroke-width="1"/>
        </g>
        <g id="Group_3717" data-name="Group 3717" transform="translate(19.267 60.788)">
          <path id="Path_27391" data-name="Path 27391" d="M629.409,346.707c-1.641-.971-3.456-.992-4.346-2.017s.857-1.542,1.791-1.155,3.1,1.5,3.51,1.743.126-3.3-.635-4.639-2.842-2.114-3.881-1.022c-2.193,2.3-5.612-.717-5.379-2.517s-1.446-3.735-5.052-2.6-2.262,1.764-2.262,1.764,2.561,1.57,4.2,2.541,4.361,1.8,3.776,2.51-2.156.275-3.471-.779-5.091-3.565-5.477-2.63-1.743,3.51-1.743,3.51a38.368,38.368,0,0,1,4.944,1.1c2.2.69,2.644,1.9.928,1.989s-4.831-1.2-5.8.446-.307,5.855-.307,5.855,3.142-2.129,4.745-2.123.578.9-1.213,2.052a24.434,24.434,0,0,0-2.247,1.551l1.629,4.175a30.089,30.089,0,0,1,3.759-.269l1.063.075s-.012-4.382,1.256-5.681,1.482,1.708,1.748,2.474-.536,3.061-.536,3.061,3.112-1.7,4.121-2.38l1.009-.676a20.634,20.634,0,0,0-1.955-4.091c-.79-.911-1.869-.773-.958-1.564s2.27-.374,3.046.749a23.5,23.5,0,0,1,1.688,3.325s1.162.189,2.672-1.521S631.05,347.677,629.409,346.707Zm-14.265,4.824c-1.206-.6,1.658-1.809,1.658-1.809C617.858,349.572,616.35,352.135,615.145,351.532Zm2.03-5.627c-.514-.257,1.028-.771,1.028-.771C620.431,345.562,617.689,346.161,617.175,345.9Z" transform="translate(-609.987 -334.162)" fill="#92e3a9"/>
          <path id="Path_27392" data-name="Path 27392" d="M619.186,374.623q-.47.5-.966.964" transform="translate(-614.061 -354.183)" fill="none" stroke="#263238" stroke-linecap="round" stroke-miterlimit="10" stroke-width="1"/>
          <path id="Path_27393" data-name="Path 27393" d="M627.292,356.055a39.983,39.983,0,0,1-5.193,8.266" transform="translate(-615.98 -344.995)" fill="none" stroke="#263238" stroke-linecap="round" stroke-miterlimit="10" stroke-width="1"/>
          <path id="Path_27394" data-name="Path 27394" d="M633.483,351.046c.723-1.617,1.094-2.682,1.094-2.682a4.46,4.46,0,0,0,2.65.294,5.018,5.018,0,0,1,2.354-.047" transform="translate(-621.613 -341.189)" fill="none" stroke="#263238" stroke-linecap="round" stroke-miterlimit="10" stroke-width="1"/>
          <path id="Path_27395" data-name="Path 27395" d="M621.141,347.128s5.265,2.615,4.923,2.911" transform="translate(-615.506 -340.578)" fill="none" stroke="#263238" stroke-linecap="round" stroke-miterlimit="10" stroke-width="1"/>
          <path id="Path_27396" data-name="Path 27396" d="M636.376,356.029a12.123,12.123,0,0,1,3.875,2.624" transform="translate(-623.045 -344.982)" fill="none" stroke="#263238" stroke-linecap="round" stroke-miterlimit="10" stroke-width="1"/>
          <path id="Path_27397" data-name="Path 27397" d="M621.918,359.087a20.848,20.848,0,0,0-4.04-.285,12.987,12.987,0,0,0-4,.679" transform="translate(-611.912 -346.352)" fill="none" stroke="#263238" stroke-linecap="round" stroke-miterlimit="10" stroke-width="1"/>
          <path id="Path_27398" data-name="Path 27398" d="M631.045,362.632s2.758,1.8,2.707,4.037" transform="translate(-620.407 -348.25)" fill="none" stroke="#263238" stroke-linecap="round" stroke-miterlimit="10" stroke-width="1"/>
        </g>
        <g id="Group_3718" data-name="Group 3718" transform="translate(0 16.229)">
          <path id="Path_27399" data-name="Path 27399" d="M587.969,251.911s-2.061,1.5-3.372,0,.562-4.5-1.311-5.619-4.87.937-4.87.937,2.435.562,2.435,1.873-1.123,1.873-1.311,1.311-1.5-3.372-3.372-2.061a4.824,4.824,0,0,0-2.06,3.184s4.5-.749,4.87.937-1.873-.187-3.746-.187-3.558.374-3.371,1.5a14.8,14.8,0,0,1,0,3,5.566,5.566,0,0,1,3.558-1.5c2.061,0,2.061,1.311.187,1.311s-3.372,1.873-3.372,1.873a15.462,15.462,0,0,0,4.121,4.121c2.247,1.311,3,.749,3.184-.375s-.562-3.933.749-3.933-1.873,5.057-.187,5.244,3-.374,3.372-1.5l.375-1.124a14.725,14.725,0,0,1-.562-3.933c.188-1.124.562,0,.937,1.311s.749,4.5,1.311,4.308,2.247-2.622,2.622-3.559-2.622-3.559-2.622-4.121,2.247.375,2.622.937a14.466,14.466,0,0,1,.749,1.311s1.311-.936,1.124-3.558S587.969,251.911,587.969,251.911Z" transform="translate(-571.847 -245.957)" fill="#92e3a9"/>
          <path id="Path_27400" data-name="Path 27400" d="M582.99,265.822a27.063,27.063,0,0,1,4.874-5.483" transform="translate(-577.361 -253.073)" fill="none" stroke="#263238" stroke-linecap="round" stroke-miterlimit="10" stroke-width="1"/>
          <path id="Path_27401" data-name="Path 27401" d="M580.032,274.266s.329-.52.866-1.3" transform="translate(-575.897 -259.321)" fill="none" stroke="#263238" stroke-linecap="round" stroke-miterlimit="10" stroke-width="1"/>
          <path id="Path_27402" data-name="Path 27402" d="M594.491,261.081a15.5,15.5,0,0,1,2.81,5.807" transform="translate(-583.052 -253.441)" fill="none" stroke="#263238" stroke-linecap="round" stroke-miterlimit="10" stroke-width="1"/>
          <path id="Path_27403" data-name="Path 27403" d="M590.042,264.778s.562-.374.562,3.372" transform="translate(-580.85 -255.265)" fill="none" stroke="#263238" stroke-linecap="round" stroke-miterlimit="10" stroke-width="1"/>
          <path id="Path_27404" data-name="Path 27404" d="M592.638,254.625a3.025,3.025,0,0,0,.374-3.184" transform="translate(-582.135 -248.671)" fill="none" stroke="#263238" stroke-linecap="round" stroke-miterlimit="10" stroke-width="1"/>
          <line id="Line_74" data-name="Line 74" x1="0.936" y1="1.498" transform="translate(8.068 6.329)" fill="none" stroke="#263238" stroke-linecap="round" stroke-miterlimit="10" stroke-width="1"/>
          <path id="Path_27405" data-name="Path 27405" d="M581.932,262.954s-2.81-1.873-4.5-1.873" transform="translate(-574.612 -253.441)" fill="none" stroke="#263238" stroke-linecap="round" stroke-miterlimit="10" stroke-width="1"/>
        </g>
        <rect id="Rectangle_2968" data-name="Rectangle 2968" width="14.48" height="20.842" transform="translate(20.559 88.276)" fill="#263238" stroke="#263238" stroke-linecap="round" stroke-miterlimit="10" stroke-width="2"/>
      </g>
    </g>
    <g id="Character" transform="translate(135.13 90.932)">
      <g id="Group_3742" data-name="Group 3742" transform="translate(0)">
        <g id="Group_3727" data-name="Group 3727" transform="translate(95.106 44.746)">
          <path id="Path_27424" data-name="Path 27424" d="M507.3,227.217l-49.96.256L452.8,329.541h54.283l3.81-96.7C511.016,229.735,509.408,227.217,507.3,227.217Z" transform="translate(-439.862 -227.217)" fill="#ffb15e" stroke="#263238" stroke-miterlimit="10" stroke-width="1"/>
          <path id="Path_27425" data-name="Path 27425" d="M481.691,227.217l-43.729.224a6.549,6.549,0,0,0-6.509,6.257l-4.264,95.842h54.284l3.809-96.7C485.4,229.735,483.8,227.217,481.691,227.217Z" transform="translate(-427.189 -227.217)" fill="#ffec94" stroke="#263238" stroke-miterlimit="10" stroke-width="1"/>
        </g>
        <g id="Group_3728" data-name="Group 3728" transform="translate(41.466 77.698)">
          <path id="Path_27426" data-name="Path 27426" d="M394.137,292.445h-6.942a3.811,3.811,0,0,0-1.14.174H344.186l-.52,69.2h54.283V296.258A3.813,3.813,0,0,0,394.137,292.445Z" transform="translate(-332.22 -292.445)" fill="#92e3a9" stroke="#263238" stroke-miterlimit="10" stroke-width="1"/>
          <path id="Rectangle_2970" data-name="Rectangle 2970" d="M7.284,0h0a7.284,7.284,0,0,1,7.284,7.284V69.372a0,0,0,0,1,0,0H0a0,0,0,0,1,0,0V7.284A7.284,7.284,0,0,1,7.284,0Z" transform="translate(0 0)" fill="#ffb15e" stroke="#263238" stroke-miterlimit="10" stroke-width="1"/>
        </g>
        <g id="Group_3729" data-name="Group 3729" transform="translate(82.116 38.943)">
          <path id="Path_27427" data-name="Path 27427" d="M415.6,236.225a7.542,7.542,0,0,0,1.676-3.415c.129-1.611-.838-5.349-.322-7.024s2.256-2.643,1.611-3.867-2-.515-2.964,1.1-.9,3.158-1.1,4.7a2.753,2.753,0,0,1-3.8,2c-1.676-.773-3.867-2.062-3.867-2.062a19.144,19.144,0,0,0-.773,3.544,17.893,17.893,0,0,0,1.418,5.156,20.369,20.369,0,0,1,1.1,3.415s-1.547,12.89-1.74,15.532a55.263,55.263,0,0,1-.773,5.607s2.577,1.933,4.253.322,6.767-13.147,6.767-13.147Z" transform="translate(-403.742 -218.485)" fill="#fff" stroke="#263238" stroke-miterlimit="10" stroke-width="1"/>
          <path id="Path_27428" data-name="Path 27428" d="M413.259,232.606h-7.52L404,215.729h11Z" transform="translate(-402.724 -215.729)" fill="#fff" stroke="#263238" stroke-miterlimit="10" stroke-width="1"/>
          <path id="Path_27429" data-name="Path 27429" d="M406.251,223.8l1.184,11.492h6.356l1.184-11.492Z" transform="translate(-403.838 -219.724)" fill="#89cff0" stroke="#263238" stroke-miterlimit="10" stroke-width="1"/>
          <path id="Path_27430" data-name="Path 27430" d="M402.026,227.163a1.979,1.979,0,0,1-.29-2.324c.726-1.307,5.229-3.921,4.938-2.178S402.026,227.163,402.026,227.163Z" transform="translate(-401.474 -218.871)" fill="#fff" stroke="#263238" stroke-miterlimit="10" stroke-width="1"/>
          <path id="Path_27431" data-name="Path 27431" d="M403.525,231.51a1.98,1.98,0,0,1-.29-2.324c.726-1.307,5.229-3.922,4.938-2.179S403.525,231.51,403.525,231.51Z" transform="translate(-402.216 -221.022)" fill="#fff" stroke="#263238" stroke-miterlimit="10" stroke-width="1"/>
          <path id="Path_27432" data-name="Path 27432" d="M404.2,236.112a1.683,1.683,0,0,1-.253-1.995c.632-1.122,4.552-3.366,4.3-1.87S404.2,236.112,404.2,236.112Z" transform="translate(-402.587 -223.656)" fill="#fff" stroke="#263238" stroke-miterlimit="10" stroke-width="1"/>
          <path id="Path_27433" data-name="Path 27433" d="M405.853,239.41a1.824,1.824,0,0,1-.226-1.995c.565-1.122,4.07-3.367,3.844-1.87S405.853,239.41,405.853,239.41Z" transform="translate(-403.429 -225.288)" fill="#fff" stroke="#263238" stroke-miterlimit="10" stroke-width="1"/>
        </g>
        <g id="Group_3730" data-name="Group 3730" transform="translate(56.554 107.33)">
          <rect id="Rectangle_2971" data-name="Rectangle 2971" width="34.339" height="17.343" fill="#ffb15e" stroke="#263238" stroke-miterlimit="10" stroke-width="1"/>
          <rect id="Rectangle_2972" data-name="Rectangle 2972" width="34.339" height="22.374" transform="translate(0 17.366)" fill="#ffb15e" stroke="#263238" stroke-miterlimit="10" stroke-width="1"/>
        </g>
        <g id="Group_3737" data-name="Group 3737">
          <g id="Group_3734" data-name="Group 3734" transform="translate(0 76.386)">
            <g id="Group_3731" data-name="Group 3731" transform="translate(37.686 54.381)">
              <path id="Path_27434" data-name="Path 27434" d="M324.243,398.537a24.583,24.583,0,0,1-2.255,5.9c-1.387,2.255-4.682,6.59-7.631,7.978s2.6,3.815,6.417,3.642,7.284-.694,11.446-4.682,8.671-3.816,9.018-6.591-3.3-7.284-3.3-7.284Z" transform="translate(-313.527 -397.496)" fill="#fff" stroke="#263238" stroke-miterlimit="10" stroke-width="1"/>
              <path id="Path_27435" data-name="Path 27435" d="M320.775,420.883c3.816-.173,7.284-.694,11.446-4.682s8.671-3.816,9.018-6.591a5.225,5.225,0,0,0-.386-2.354A18.92,18.92,0,0,0,335,410.3c-3.989,2.948-5.9,6.763-12.66,8.324s-7.978-1.387-7.978-1.387C311.41,418.628,316.959,421.056,320.775,420.883Z" transform="translate(-313.527 -402.325)" fill="#fff" stroke="#263238" stroke-miterlimit="10" stroke-width="1"/>
            </g>
            <path id="Path_27436" data-name="Path 27436" d="M356.83,294.828a67.852,67.852,0,0,0-23.021-4.882c-13.354-.52-26.881,1.041-27.229,4.509s10.232,39.889,11.273,42.837,2.428,4.163,1.734,5.2-1.908,1.734-1.387,2.6-.867.173.52.867,12.66.867,12.66.867,3.122,0,3.469-.867a9.712,9.712,0,0,0,0-4.509c-.347-1.734-1.908-1.908-1.388-3.642s-2.081-9.365-2.255-10.406-4.856-19.424-4.856-19.424,25.147,5.376,31.044,7.457,21.332,2.255,23.413.52,2.774-4.336,2.6-5.2-20.985-13.528-20.985-13.528Z" transform="translate(-272.399 -289.848)" fill="#263238" stroke="#263238" stroke-miterlimit="10" stroke-width="1"/>
            <g id="Group_3732" data-name="Group 3732" transform="translate(0 49.953)">
              <path id="Path_27437" data-name="Path 27437" d="M257.673,396.974s-8.5-1.561-11.273-3.642-5.55-5.9-6.764-4.162-1.214,7.631,2.775,13.874S253.684,413.8,254.9,413.1s9.018-6.07,9.018-6.07Z" transform="translate(-238.926 -388.73)" fill="#fff" stroke="#263238" stroke-miterlimit="10" stroke-width="1"/>
              <path id="Path_27438" data-name="Path 27438" d="M242.411,403.475c3.989,6.243,11.273,10.753,12.487,10.059.2-.117.6-.368,1.1-.7-3.957-2.883-12.033-9.015-13.592-12.133-2.081-4.162-2.775-11.1-2.775-11.1C238.422,391.335,238.422,397.232,242.411,403.475Z" transform="translate(-238.926 -389.161)" fill="#fff" stroke="#263238" stroke-miterlimit="10" stroke-width="1"/>
            </g>
            <g id="Group_3733" data-name="Group 3733" transform="translate(17.533 9.29)">
              <path id="Path_27439" data-name="Path 27439" d="M340.229,309.1s-34.513,8.325-36.594,10.753-17,24.454-18.9,27.4a25.6,25.6,0,0,1-5.2,6.07c-.867.52-1.041-.347-2.081.347s-3.816,2.948-3.816,2.948,1.908,7.978,4.509,10.059,2.948,2.428,4.162,1.734,2.081-.867,2.775-2.081-.52-1.908.867-2.774,7.978-5.55,7.978-5.55,14.568-9.886,19.771-15.435A47.6,47.6,0,0,0,321.325,332s27.229-.347,33.819-.694,13.181-1.041,15.435-3.469a17.746,17.746,0,0,0,3.3-5.2L348.9,308.237" transform="translate(-273.632 -308.237)" fill="#263238" stroke="#263238" stroke-miterlimit="10" stroke-width="1"/>
              <path id="Path_27440" data-name="Path 27440" d="M323.859,328.113s4.109-6.849,7.944-9.04,31.229-6.574,31.229-6.574" transform="translate(-298.485 -310.346)" fill="none" stroke="#6b6b6b" stroke-miterlimit="10" stroke-width="1"/>
            </g>
          </g>
          <g id="Group_3736" data-name="Group 3736" transform="translate(82.606)">
            <path id="Path_27441" data-name="Path 27441" d="M436.352,217.888s-6.427.124-10.134,3.46-9.764,19.033-11.617,21.628-8.4,12.729-8.775,12.976a15.8,15.8,0,0,1-3.213.247s-1.73.371,5.932,6.056,17.3,14.707,22.74,15.7,4.7,2.842,6.921-.248,9.764-18.662,12.359-24.965,9.516-20.392,10.5-25.212,1.607-6.056-2.1-8.157c-1.255-.711-7.493-4.13-9.353-4.441-3.637-.608-3.005,2.34-3.005,2.34Z" transform="translate(-402.444 -176.35)" fill="#b2b2b2" stroke="#263238" stroke-miterlimit="10" stroke-width="1"/>
            <path id="Path_27442" data-name="Path 27442" d="M466.571,219.394c2.579.777,4.522,1.392,5.508,3.562s-1.973,5.72-1.973,5.72-4.536,6.114-6.312,8.875-7.889,1.578-10.848,1.184-6.312,3.55-9.073.592.395-4.734,2.17-7.1-.2-1.775,0-3.944,2.564-2.761,6.342-4.805,1.941-2.888,1.941-2.888C455.708,219.8,463.993,218.617,466.571,219.394Zm8.467,11.649c-.789.395-4.536,2.761-4.931,5.523s1.775,2.959,0,5.72-2.761,3.945-1.381,6.509,4.734-1.381,9.27-6.509,5.917-6.9,3.945-9.665S475.038,231.043,475.038,231.043Z" transform="translate(-422.406 -178.474)" opacity="0.2"/>
            <path id="Path_27443" data-name="Path 27443" d="M481.056,245.149c-1.249,1.436-2.2,2.44-2.2,2.44" transform="translate(-440.257 -191.344)" fill="none" stroke="#263238" stroke-miterlimit="10" stroke-width="1"/>
            <path id="Path_27444" data-name="Path 27444" d="M491.4,221.6s.247.618-1.359,4.2a32.816,32.816,0,0,1-4.322,6.2" transform="translate(-443.65 -179.691)" fill="none" stroke="#263238" stroke-miterlimit="10" stroke-width="1"/>
            <path id="Path_27445" data-name="Path 27445" d="M463.413,248.021s-6.056,4.326-8.528,5.438" transform="translate(-428.393 -192.765)" fill="none" stroke="#263238" stroke-miterlimit="10" stroke-width="1"/>
            <g id="Group_3735" data-name="Group 3735" transform="translate(25.615)">
              <path id="Path_27446" data-name="Path 27446" d="M487.327,223.477s5.719-3.146,6.434-5.29-4-2.288-5-1.573S487.327,223.477,487.327,223.477Z" transform="translate(-470.061 -177.032)" fill="#263238" stroke="#263238" stroke-miterlimit="10" stroke-width="1"/>
              <path id="Path_27447" data-name="Path 27447" d="M463.913,158.342s-4.2,3.584-4.573,5.191-.124,3.09-1.483,4.449-4.944,2.348-4.7,3.46a8.433,8.433,0,0,0,1.73,2.719s0,8.651.247,9.64,6.3,1.112,6.3,1.112l-.495,5.561s-9.887,10.134-6.179,12.235,8.9-2.6,13.718-6.921,5.191-4.2,5.685-5.685-.124-1.112.247-2.472,0-2.472,1.359-5.067,2.349-1.607,3.213-7.045-.989-9.887-4.2-13.718-2.966-4.326-5.685-4.573A10.207,10.207,0,0,0,463.913,158.342Z" transform="translate(-453.149 -147.824)" fill="#fff" stroke="#263238" stroke-miterlimit="10" stroke-width="1"/>
              <path id="Path_27448" data-name="Path 27448" d="M466.873,179.277s1.73,1.236,3.213.371" transform="translate(-459.94 -158.749)" fill="none" stroke="#263238" stroke-miterlimit="10" stroke-width="1"/>
              <path id="Path_27449" data-name="Path 27449" d="M468.341,171.387a2.437,2.437,0,0,1,3.955,1.483" transform="translate(-460.666 -154.566)" fill="none" stroke="#263238" stroke-miterlimit="10" stroke-width="1"/>
              <path id="Path_27450" data-name="Path 27450" d="M458.8,192.016s4.078,1.236,6.673-1.73" transform="translate(-455.945 -164.196)" fill="none" stroke="#263238" stroke-miterlimit="10" stroke-width="1"/>
              <path id="Path_27451" data-name="Path 27451" d="M469.564,211.7l5.685-.371-5.685,4.82Z" transform="translate(-461.271 -174.607)" fill="#263238" stroke="#263238" stroke-miterlimit="10" stroke-width="1"/>
              <path id="Path_27452" data-name="Path 27452" d="M472.068,142.98s-2.843,1.112-2.6-.495a4,4,0,0,1,1.112-2.348s-4.2.494-4.2,4.2.742,4.7,4.079,4.82a21.1,21.1,0,0,0,4.943-.248s-1.977,1.236-1.483,2.966a16.028,16.028,0,0,0,.865,2.472l1.854-1.978s-1.607,2.6-.618,4.326,1.359,2.966.741,4.078l-.618,1.112L478.618,163l-1.854.989,4.326.247s2.348-2.472,2.966.124a5.153,5.153,0,0,1-1.977,5.562,12.5,12.5,0,0,1-2.472,1.236,3.866,3.866,0,0,0,.248,2.225,2.466,2.466,0,0,0,1.606,1.73l.865-1.73.618,2.224a5.387,5.387,0,0,1,1.112-2.224c.865-.989,1.359-1.112,3.337-1.854s6.526-1.879,8.627-5.71.395-10.727-.842-15.918-8.189-6.963-10.908-7.581-4.417.907-5.406-.576.865-2.966.865-2.966-3.46-.742-5.561,1.236S472.068,142.98,472.068,142.98Z" transform="translate(-459.697 -138.641)" fill="#263238" stroke="#263238" stroke-miterlimit="10" stroke-width="1"/>
            </g>
          </g>
        </g>
        <g id="Group_3738" data-name="Group 3738" transform="translate(85.864 77.698)">
          <path id="Path_27453" data-name="Path 27453" d="M482.023,292.445h-6.942a3.811,3.811,0,0,0-1.14.174H432.072l-.52,69.2h54.283V296.258A3.813,3.813,0,0,0,482.023,292.445Z" transform="translate(-420.106 -292.445)" fill="#ffb15e" stroke="#263238" stroke-miterlimit="10" stroke-width="1"/>
          <path id="Rectangle_2973" data-name="Rectangle 2973" d="M7.284,0h0a7.284,7.284,0,0,1,7.284,7.284V69.372a0,0,0,0,1,0,0H0a0,0,0,0,1,0,0V7.284A7.284,7.284,0,0,1,7.284,0Z" transform="translate(0 0)" fill="#ffb15e" stroke="#263238" stroke-miterlimit="10" stroke-width="1"/>
        </g>
        <g id="Group_3741" data-name="Group 3741" transform="translate(100.429 41.654)">
          <g id="Group_3739" data-name="Group 3739" transform="translate(0 30.233)">
            <path id="Path_27454" data-name="Path 27454" d="M472.966,280.943l-.635,5.116s-11.988-1.73-17.426-2.843-8.651-1.483-9.64-.989-7.539,4.7-7.539,4.7h8.528s11.865,6.8,20.145,9.393,13.594,2.842,14.213,2.6,1.483-3.707,1.483-3.707l2.365-12.779Z" transform="translate(-437.726 -280.943)" fill="#fff" stroke="#263238" stroke-miterlimit="10" stroke-width="1"/>
            <path id="Path_27455" data-name="Path 27455" d="M506.226,291.07s6.8,1.112,8.157,4.2" transform="translate(-471.621 -285.954)" fill="none" stroke="#263238" stroke-miterlimit="10" stroke-width="1"/>
          </g>
          <g id="Group_3740" data-name="Group 3740" transform="translate(32.768)">
            <path id="Path_27456" data-name="Path 27456" d="M504.568,229.013a19.873,19.873,0,0,0-1.977,7.415c0,3.46.989,15.943.989,15.943s6.79.833,9.241,1.323c1.939.387,11.227-3.931,11.227-3.931s-7.367-18.525-9.221-21.986-4.449-8.033-10.258-6.3" transform="translate(-502.591 -221.096)" fill="#b2b2b2" stroke="#263238" stroke-miterlimit="10" stroke-width="1"/>
          </g>
          <path id="Path_27457" data-name="Path 27457" d="M527.665,277.34a14.67,14.67,0,0,0,2.642.825" transform="translate(-482.23 -248.927)" fill="#b2b2b2" stroke="#263238" stroke-miterlimit="10" stroke-width="1"/>
          <path id="Path_27458" data-name="Path 27458" d="M504.591,253.219a20.468,20.468,0,0,0,4.147,7.435,18.5,18.5,0,0,0,6.2,4.206" transform="translate(-470.812 -236.991)" fill="#b2b2b2" stroke="#263238" stroke-miterlimit="10" stroke-width="1"/>
          <path id="Path_27459" data-name="Path 27459" d="M512.6,278.9a7.5,7.5,0,0,0,1.528,1.608" transform="translate(-474.778 -249.701)" fill="#b2b2b2" stroke="#263238" stroke-miterlimit="10" stroke-width="1"/>
          <path id="Path_27460" data-name="Path 27460" d="M508.271,272.182a12.183,12.183,0,0,0,1.573,2.573" transform="translate(-472.633 -246.375)" fill="#b2b2b2" stroke="#263238" stroke-miterlimit="10" stroke-width="1"/>
        </g>
      </g>
    </g>
    <g id="Group_5267" data-name="Group 5267" transform="translate(122.982 65.21)">
      <g id="Fan" transform="translate(0 0)">
        <g id="Group_3726" data-name="Group 3726" transform="translate(0 0)">
          <ellipse id="Ellipse_230" data-name="Ellipse 230" cx="29.699" cy="29.699" rx="29.699" ry="29.699" transform="translate(1.203)" fill="#6ff294"/>
          <ellipse id="Ellipse_229" data-name="Ellipse 229" cx="28.548" cy="28.548" rx="28.548" ry="28.548" fill="none" stroke="#263238" stroke-miterlimit="10" stroke-width="1"/>
        </g>
      </g>
      <g id="Group_3518" data-name="Group 3518" transform="translate(19.325 21.902)">
        <path id="Icon_feather-check" data-name="Icon feather-check" d="M28.5,9,13.032,24.47,6,17.438" transform="translate(-6 -9)" fill="none" stroke="#263238" stroke-linecap="round" stroke-linejoin="round" stroke-width="3"/>
      </g>
    </g>
  </g>
</svg>
