<svg xmlns="http://www.w3.org/2000/svg" width="185.01" height="67.225" viewBox="0 0 185.01 67.225">
  <g id="logo" transform="translate(-176.279 -203.98)">
    <path id="Path_1" data-name="Path 1" d="M357.11,218.255A17.918,17.918,0,0,0,345.672,213a21.1,21.1,0,0,0-2.415-.139,26.553,26.553,0,0,0-11.212,2.7,21.188,21.188,0,0,0-3.35,1.975q-.2-2.306-.55-4.281a10.4,10.4,0,0,0-10.593-8.834c-2.8,0-6.88,1.095-10.383,6.31-.64.952-1.365,2.173-2.2,3.7-.042-.232-.083-.465-.125-.7a11.338,11.338,0,0,0-11.516-9.755,11.67,11.67,0,0,0-11.764,9.552c-.529,2.277-1.046,4.484-1.552,6.636a18.038,18.038,0,0,0-7.138-5.518l-.105-.045a17.938,17.938,0,0,0-6.934-1.327c-7.424,0-11.716,3.134-14.157,6.291a13.333,13.333,0,0,0-2.957,1.672,18.065,18.065,0,0,0-7.918-6.591l-.1-.044a17.942,17.942,0,0,0-6.934-1.327c-5.642,0-9.471,1.811-12.058,4.065-1.467-4.367-5.664-9.691-17.418-9.691a27.309,27.309,0,0,0-3.639.25,10.9,10.9,0,0,0-7.288-2.56c-4.153,0-8.821,2.329-10.784,8.584a10.118,10.118,0,0,0-3.165,6.583l-.028.322v.5a9.594,9.594,0,0,0,1.286,4.836c-.939,7.269-1.649,13.6-2.115,18.867-.174,1.986-.3,3.829-.39,5.511a10.409,10.409,0,0,0-1.856,5.043l-.034.357v.594c0,3.706,2.476,9.979,11.755,9.979a51.451,51.451,0,0,0,6.27-.443,52.913,52.913,0,0,0,7.48-1.5,41.707,41.707,0,0,0,7.58-2.887,25.515,25.515,0,0,0,3.46-2.1c2.687,3.191,7.485,6.665,15.642,6.665a21.824,21.824,0,0,0,16.344-6.765c2.671,3.218,7.484,6.765,15.726,6.765a22.4,22.4,0,0,0,12.895-3.8,10.008,10.008,0,0,0,8.5,4.51c2.648,0,9.113-1.049,11.94-10.728.459-1.539.946-3.386,1.465-5.559a11.768,11.768,0,0,0,6.522,1.867,9.919,9.919,0,0,0,3.717-.715c-.011.212-.022.423-.032.631q-.043.67-.042,1.3c0,10.074,6.738,12.762,10.719,12.762a10.692,10.692,0,0,0,8.984-5.062,20.416,20.416,0,0,0,12.841,4.085,19.922,19.922,0,0,0,12.536-4.067,30.219,30.219,0,0,0,5.178-5.165c2.493-3.147,3.852-6.076,4.149-8.944a10.239,10.239,0,0,0,.078-1.248,9.486,9.486,0,0,0-2.031-5.987,21.763,21.763,0,0,0,3.275-9.926l.01-.131q.048-.682.049-1.366A14.947,14.947,0,0,0,357.11,218.255ZM229.338,244.08c-.015-.128-.026-.26-.033-.4.109-.018.217-.037.324-.058Q229.493,243.849,229.338,244.08Zm32.07,0q-.022-.192-.033-.4c.109-.018.217-.037.325-.058C261.609,243.775,261.512,243.926,261.408,244.08Z" transform="translate(0 0)" fill="#232322"/>
    <g id="Group_5" data-name="Group 5" transform="translate(176.279 248.685)">
      <g id="Group_4" data-name="Group 4" transform="translate(0 0)">
        <g id="Group_1" data-name="Group 1" transform="translate(0 4.176)">
          <path id="Path_2" data-name="Path 2" d="M295.206,426.066c-.519,2.172-1.006,4.019-1.465,5.559-2.828,9.679-9.293,10.728-11.94,10.728a10.008,10.008,0,0,1-8.5-4.51,22.394,22.394,0,0,1-12.895,3.8c-8.242,0-13.056-3.547-15.726-6.765a21.824,21.824,0,0,1-16.344,6.765c-8.157,0-12.954-3.474-15.642-6.665a25.508,25.508,0,0,1-3.46,2.1,41.705,41.705,0,0,1-7.58,2.887,52.922,52.922,0,0,1-7.481,1.5,51.452,51.452,0,0,1-6.27.443c-8.1,0-11.013-4.776-11.625-8.455v.534c0,3.706,2.476,9.979,11.755,9.979a51.458,51.458,0,0,0,6.27-.443,52.908,52.908,0,0,0,7.48-1.5,41.7,41.7,0,0,0,7.58-2.887,25.515,25.515,0,0,0,3.46-2.1c2.687,3.191,7.485,6.665,15.642,6.665a21.825,21.825,0,0,0,16.344-6.765c2.671,3.218,7.484,6.765,15.726,6.765a22.4,22.4,0,0,0,12.895-3.8,10.008,10.008,0,0,0,8.5,4.51c2.648,0,9.113-1.049,11.94-10.728.459-1.539.946-3.387,1.465-5.559a11.767,11.767,0,0,0,6.522,1.867,9.884,9.884,0,0,0,3.52-.647c0-.068-.008-.128-.008-.2,0-.418.013-.851.042-1.3.01-.209.021-.42.032-.632a9.917,9.917,0,0,1-3.717.715A11.769,11.769,0,0,1,295.206,426.066Z" transform="translate(-176.279 -426.066)" fill="#232322"/>
        </g>
        <g id="Group_2" data-name="Group 2" transform="translate(129.1 3.141)">
          <path id="Path_3" data-name="Path 3" d="M762.956,423.293q0-.628.042-1.3.015-.313.032-.631c-.064.026-.132.044-.2.068a19.685,19.685,0,0,0,.132,2.077C762.965,423.434,762.956,423.368,762.956,423.293Z" transform="translate(-762.834 -421.363)" fill="#232322"/>
        </g>
        <g id="Group_3" data-name="Group 3" transform="translate(129.231)">
          <path id="Path_4" data-name="Path 4" d="M817.754,407.093c-.011.287-.018.572-.054.865-.3,2.868-1.657,5.8-4.15,8.944a30.233,30.233,0,0,1-5.178,5.165,19.921,19.921,0,0,1-12.537,4.067A20.415,20.415,0,0,1,783,422.05a10.693,10.693,0,0,1-8.985,5.062c-3.661,0-9.639-2.289-10.579-10.489.1,9.89,6.758,12.547,10.71,12.547a10.692,10.692,0,0,0,8.984-5.062,20.415,20.415,0,0,0,12.841,4.085,19.923,19.923,0,0,0,12.537-4.067,30.239,30.239,0,0,0,5.178-5.165c2.493-3.147,3.852-6.076,4.149-8.944a10.268,10.268,0,0,0,.078-1.248A9.984,9.984,0,0,0,817.754,407.093Z" transform="translate(-763.432 -407.093)" fill="#232322"/>
        </g>
      </g>
    </g>
    <path id="Path_5" data-name="Path 5" d="M215.1,290.773q-4.116,0-4.116-2.339V288.2a3.067,3.067,0,0,1,1.777-2.458q.059-3.405.474-8.143.8-9.031,2.546-22.089a2.657,2.657,0,0,1-1.688-2.28v-.177q.148-1.747,2.369-2.635.651-5.537,3.968-5.537,3.138,0,3.138,3.139,0,.3-.029.622a24.078,24.078,0,0,1,7.817-1.451q10.541,0,10.541,6.692,0,.385-.03.8-.326,3.731-4.471,7.61a28.615,28.615,0,0,1-7.492,5.093,23.979,23.979,0,0,1,7.018,4.057,8,8,0,0,1,3.109,6.1q0,.326-.03.651a8.417,8.417,0,0,1-2.176,4.99,16.047,16.047,0,0,1-4.812,3.568,33.846,33.846,0,0,1-6.189,2.354,45.03,45.03,0,0,1-6.4,1.288A44.393,44.393,0,0,1,215.1,290.773Zm4.59-6.188a19.083,19.083,0,0,0,5.789-.977,19.863,19.863,0,0,0,5.241-2.472q2.176-1.5,2.324-3.124v-.237a3.238,3.238,0,0,0-1.11-2.309,13.052,13.052,0,0,0-2.843-2.058q-1.732-.962-3.479-1.732-4.057-1.805-4.057-3.79v-.178q.118-1.45,4.915-4.146a32.984,32.984,0,0,0,4.915-3.435q3.524-2.9,3.7-4.886v-.148q0-1.894-4.175-1.9a38.764,38.764,0,0,0-8.172,1.362q-1.836,13.71-2.517,21.557Q219.811,280.677,219.694,284.585Z" transform="translate(-27.07 -31.896)" fill="#fff"/>
    <path id="Path_6" data-name="Path 6" d="M365.963,318.626q-6.811,0-10.126-4.353a14.261,14.261,0,0,1-3.05-7.2q-.207-2.28-.207-3.968,0-.947.059-1.688a26.928,26.928,0,0,1,1.214-5.863,26.028,26.028,0,0,1,3.139-6.4,5.978,5.978,0,0,1,4.974-2.872q2.28-5.359,9.3-5.359a10.312,10.312,0,0,1,4,.74,10.571,10.571,0,0,1,4.93,4.308,17.247,17.247,0,0,1,2.324,6.351,27.607,27.607,0,0,1,.385,4.471q0,1.037-.089,2.013a32.763,32.763,0,0,1-2.34,9.535Q376.238,318.627,365.963,318.626Zm.977-6.425a6.775,6.775,0,0,0,5.641-3.006,15.628,15.628,0,0,0,2.872-5.892,39.252,39.252,0,0,0,.785-4.486q.089-.947.089-1.866a19.889,19.889,0,0,0-.207-2.872q-.533-3.82-2.176-5.419a4.985,4.985,0,0,0-3.509-1.6q-2.576,0-2.842,2.961-.06.741-.059,1.333a6.288,6.288,0,0,0,.059.948,5.342,5.342,0,0,1,.118,1.1,2.944,2.944,0,0,1-.03.414q-.208,2.4-2.783,2.4-2.606-.415-2.606-3.583v-.148q-2.547,3.375-3.08,9.327-.059.741-.059,1.481a12.721,12.721,0,0,0,1.037,5.212Q361.817,312.2,366.94,312.2Z" transform="translate(-137.497 -60.015)" fill="#fff"/>
    <path id="Path_7" data-name="Path 7" d="M511.673,318.626q-6.811,0-10.126-4.353a14.261,14.261,0,0,1-3.05-7.2q-.207-2.28-.207-3.968,0-.947.059-1.688a26.921,26.921,0,0,1,1.214-5.863,26.031,26.031,0,0,1,3.139-6.4,5.979,5.979,0,0,1,4.975-2.872q2.28-5.359,9.3-5.359a10.313,10.313,0,0,1,4,.74,10.571,10.571,0,0,1,4.93,4.308,17.246,17.246,0,0,1,2.324,6.351,27.617,27.617,0,0,1,.385,4.471q0,1.037-.089,2.013a32.76,32.76,0,0,1-2.339,9.535Q521.948,318.627,511.673,318.626Zm.978-6.425a6.775,6.775,0,0,0,5.641-3.006,15.628,15.628,0,0,0,2.872-5.892,39.225,39.225,0,0,0,.785-4.486q.089-.947.089-1.866a19.958,19.958,0,0,0-.207-2.872q-.533-3.82-2.176-5.419a4.985,4.985,0,0,0-3.509-1.6q-2.576,0-2.843,2.961-.06.741-.059,1.333a6.32,6.32,0,0,0,.059.948,5.342,5.342,0,0,1,.119,1.1,2.944,2.944,0,0,1-.03.414q-.207,2.4-2.783,2.4Q508,295.8,508,292.628v-.148q-2.547,3.375-3.079,9.327-.059.741-.059,1.481A12.719,12.719,0,0,0,505.9,308.5Q507.527,312.2,512.65,312.2Z" transform="translate(-251.136 -60.015)" fill="#fff"/>
    <g id="Group_6" data-name="Group 6" transform="translate(279.355 211.619)">
      <path id="Path_8" data-name="Path 8" d="M647.173,286.391q-2.576,0-2.576-3.257,0-.384.03-.829a13.767,13.767,0,0,1,.355-1.954q3.76-14.331,9.268-38.02.828-3.642,4.323-3.642,3.375,0,4,3.465,2.665,15.012,4.945,21.467,2.428-4.264,5.271-10.186a102.527,102.527,0,0,1,5.967-11.37q1.968-2.932,4.042-2.931a2.829,2.829,0,0,1,3.08,2.576,59.961,59.961,0,0,1,.711,10.186q0,2.251-.089,4.8-.474,13.622-1.332,23.422-.5,5.834-3.7,5.833-3.08,0-3.08-5.123,0-.414.029-.859.118-2.368.3-5,.74-11.666.977-22.711-.563,1.155-1.421,3.079-2.961,6.662-5.212,10.6-3.524,6.041-5.951,6.041-6.4,0-8.942-18.388l-.178-1.332q-.859,4.264-1.658,8.5-2.694,14.213-4.53,20.372Q650.252,286.391,647.173,286.391Z" transform="translate(-644.597 -238.688)" fill="#009eff"/>
      <path id="Path_9" data-name="Path 9" d="M864.666,316.446q-9.92,0-12.437-9.535a22.769,22.769,0,0,1-.711-5.922q0-1.45.148-3.05a22.3,22.3,0,0,1,2.872-9.742,17.4,17.4,0,0,1,7.359-7.166,18.944,18.944,0,0,1,7.98-1.984,13.447,13.447,0,0,1,1.54.089,10.555,10.555,0,0,1,6.781,2.932,7.292,7.292,0,0,1,2.073,5.182q0,.415-.03.829-1.155,13.147-21.823,15.457a11.551,11.551,0,0,0,.977,3.375,6.225,6.225,0,0,0,5.863,3.849q3.345,0,6.632-3.494,4.057-4.293,5.538-4.293,1.539,0,1.54,1.688a2.719,2.719,0,0,1-.03.385q-.178,2.073-2.546,5.063a22.55,22.55,0,0,1-3.879,3.879A12.415,12.415,0,0,1,864.666,316.446Zm-6.455-18.24q14.686-1.539,15.427-9.92v-.267a2.716,2.716,0,0,0-1.836-2.576,6.06,6.06,0,0,0-2.428-.474,9.914,9.914,0,0,0-2.961.5,10.7,10.7,0,0,0-5.478,4.323A17.1,17.1,0,0,0,858.211,298.206Z" transform="translate(-805.976 -270.165)" fill="#009eff"/>
    </g>
    <path id="Path_10" data-name="Path 10" d="M389.954,228.657a17.726,17.726,0,0,1,3.587-2.077,16.542,16.542,0,0,1,3.944-.9c2.84-.4,5.736-.673,8.482.348.532.2.762-.653.234-.849-2.765-1.028-5.692-.8-8.559-.4a14.687,14.687,0,0,0-8.133,3.122c-.458.326-.019,1.09.444.76Z" transform="translate(-166.148 -15.957)" fill="#2d2d2d"/>
    <path id="Path_11" data-name="Path 11" d="M523.052,232.1a15.755,15.755,0,0,1,7-3.478c2.853-.65,5.778-1.209,8.658-.4a.441.441,0,0,0,.234-.849c-3.033-.852-6.119-.284-9.125.4a16.684,16.684,0,0,0-7.385,3.7c-.434.366.192.986.623.622Z" transform="translate(-269.849 -17.907)" fill="#2d2d2d"/>
  </g>
</svg>
