<svg xmlns="http://www.w3.org/2000/svg" width="20.434" height="20.433" viewBox="0 0 20.434 20.433">
  <g id="man" transform="translate(0 -0.009)">
    <path id="Path_26964" data-name="Path 26964" d="M246.968.009H244.16a1.538,1.538,0,0,0-.587,2.96.154.154,0,0,1,.051.251l-5.74,5.74,1.97,1.97,5.74-5.74a.154.154,0,0,1,.251.051,1.538,1.538,0,0,0,2.96-.587V1.847A1.746,1.746,0,0,0,246.968.009Z" transform="translate(-228.373 0)" fill="#89b0e0"/>
    <path id="Path_26965" data-name="Path 26965" d="M240.41,160.7l-2.525,2.525,1.97,1.97,2.484-2.484A5.684,5.684,0,0,0,240.41,160.7Z" transform="translate(-228.373 -154.268)" fill="#6197d5"/>
    <path id="Path_26966" data-name="Path 26966" d="M6.884,166.679a6.884,6.884,0,1,0,6.884,6.884A6.884,6.884,0,0,0,6.884,166.679Zm0,11.141a4.257,4.257,0,1,1,4.257-4.257,4.257,4.257,0,0,1-4.257,4.257Z" transform="translate(0 -160.005)" fill="#99ddfc"/>
    <path id="Path_26967" data-name="Path 26967" d="M6.641,180.668a18.432,18.432,0,0,1-1.052-2.794,4.259,4.259,0,0,1-.188-8.048q.115-.448.25-.891a10.121,10.121,0,0,1,.536-1.42,4.672,4.672,0,0,1,.317-.572A6.884,6.884,0,0,0,6.655,180.7Z" transform="translate(0 -160.26)" fill="#66cdf7"/>
  </g>
</svg>
