<svg xmlns="http://www.w3.org/2000/svg" width="102" height="102" viewBox="0 0 102 102">
  <g id="marketing" transform="translate(-251 -980)">
    <g id="Group_51" data-name="Group 51" transform="translate(-282 -358.304)">
      <g id="Ellipse_2" data-name="Ellipse 2" transform="translate(533 1338.304)" fill="none" stroke="#b9b9b9" stroke-width="2" stroke-dasharray="5">
        <circle cx="51" cy="51" r="51" stroke="none"/>
        <circle cx="51" cy="51" r="50" fill="none"/>
      </g>
    </g>
    <g id="social-media" transform="translate(256.233 999)">
      <path id="Path_390" data-name="Path 390" d="M212.275,33.654a6.255,6.255,0,0,0,3.676,1.187H227.7v5.7l7.447-5.7h3.213a6.261,6.261,0,0,0,6.271-6.251V6.251A6.261,6.261,0,0,0,238.358,0H215.952a6.261,6.261,0,0,0-6.271,6.251v27.4Z" transform="translate(-168.958 0)" fill="#f7f3f1"/>
      <path id="Path_391" data-name="Path 391" d="M360.344,0h-5.371a6.261,6.261,0,0,1,6.271,6.251V28.59a6.261,6.261,0,0,1-6.271,6.251h-3.213l-2.076,1.588v4.108l7.447-5.7h3.213a6.261,6.261,0,0,0,6.271-6.251V6.251A6.261,6.261,0,0,0,360.344,0Z" transform="translate(-290.944)" fill="#efe7e3"/>
      <path id="Path_392" data-name="Path 392" d="M298.84,73.715l.646.523a5.756,5.756,0,0,0,3.621,1.282h9.175a1.53,1.53,0,0,0,1.529-1.6c-.039-.823,0-8.32,0-9.165a1.531,1.531,0,0,0-1.53-1.53l-6.222-.019.762-1.8a6.528,6.528,0,0,0-.346-5.778,1.027,1.027,0,0,0-1.9.505,6.64,6.64,0,0,1-1.661,4.393l-3.967,4.489H297.5v8.708h1.34Z" transform="translate(-245.475 -48.037)" fill="#ffd36c"/>
      <path id="Path_393" data-name="Path 393" d="M271.346,131.165h-4.189a.5.5,0,0,1-.5-.5V119.985a.5.5,0,0,1,.5-.5h4.189a.5.5,0,0,1,.5.5v10.679A.5.5,0,0,1,271.346,131.165Z" transform="translate(-218.6 -104.107)" fill="#8ee6f3"/>
      <path id="Path_394" data-name="Path 394" d="M43.326,162.475V139.93A4.937,4.937,0,0,0,38.382,135H20.712a4.937,4.937,0,0,0-4.945,4.93v17.616a4.937,4.937,0,0,0,4.945,4.93h9.707v4.534l5.872-4.534Z" transform="translate(0 -117.626)" fill="#72d1fb"/>
      <path id="Path_395" data-name="Path 395" d="M144.08,135h-7a4.937,4.937,0,0,1,4.945,4.93v22.545h7V139.93A4.937,4.937,0,0,0,144.08,135Z" transform="translate(-105.699 -117.626)" fill="#62a6fd"/>
      <path id="Path_396" data-name="Path 396" d="M79.125,194.818H75.572l.389-2.355h3.164a.966.966,0,0,0,0-1.93H76.28l.532-3.215a.966.966,0,0,0-1.9-.315l-.584,3.53H72l.532-3.215a.966.966,0,0,0-1.9-.315l-.584,3.53H66.166a.966.966,0,0,0,0,1.93h3.554l-.389,2.355H66.166a.966.966,0,0,0,0,1.93h2.845l-.532,3.215a.966.966,0,0,0,1.9.315l.583-3.53H73.3l-.532,3.215a.966.966,0,0,0,1.9.315l.584-3.53h3.873a.966.966,0,0,0,0-1.93Zm-5.51,0H71.287l.389-2.355H74Z" transform="translate(-43.099 -162.258)" fill="#f7f3f1"/>
      <path id="Path_397" data-name="Path 397" d="M195.582,320.5H183.043a3.5,3.5,0,0,0-3.509,3.5v12.5a3.5,3.5,0,0,0,3.509,3.5h6.889v3.218L194.1,340h1.483a3.5,3.5,0,0,0,3.509-3.5V324a3.5,3.5,0,0,0-3.509-3.5Z" transform="translate(-142.691 -279.251)" fill="#fa9084"/>
      <path id="Path_398" data-name="Path 398" d="M265.977,320.5h-5.405a3.5,3.5,0,0,1,3.509,3.5v12.5a3.5,3.5,0,0,1-3.509,3.5h-.245v3.218L264.493,340h1.483a3.5,3.5,0,0,0,3.509-3.5V324A3.5,3.5,0,0,0,265.977,320.5Z" transform="translate(-213.085 -279.251)" fill="#ff6cb5"/>
      <path id="Path_399" data-name="Path 399" d="M224.5,376.288c3.017-1.6,4.581-2.961,4.581-5.069,0-2.908-3.563-3.636-4.581-1.454-1.163-2.254-4.581-1.454-4.581,1.454C219.924,373.327,221.487,374.688,224.5,376.288Z" transform="translate(-177.883 -321.044)" fill="#f7f3f1"/>
    </g>
  </g>
</svg>
