<svg xmlns="http://www.w3.org/2000/svg" width="48" height="48" viewBox="0 0 48 48">
  <g id="plan-check" transform="translate(-506)">
    <g id="Ellipse_193" data-name="Ellipse 193" transform="translate(506)" fill="#eee" stroke="#fff" stroke-width="2">
      <circle cx="24" cy="24" r="24" stroke="none"/>
      <circle cx="24" cy="24" r="23" fill="none"/>
    </g>
    <path id="Icon_awesome-check" data-name="Icon awesome-check" d="M6.114,17.736l-5.85-5.85a.9.9,0,0,1,0-1.273L1.536,9.341a.9.9,0,0,1,1.273,0L6.75,13.282l8.441-8.441a.9.9,0,0,1,1.273,0l1.273,1.273a.9.9,0,0,1,0,1.273L7.386,17.736A.9.9,0,0,1,6.114,17.736Z" transform="translate(521 12.711)" fill="#fe6290"/>
  </g>
</svg>
