<svg xmlns="http://www.w3.org/2000/svg" xmlns:xlink="http://www.w3.org/1999/xlink" width="184" height="185" viewBox="0 0 184 185">
  <defs>
    <filter id="Ellipse_6" x="14.5" y="21.5" width="155" height="154" filterUnits="userSpaceOnUse">
      <feOffset dy="6" input="SourceAlpha"/>
      <feGaussianBlur stdDeviation="6.5" result="blur"/>
      <feFlood flood-opacity="0.102"/>
      <feComposite operator="in" in2="blur"/>
      <feComposite in="SourceGraphic"/>
    </filter>
  </defs>
  <g id="play_icon" transform="translate(-0.427 0.167)">
    <ellipse id="Ellipse_4" data-name="Ellipse 4" cx="92" cy="92.5" rx="92" ry="92.5" transform="translate(0.427 -0.167)" fill="#fff" opacity="0.2"/>
    <circle id="Ellipse_5" data-name="Ellipse 5" cx="76" cy="76" r="76" transform="translate(17.427 17.833)" fill="#fff" opacity="0.6"/>
    <g transform="matrix(1, 0, 0, 1, 0.43, -0.17)" filter="url(#Ellipse_6)">
      <ellipse id="Ellipse_6-2" data-name="Ellipse 6" cx="58" cy="57.5" rx="58" ry="57.5" transform="translate(34 35)" fill="#89cff0"/>
    </g>
    <path id="Icon_awesome-play" data-name="Icon awesome-play" d="M38.3,19.375,6.534.595A4.308,4.308,0,0,0,0,4.322V41.873A4.328,4.328,0,0,0,6.534,45.6L38.3,26.829a4.327,4.327,0,0,0,0-7.454Z" transform="translate(71.875 69.318)" fill="#fff"/>
  </g>
</svg>
