<svg xmlns="http://www.w3.org/2000/svg" width="26.693" height="29.975" viewBox="0 0 26.693 29.975">
  <g id="playstore" transform="translate(-0.5 0)">
    <path id="Path_340" data-name="Path 340" d="M1.053,18.855A2.741,2.741,0,0,0,.5,20.519v24.44a2.747,2.747,0,0,0,.48,1.562l13.3-13.871Zm0,0" transform="translate(0 -17.752)" fill="#fff"/>
    <path id="Path_341" data-name="Path 341" d="M48.1,13.629l4.314-4.5L37.247.374A2.732,2.732,0,0,0,35.129.1Zm0,0" transform="translate(-32.601 0)" fill="#fff"/>
    <path id="Path_342" data-name="Path 342" d="M45.99,276.18l-13.1,13.663a2.721,2.721,0,0,0,.867.143,2.758,2.758,0,0,0,1.382-.375l15.273-8.818Zm0,0" transform="translate(-30.495 -260.011)" fill="#fff"/>
    <path id="Path_343" data-name="Path 343" d="M286.535,173.954l-4.433-2.56-4.664,4.864,4.773,4.979,4.325-2.5a2.763,2.763,0,0,0,0-4.787Zm0,0" transform="translate(-260.724 -161.36)" fill="#fff"/>
  </g>
</svg>
