<svg xmlns="http://www.w3.org/2000/svg" width="29.75" height="29.75" viewBox="0 0 29.75 29.75">
  <path id="plus-gray" d="M25.768,13.152h-8.92V4.232A1.982,1.982,0,0,0,14.866,2.25H12.884A1.982,1.982,0,0,0,10.9,4.232v8.92H1.982A1.982,1.982,0,0,0,0,15.134v1.982A1.982,1.982,0,0,0,1.982,19.1H10.9v8.92A1.982,1.982,0,0,0,12.884,30h1.982a1.982,1.982,0,0,0,1.982-1.982V19.1h8.92a1.982,1.982,0,0,0,1.982-1.982V15.134A1.982,1.982,0,0,0,25.768,13.152Z" transform="translate(1 -1.25)" fill="#c1c1c1" stroke="#fff" stroke-width="2"/>
</svg>
