<svg xmlns="http://www.w3.org/2000/svg" width="123.585" height="121.509" viewBox="0 0 123.585 121.509">
  <path id="price-value-bg" d="M359.32,762.713a1.033,1.033,0,0,0-.653-.489c-.5-.129-1.749.322-4.778,1.954.181-.12.354-.237.521-.351,2.634-1.8,3.648-2.631,3.059-3.648a1.05,1.05,0,0,0-.66-.5,3.14,3.14,0,0,0-1.652.382c4.447-2.986,4.515-3.662,4.084-4.406a1.074,1.074,0,0,0-.677-.507c-.662-.169-2.537.592-6.489,2.752,6.132-3.971,5.862-4.443,5.42-5.207a1.078,1.078,0,0,0-.686-.51c-.468-.117-1.508.21-3.416,1.144,2.936-2.12,2.942-2.722,2.567-3.368a1.133,1.133,0,0,0-.706-.527,3.509,3.509,0,0,0-1.755.346c3.94-2.654,4.67-3.457,4.1-4.448a1.053,1.053,0,0,0-.657-.49,3.127,3.127,0,0,0-1.626.384c2.107-1.575,2.514-2.318,2.051-3.119a1.054,1.054,0,0,0-.665-.5,5.492,5.492,0,0,0-2.622.793c.384-.249.744-.485,1.084-.709,3.894-2.578,4.614-3.347,4.049-4.324a1.059,1.059,0,0,0-.662-.5c-.4-.1-1.278.16-3.044,1.017,3.1-2.065,3.861-2.811,3.3-3.776a1.1,1.1,0,0,0-.7-.52,5.478,5.478,0,0,0-2.689.751c3.1-2.159,3.732-3,3.193-3.934a1.166,1.166,0,0,0-.732-.542,5.759,5.759,0,0,0-2.833.754,2.489,2.489,0,0,0,.659-.933,1.148,1.148,0,0,0-.841-1.442,1.761,1.761,0,0,0-.735.024c3.055-2.1,4.652-3.478,4.848-4.207a1.2,1.2,0,0,0-.108-.911,1.09,1.09,0,0,0-.683-.51c-.676-.173-2.66.63-6.8,2.88,3.073-2.156,2.83-2.575,2.478-3.185a1.112,1.112,0,0,0-.709-.525c-.577-.148-1.986.332-4.585,1.645,2.742-1.981,3.328-2.845,2.807-3.746a1.181,1.181,0,0,0-.739-.547,2.375,2.375,0,0,0-1.113.124c4.784-3.236,5.4-4.134,4.828-5.135a1.085,1.085,0,0,0-.679-.507c-.449-.115-1.538.236-3.5,1.18a4.035,4.035,0,0,0,1.3-1.5,1.152,1.152,0,0,0-.106-.875,1.082,1.082,0,0,0-.68-.506c-.644-.17-2.578.606-6.451,2.673,3.563-2.483,3.6-3.133,3.208-3.819a1.072,1.072,0,0,0-.677-.5,4.99,4.99,0,0,0-2.428.7l.006,0c4.69-3.132,5.264-3.939,4.7-4.917a1.068,1.068,0,0,0-.668-.5c-.58-.148-2.265.518-5.713,2.364a3.52,3.52,0,0,0,1.216-1.544,1.169,1.169,0,0,0-.109-.9,1.1,1.1,0,0,0-.688-.513c-.428-.109-1.336.152-2.93.888,1.289-.961,1.9-1.588,2.007-1.987a1.073,1.073,0,0,0-.1-.835,1.115,1.115,0,0,0-.7-.518c-.571-.147-1.989.354-4.649,1.714,3.34-2.321,4.066-3.223,3.507-4.19a1.145,1.145,0,0,0-.721-.533c-.817-.205-3.053.7-7.6,3.182,3.932-2.684,3.68-3.118,3.3-3.777a1.138,1.138,0,0,0-.715-.53c-.606-.155-2.1.363-4.81,1.734,4.4-2.929,4.154-3.362,3.756-4.051a1.067,1.067,0,0,0-.66-.495c-.468-.121-1.514.218-3.829,1.4,2.619-1.951,2.619-2.571,2.244-3.216a1.1,1.1,0,0,0-.688-.515c-.65-.164-2.35.49-5.807,2.347.988-.885,1.119-1.412.777-2a1.046,1.046,0,0,0-.654-.492c-.7-.179-2.78.724-8.8,4.173,5.286-3.528,5.394-4.246,4.94-5.032a1.038,1.038,0,0,0-.662-.5c-.691-.177-2.605.622-7.925,3.642,5.572-3.626,5.317-4.068,4.887-4.812a1.1,1.1,0,0,0-.686-.513c-.77-.193-3,.779-8,3.621,3.1-2.177,2.871-2.575,2.514-3.2a1.08,1.08,0,0,0-.674-.5c-.817-.205-3.269.883-10.353,4.986,2.329-1.629,3.287-2.454,2.721-3.432a1.092,1.092,0,0,0-.641-.482c-.6-.149-1.826.3-7.439,3.579l.27-.189c1.972-1.387,3.061-2.221,2.475-3.236a1.057,1.057,0,0,0-.673-.5c-.771-.2-2.731.659-8.713,4.167.776-.521,1.432-.972,1.977-1.36,1.582-1.133,2.725-1.95,2.145-2.951a1.041,1.041,0,0,0-.662-.493c-.736-.188-2.529.6-8.4,4.063,4.811-3.2,4.872-3.684,4.392-4.514a1.086,1.086,0,0,0-.639-.481c-.882-.223-2.692.668-17.133,9.495.654-.439,1.278-.86,1.861-1.258,5.522-3.763,5.777-4.1,5.241-5.035a1.041,1.041,0,0,0-.627-.47c-.712-.18-1.286.039-13.406,7.5-1.5.923-3.147,1.937-4.779,2.933,2.133-1.626,4.272-3.259,5.909-4.551,3.2-2.523,3.718-2.967,3.211-3.844a1.013,1.013,0,0,0-.615-.464c-.545-.138-.615-.154-5.947,3.137-1.819,1.125-4.28,2.646-4.934,2.942a.966.966,0,0,0-.732,1.444,1.021,1.021,0,0,0,.615.463.865.865,0,0,0,.41.032c-9.126,6.95-9.123,6.955-8.581,7.894a1.1,1.1,0,0,0,.639.481c.419.1,1-.031,3.062-1.159q-.783.523-1.489,1.005c-4.6,3.123-5.086,3.5-4.535,4.455a1.112,1.112,0,0,0,.645.481c.331.085.814,0,2.068-.615-.123.079-.246.157-.366.236-7.62,4.9-7.784,5.363-7.213,6.35a1.058,1.058,0,0,0,.662.495c.618.157,1.986-.375,5.9-2.607-1.043.69-1.9,1.273-2.575,1.76-1.6,1.15-2.763,1.981-2.183,2.989a1.051,1.051,0,0,0,.662.492,2.416,2.416,0,0,0,1.331-.256c-.879.575-1.623,1.078-2.242,1.513-1.968,1.383-3.052,2.215-2.469,3.228a1.075,1.075,0,0,0,.677.5,4.406,4.406,0,0,0,2.3-.638c-1.271.82-2.32,1.52-3.167,2.111-2.4,1.674-3.392,2.51-2.818,3.5a1.048,1.048,0,0,0,.653.491c.583.15,2.092-.448,6.1-2.688-2.845,1.978-3.639,2.761-3.079,3.732a1.109,1.109,0,0,0,.694.518,3.061,3.061,0,0,0,1.567-.308c-6.164,4.04-6.333,4.833-5.853,5.667a1.085,1.085,0,0,0,.674.506c.791.2,3.366-.958,9.278-4.321-6.018,3.89-5.763,4.328-5.317,5.1a1.063,1.063,0,0,0,.668.5,2.752,2.752,0,0,0,1.43-.274c-.663.427-1.257.816-1.791,1.172-3.231,2.164-4.086,2.94-3.515,3.927a1.134,1.134,0,0,0,.712.531c.527.132,1.717-.245,3.808-1.253-1.626,1.361-1.579,1.891-1.259,2.442a1.075,1.075,0,0,0,.682.511,3.724,3.724,0,0,0,1.869-.432c-.266.179-.521.35-.764.516-4.172,2.836-5.045,3.781-4.451,4.812a1.107,1.107,0,0,0,.7.52c.521.132,1.725-.265,3.917-1.348-4.928,3.334-5.06,4.091-4.618,4.856a1.16,1.16,0,0,0,.733.542,5.586,5.586,0,0,0,2.786-.729c-3.686,2.528-4.494,3.467-3.914,4.47a1.154,1.154,0,0,0,.732.541,2.676,2.676,0,0,0,1.31-.17c-1.2.949-1.81,1.611-1.925,2.046a1.133,1.133,0,0,0,.826,1.426,2.816,2.816,0,0,0,1.38-.2c-2.856,1.922-4.14,3.041-4.306,3.653a1.124,1.124,0,0,0,.1.856,1.142,1.142,0,0,0,.712.529c.516.13,1.7-.229,3.75-1.184-2.821,2.068-2.853,2.7-2.493,3.322a1.152,1.152,0,0,0,.723.537c.522.131,1.708-.228,3.727-1.164-2.054,1.606-2.288,2.3-1.858,3.044a1.056,1.056,0,0,0,.666.5,2.922,2.922,0,0,0,1.453-.3c-3.4,2.214-4.852,3.411-5.013,4.013a1.083,1.083,0,0,0,.1.823,1.1,1.1,0,0,0,.694.517c.732.19,3.076-.79,7.746-3.317-2.944,2.1-2.7,2.527-2.352,3.126a1.192,1.192,0,0,0,.752.555c.516.13,1.591-.169,3.279-.916-3.041,2.13-3.659,2.965-3.12,3.9a1.175,1.175,0,0,0,.741.548,5.281,5.281,0,0,0,2.59-.639c-1.884,1.573-1.9,2.2-1.565,2.774a1.141,1.141,0,0,0,.715.532c.469.12,1.474-.161,3.164-.918-1.553,1.15-2.3,1.9-2.426,2.37a1.121,1.121,0,0,0,.106.866,1.132,1.132,0,0,0,.712.53,3.4,3.4,0,0,0,1.7-.321c-1.635,1.166-2.391,1.887-2.508,2.32a1.082,1.082,0,0,0,.1.828,1.168,1.168,0,0,0,.738.545c.691.176,2.52-.5,5.628-2.085-1.1.982-1.275,1.571-.908,2.2a1.111,1.111,0,0,0,.7.52,3.938,3.938,0,0,0,1.98-.451c-1.708,1.391-1.886,2.048-1.491,2.736a1.1,1.1,0,0,0,.689.513,3.913,3.913,0,0,0,1.9-.445c-3.378,2.364-3.8,3.137-3.293,4.01a1.056,1.056,0,0,0,.662.495c.393.1,1.245-.142,2.927-.94-1.787,1.33-2.077,1.944-1.649,2.683a1.116,1.116,0,0,0,.7.521c.668.168,2.572-.569,6.231-2.491-2.311,1.725-2.086,2.119-1.764,2.674a1.046,1.046,0,0,0,.657.492c.638.161,2.408-.568,7.207-3.278-2.76,2.018-2.757,2.611-2.391,3.246a1.137,1.137,0,0,0,.718.53c.545.142,1.8-.264,4.022-1.343-3.574,2.535-3.63,3.212-3.228,3.909a1.09,1.09,0,0,0,.691.514c.753.191,3.03-.774,7.8-3.42-1.043.984-.964,1.428-.691,1.9a1.053,1.053,0,0,0,.659.5c.6.158,2.165-.451,6.2-2.68-2.431,1.837-2.426,2.416-2.074,3.027a1.068,1.068,0,0,0,.665.5c.559.142,1.951-.367,5.224-2.122-3.876,2.615-3.648,3.009-3.267,3.671a1.043,1.043,0,0,0,.653.492c1.043.267,4.8-1.706,20.572-11.251-11.2,7.03-10.953,7.459-10.406,8.405a1.1,1.1,0,0,0,.639.481c.7.175,2.162-.43,10.614-5.476-.331.227-.638.438-.92.637-2.317,1.641-3.208,2.4-2.648,3.374a1.123,1.123,0,0,0,.647.485c.721.184,2.212-.44,10.553-5.455-.861.543-1.682,1.066-2.458,1.561-2.543,1.632-4.395,2.862-5.66,3.766-1.688,1.2-2.8,2-2.227,3a1.133,1.133,0,0,0,.651.486.849.849,0,0,0,.222.027c1.014,0,3.657-1.348,14.177-7.688-7.224,4.759-7.011,5.13-6.53,5.966a1.1,1.1,0,0,0,.644.482c.914.232,2.839-.742,19.058-10.693-14.177,9.39-14.139,9.457-13.521,10.526a1.036,1.036,0,0,0,.622.469c.744.193,1.467-.1,15.963-8.9,5.306-3.223,11.869-7.21,13.076-7.7a.98.98,0,0,0,.433-.129.966.966,0,0,0,.355-1.319,1.018,1.018,0,0,0-.616-.465c-.462-.12-.676-.176-5.669,2.785,11.822-7.859,11.725-8.029,11.154-9.016a1.1,1.1,0,0,0-.642-.482c-.6-.153-1.7.247-6.972,3.356.949-.609,1.845-1.191,2.68-1.736,1.925-1.258,3.328-2.208,4.286-2.9,1.319-.957,2.274-1.645,1.738-2.577a1.114,1.114,0,0,0-.642-.481c-.6-.152-1.781.288-7.427,3.6.34-.215.671-.428,1-.636,2.6-1.667,4.492-2.926,5.784-3.852,1.875-1.339,2.827-2.08,2.27-3.044a1.063,1.063,0,0,0-.671-.5c-.41-.1-1.18.105-2.718.851,1.294-.83,2.317-1.5,3.1-2.045,1.661-1.147,2.663-1.84,2.107-2.807a1.086,1.086,0,0,0-.674-.5c-.569-.143-1.94.354-5.075,2.037,8.224-5.205,8.007-5.583,7.509-6.444a1.083,1.083,0,0,0-.677-.505,4.823,4.823,0,0,0-2.472.7C359.974,763.841,359.722,763.408,359.32,762.713Z" transform="translate(-235.934 -689.117)" fill="#f7c3c3"/>
</svg>
