<svg id="setting_about" xmlns="http://www.w3.org/2000/svg" width="33" height="33" viewBox="0 0 33 33">
  <circle id="Ellipse_162" data-name="Ellipse 162" cx="16.5" cy="16.5" r="16.5" fill="#89cff0" opacity="0.4"/>
  <g id="logo" transform="translate(5.552 9)">
    <path id="Path_1" data-name="Path 1" d="M314.628,207.419a4.316,4.316,0,0,0-2.755-1.265,5.08,5.08,0,0,0-.582-.034,6.4,6.4,0,0,0-2.7.651,5.106,5.106,0,0,0-.807.476q-.049-.556-.132-1.031a2.5,2.5,0,0,0-2.552-2.128,2.975,2.975,0,0,0-2.5,1.52c-.154.229-.329.523-.529.892l-.03-.169a2.731,2.731,0,0,0-2.774-2.35,2.811,2.811,0,0,0-2.834,2.3c-.128.548-.252,1.08-.374,1.6-.154.764-2.1,9.313-1.586,10.186a2.411,2.411,0,0,0,2.048,1.087c.638,0,2.2-.253,2.876-2.585.111-.371.228-.816.353-1.339a2.835,2.835,0,0,0,1.571.45,2.389,2.389,0,0,0,.9-.172c0,.051-.005.1-.008.152q-.01.161-.01.313c0,2.427,1.623,3.074,2.582,3.074a2.576,2.576,0,0,0,2.164-1.22,4.918,4.918,0,0,0,3.093.984,4.8,4.8,0,0,0,3.02-.98,7.281,7.281,0,0,0,1.247-1.244,4.218,4.218,0,0,0,1-2.155,2.464,2.464,0,0,0,.019-.3,2.285,2.285,0,0,0-.489-1.442,5.242,5.242,0,0,0,.789-2.391l0-.032q.012-.164.012-.329A3.6,3.6,0,0,0,314.628,207.419Z" transform="translate(-294.382 -203.98)" fill="#232322"/>
    <g id="Group_6" data-name="Group 6" transform="translate(1.514 1.84)">
      <path id="Path_8" data-name="Path 8" d="M645.217,250.18q-.621,0-.62-.785,0-.093.007-.2a3.325,3.325,0,0,1,.086-.471q.906-3.452,2.233-9.159a.99.99,0,0,1,1.042-.877.9.9,0,0,1,.963.835,36.466,36.466,0,0,0,1.191,5.172q.585-1.027,1.27-2.454a24.7,24.7,0,0,1,1.437-2.739q.474-.706.974-.706a.681.681,0,0,1,.742.621,14.447,14.447,0,0,1,.171,2.454q0,.542-.021,1.156-.114,3.281-.321,5.642-.121,1.405-.892,1.405-.742,0-.742-1.234,0-.1.007-.207.028-.571.071-1.206.178-2.81.235-5.471-.135.278-.342.742-.713,1.6-1.255,2.554-.849,1.455-1.434,1.455-1.541,0-2.154-4.43l-.043-.321q-.207,1.027-.4,2.047-.649,3.424-1.091,4.908Q645.959,250.18,645.217,250.18Z" transform="translate(-644.597 -238.688)" fill="#009eff"/>
      <path id="Path_9" data-name="Path 9" d="M854.686,288.057a2.814,2.814,0,0,1-3-2.3,5.485,5.485,0,0,1-.171-1.427q0-.349.036-.735a5.371,5.371,0,0,1,.692-2.347,4.192,4.192,0,0,1,1.773-1.726,4.564,4.564,0,0,1,1.922-.478,3.243,3.243,0,0,1,.371.021,2.542,2.542,0,0,1,1.634.706,1.756,1.756,0,0,1,.5,1.248q0,.1-.007.2-.278,3.167-5.257,3.724a2.785,2.785,0,0,0,.235.813,1.5,1.5,0,0,0,1.413.927,2.242,2.242,0,0,0,1.6-.842q.977-1.034,1.334-1.034t.371.407a.666.666,0,0,1-.007.093,2.489,2.489,0,0,1-.613,1.22,5.433,5.433,0,0,1-.935.934A2.99,2.99,0,0,1,854.686,288.057Zm-1.555-4.394q3.538-.371,3.716-2.39v-.064a.654.654,0,0,0-.442-.621,1.459,1.459,0,0,0-.585-.114,2.389,2.389,0,0,0-.713.121,2.577,2.577,0,0,0-1.32,1.042A4.121,4.121,0,0,0,853.131,283.663Z" transform="translate(-840.547 -276.908)" fill="#009eff"/>
    </g>
  </g>
</svg>
