<svg id="setting_socialaccount" xmlns="http://www.w3.org/2000/svg" width="33" height="33" viewBox="0 0 33 33">
  <circle id="Ellipse_161" data-name="Ellipse 161" cx="16.5" cy="16.5" r="16.5" fill="#f7c3c3" opacity="0.4"/>
  <g id="social-media" transform="translate(7.309 6.649)">
    <path id="Path_26887" data-name="Path 26887" d="M193.626,320.5H182.615a3.077,3.077,0,0,0-3.081,3.072v10.977a3.077,3.077,0,0,0,3.081,3.072h6.049v2.825l3.659-2.825h1.3a3.077,3.077,0,0,0,3.081-3.072V323.57A3.077,3.077,0,0,0,193.626,320.5Z" transform="translate(-179.534 -320.498)" fill="#fe6262"/>
    <path id="Path_26888" data-name="Path 26888" d="M265.288,320.5h-4.746a3.077,3.077,0,0,1,3.081,3.072v10.977a3.077,3.077,0,0,1-3.081,3.072h-.216v2.825l3.659-2.825h1.3a3.077,3.077,0,0,0,3.081-3.072V323.57A3.077,3.077,0,0,0,265.288,320.5Z" transform="translate(-250.917 -320.498)" fill="#fe6290"/>
    <path id="Path_26889" data-name="Path 26889" d="M223.946,375.334c2.65-1.4,4.022-2.6,4.022-4.451,0-2.554-3.129-3.192-4.022-1.277-1.022-1.979-4.022-1.277-4.022,1.277C219.924,372.735,221.3,373.93,223.946,375.334Z" transform="translate(-215.081 -363.044)" fill="#f7f3f1"/>
  </g>
</svg>
