<svg id="setting_user" xmlns="http://www.w3.org/2000/svg" width="33" height="33" viewBox="0 0 33 33">
  <circle id="Ellipse_161" data-name="Ellipse 161" cx="16.5" cy="16.5" r="16.5" fill="#a2dbf6" opacity="0.4"/>
  <g id="user" transform="translate(8 6.622)">
    <path id="Path_26940" data-name="Path 26940" d="M96.418,4.691a4.54,4.54,0,0,1-1.374,3.317,4.539,4.539,0,0,1-3.317,1.374h0A4.54,4.54,0,0,1,88.41,8.008a4.539,4.539,0,0,1-1.374-3.317A4.538,4.538,0,0,1,88.41,1.375,4.538,4.538,0,0,1,91.724,0h0a4.541,4.541,0,0,1,3.317,1.374A4.539,4.539,0,0,1,96.418,4.691Zm0,0" transform="translate(-83.724 0)" fill="#ffbb85"/>
    <path id="Path_26941" data-name="Path 26941" d="M16.25,254.039a3.234,3.234,0,0,1-.961,2.447,3.458,3.458,0,0,1-2.475.9H3.436a3.456,3.456,0,0,1-2.475-.9A3.233,3.233,0,0,1,0,254.039c0-.391.013-.778.039-1.15A11.517,11.517,0,0,1,.2,251.658a9.717,9.717,0,0,1,.3-1.237,6.136,6.136,0,0,1,.509-1.154,4.369,4.369,0,0,1,.767-1,3.383,3.383,0,0,1,1.1-.692,3.81,3.81,0,0,1,1.407-.254,1.425,1.425,0,0,1,.762.323c.232.151.5.324.795.513a4.537,4.537,0,0,0,1.027.453,4.1,4.1,0,0,0,1.132.2l.124,0a4.086,4.086,0,0,0,1.257-.2,4.537,4.537,0,0,0,1.028-.453c.3-.191.566-.363.795-.512a1.424,1.424,0,0,1,.762-.323,3.812,3.812,0,0,1,1.407.254,3.386,3.386,0,0,1,1.1.693,4.353,4.353,0,0,1,.767,1,6.115,6.115,0,0,1,.509,1.154,9.708,9.708,0,0,1,.3,1.238,11.624,11.624,0,0,1,.158,1.231c.026.371.039.758.04,1.15Zm0,0" transform="translate(0 -237.911)" fill="#6aa9ff"/>
    <path id="Path_26942" data-name="Path 26942" d="M210.3,9.382h0V0h0a4.541,4.541,0,0,1,3.317,1.374,4.539,4.539,0,0,1,1.374,3.317,4.539,4.539,0,0,1-1.374,3.317A4.539,4.539,0,0,1,210.3,9.382Zm0,0" transform="translate(-202.294)" fill="#f5a86c"/>
    <path id="Path_26943" data-name="Path 26943" d="M218.543,254.039a3.233,3.233,0,0,1-.961,2.447,3.458,3.458,0,0,1-2.475.9h-4.814v-8.58l.124,0a4.086,4.086,0,0,0,1.257-.2,4.537,4.537,0,0,0,1.028-.453c.3-.191.566-.363.795-.512a1.424,1.424,0,0,1,.762-.323,3.812,3.812,0,0,1,1.406.254,3.386,3.386,0,0,1,1.1.692,4.354,4.354,0,0,1,.767,1,6.114,6.114,0,0,1,.509,1.154,9.707,9.707,0,0,1,.3,1.238,11.616,11.616,0,0,1,.158,1.231c.026.371.039.758.04,1.15Zm0,0" transform="translate(-202.293 -237.912)" fill="#2682ff"/>
  </g>
</svg>
