<svg id="setting_rate" xmlns="http://www.w3.org/2000/svg" width="33" height="33" viewBox="0 0 33 33">
  <circle id="Ellipse_164" data-name="Ellipse 164" cx="16.5" cy="16.5" r="16.5" fill="#ffec94" opacity="0.4"/>
  <g id="star" transform="translate(7.053 7.403)">
    <path id="Path_26897" data-name="Path 26897" d="M17.582,18.08l-5.833-.541-2.317-5.38a.467.467,0,0,0-.859,0l-2.317,5.38L.425,18.08a.467.467,0,0,0-.265.817l4.4,3.866L3.272,28.477a.467.467,0,0,0,.695.5L9,25.991l5.037,2.991a.467.467,0,0,0,.695-.5l-1.288-5.714,4.4-3.866A.467.467,0,0,0,17.582,18.08Z" transform="translate(0 -11.28)" fill="#ffdc64"/>
    <path id="Path_26898" data-name="Path 26898" d="M9.433,12.159a.467.467,0,0,0-.859,0l-2.317,5.38L.425,18.08a.467.467,0,0,0-.265.817l4.4,3.866L3.272,28.477a.467.467,0,0,0,.695.5l1.124-.668a20.614,20.614,0,0,1,5.487-13.495Z" transform="translate(0 -11.28)" fill="#ffc850"/>
  </g>
</svg>
