<svg id="setting_document" xmlns="http://www.w3.org/2000/svg" width="33" height="33" viewBox="0 0 33 33">
  <circle id="Ellipse_161" data-name="Ellipse 161" cx="16.5" cy="16.5" r="16.5" fill="#ffb15e" opacity="0.22"/>
  <g id="file" transform="translate(-78.195 7.546)">
    <path id="Path_27462" data-name="Path 27462" d="M209.3,108.4h-.524v12.863a1.552,1.552,0,0,1-1.55,1.55H197.7v.477a.99.99,0,0,0,.989.989H209.3a.99.99,0,0,0,.989-.989v-13.9A.988.988,0,0,0,209.3,108.4Z" transform="translate(-108.728 -106.373)" fill="#ffb15e"/>
    <path id="Path_27463" data-name="Path 27463" d="M93.191,15.88h5.3a.99.99,0,0,0,.989-.989V.989A.99.99,0,0,0,98.494,0H91.427V.327a.961.961,0,0,1,.006.1v2.71A1.394,1.394,0,0,1,90.04,4.535H87.33c-.028,0-.058,0-.086,0H86.9V14.89a.99.99,0,0,0,.989.989h5.3Zm.2-3.362H89.933a.467.467,0,0,1,0-.935h3.459a.467.467,0,1,1,0,.935Zm3.459-2.386H89.933a.467.467,0,0,1,0-.935H96.85a.467.467,0,0,1,0,.935ZM89.933,6.663H96.85a.467.467,0,0,1,0,.935H89.933a.467.467,0,0,1,0-.935Z" fill="#ffb15e"/>
    <path id="Path_27464" data-name="Path 27464" d="M87.964,4.759h2.717a.83.83,0,0,0,.823-.823V1.217A.416.416,0,0,0,91.085.8a.405.405,0,0,0-.292.123L87.669,4.048A.416.416,0,0,0,87.964,4.759Z" transform="translate(-0.634 -0.785)" fill="#ffb15e"/>
  </g>
</svg>
