<svg id="setting_personal" xmlns="http://www.w3.org/2000/svg" width="33" height="33" viewBox="0 0 33 33">
  <circle id="Ellipse_161" data-name="Ellipse 161" cx="16.5" cy="16.5" r="16.5" fill="#78ffc6" opacity="0.4"/>
  <g id="surface1" transform="translate(7.633 6.615)">
    <path id="Path_26934" data-name="Path 26934" d="M16.448,13.2a9.975,9.975,0,0,1-2.389,3.722,12.505,12.505,0,0,1-4.669,2.766,1.429,1.429,0,0,1-.454.08H8.919a1.449,1.449,0,0,1-.278-.027,1.508,1.508,0,0,1-.191-.052,12.5,12.5,0,0,1-4.674-2.765,9.956,9.956,0,0,1-2.389-3.721A21.431,21.431,0,0,1,.52,5.385V5.349c.009-.191.015-.392.018-.615A2.1,2.1,0,0,1,2.512,2.682,8.131,8.131,0,0,0,8.046.349L8.059.337a1.267,1.267,0,0,1,1.719,0l.013.012a8.133,8.133,0,0,0,5.535,2.333A2.1,2.1,0,0,1,17.3,4.734c0,.224.009.424.018.615v.015A21.467,21.467,0,0,1,16.448,13.2Zm0,0" transform="translate(-0.5 0)" fill="#00dd80"/>
    <path id="Path_26935" data-name="Path 26935" d="M226.461,13.207a9.975,9.975,0,0,1-2.389,3.722,12.505,12.505,0,0,1-4.669,2.766,1.429,1.429,0,0,1-.454.08V0a1.268,1.268,0,0,1,.843.336l.013.012a8.133,8.133,0,0,0,5.535,2.333,2.1,2.1,0,0,1,1.973,2.053c0,.224.009.424.018.615v.015A21.467,21.467,0,0,1,226.461,13.207Zm0,0" transform="translate(-210.513 -0.004)" fill="#00aa63"/>
    <path id="Path_26936" data-name="Path 26936" d="M100.75,133.325a4.934,4.934,0,0,1-4.91,4.928h-.017a4.927,4.927,0,1,1,0-9.855h.017A4.934,4.934,0,0,1,100.75,133.325Zm0,0" transform="translate(-87.404 -123.44)" fill="#fff"/>
    <path id="Path_26937" data-name="Path 26937" d="M223.859,133.325a4.934,4.934,0,0,1-4.91,4.928V128.4A4.934,4.934,0,0,1,223.859,133.325Zm0,0" transform="translate(-210.513 -123.44)" fill="#e1ebf0"/>
    <path id="Path_26938" data-name="Path 26938" d="M158.9,212.97l-2.219,2.22-.48.48a.581.581,0,0,1-.821,0l-1.031-1.031a.58.58,0,0,1,.82-.82l.621.621,2.289-2.289a.58.58,0,0,1,.82.82Zm0,0" transform="translate(-148.243 -203.794)" fill="#b4d2d7"/>
    <path id="Path_26939" data-name="Path 26939" d="M221.168,212.97l-2.219,2.22v-1.641l1.4-1.4a.58.58,0,0,1,.82.82Zm0,0" transform="translate(-210.513 -203.794)" fill="#6fa5aa"/>
  </g>
</svg>
