<svg id="setting_contact" xmlns="http://www.w3.org/2000/svg" width="33" height="33" viewBox="0 0 33 33">
  <circle id="Ellipse_163" data-name="Ellipse 163" cx="16.5" cy="16.5" r="16.5" fill="#4e5aff" opacity="0.18"/>
  <g id="contact" transform="translate(7.052 9.469)">
    <path id="Path_26894" data-name="Path 26894" d="M134.178,17.491v8.689a.621.621,0,0,1-.62.62H116.8a.62.62,0,0,1-.62-.62V13.767a.62.62,0,0,1,.62-.62h16.758a.62.62,0,0,1,.62.62v3.724Z" transform="translate(-116.179 -13.147)" fill="#4e5aff"/>
    <path id="Path_26895" data-name="Path 26895" d="M137.276,13.361,129.03,20.4a.928.928,0,0,1-1.2,0l-8.246-7.041a.614.614,0,0,1,.465-.214H136.81A.614.614,0,0,1,137.276,13.361Z" transform="translate(-119.432 -13.147)" fill="#b5baff"/>
    <path id="Path_26896" data-name="Path 26896" d="M138.549,155.5a.612.612,0,0,1-.4.149H121.392a.614.614,0,0,1-.4-.149l6.875-7.364,1.307,1.114a.928.928,0,0,0,1.2,0l1.3-1.114Z" transform="translate(-120.771 -141.998)" fill="#3f48c4"/>
  </g>
</svg>
