<svg xmlns="http://www.w3.org/2000/svg" width="12.087" height="12.063" viewBox="0 0 12.087 12.063">
  <g id="signed" transform="translate(-23.75 -23.911)">
    <g id="Group_3004" data-name="Group 3004" transform="translate(26.217 24.167)">
      <path id="Path_26521" data-name="Path 26521" d="M77.954,39.076a.259.259,0,0,1-.105-.022.263.263,0,0,1-.136-.345l1.162-2.67-.383-.21a.263.263,0,1,1,.252-.461l.594.325a.263.263,0,0,1,.115.335l-1.257,2.891A.263.263,0,0,1,77.954,39.076Z" transform="translate(-72.059 -33.876)" fill="#ffdd46"/>
      <path id="Path_26522" data-name="Path 26522" d="M42.865,76.879,42.615,78.4,40.7,79.771l-.52.369.063-.632.234-2.344,1.2-.974Z" transform="translate(-40.18 -68.597)" fill="#ffdd46"/>
      <path id="Path_26523" data-name="Path 26523" d="M0,0H1.373V1.189H0Z" transform="translate(2.086 6.567) rotate(30.129)" fill="#d7d7fb"/>
      <path id="Path_26524" data-name="Path 26524" d="M53.36,33.115l-2.023-1.173,4.033-6.014a.7.7,0,0,1,1.2.7Z" transform="translate(-49.662 -25.619)" fill="#f1f1fb"/>
      <path id="Path_26525" data-name="Path 26525" d="M41.743,85.8,40.7,87.6l-.52.369.063-.632,1.047-1.8a.262.262,0,1,1,.453.264Z" transform="translate(-40.18 -76.425)" fill="#ff9f04"/>
    </g>
    <g id="Group_3005" data-name="Group 3005" transform="translate(23.75 23.911)">
      <path id="Path_26526" data-name="Path 26526" d="M94.639,100.75H93.513a.263.263,0,0,0,0,.526h1.126a.263.263,0,1,0,0-.526Z" transform="translate(-82.815 -89.213)" fill="#4e5aff"/>
      <path id="Path_26527" data-name="Path 26527" d="M86.769,100.75h-.131a.263.263,0,0,0,0,.526h.131a.263.263,0,0,0,0-.526Z" transform="translate(-76.972 -89.213)" fill="#4e5aff"/>
      <path id="Path_26528" data-name="Path 26528" d="M32.431,35.448H27.038l1.006-.718a.263.263,0,0,0-.305-.428l-.686.489.727-1.254a.263.263,0,0,0-.455-.264L26.6,34.528l.165-1.658.974-.792.875.507-.221,1.347a.263.263,0,1,0,.519.085l.242-1.478.44-.759.19.11a.263.263,0,0,0,.367-.111l2.74-5.528.143.078L31.871,29a.263.263,0,0,0,.136.345.259.259,0,0,0,.105.022.263.263,0,0,0,.241-.157l1.258-2.89a.263.263,0,0,0-.115-.335l-.372-.2.242-.488a.961.961,0,0,0-1.659-.961l-.563.839a.263.263,0,1,0,.437.292l.563-.84a.435.435,0,0,1,.751.435L29.8,31.3,28.267,30.4l2.255-3.362a.263.263,0,1,0-.436-.293l-2.411,3.6a.263.263,0,0,0,.086.374l.19.11-.44.759-1.162.945a.262.262,0,0,0-.1.178l-.273,2.739H24.013a.263.263,0,1,0,0,.526h8.418a.263.263,0,1,0,0-.526Zm-3.292-3.932-.333.574-.734-.425.333-.574Z" transform="translate(-23.75 -23.911)" fill="#4e5aff"/>
      <path id="Path_26529" data-name="Path 26529" d="M69.054,37.116a.263.263,0,0,0,.365-.072l.058-.087a.263.263,0,1,0-.437-.292l-.058.087a.263.263,0,0,0,.072.365Z" transform="translate(-62.152 -34.651)" fill="#4e5aff"/>
    </g>
  </g>
</svg>
