<svg xmlns="http://www.w3.org/2000/svg" xmlns:xlink="http://www.w3.org/1999/xlink" width="629" height="179" viewBox="0 0 629 179">
  <defs>
    <linearGradient id="linear-gradient" x1="-0.097" y1="-0.083" x2="1.045" y2="1.032" gradientUnits="objectBoundingBox">
      <stop offset="0" stop-color="#87d1ff"/>
      <stop offset="1" stop-color="#0099f6"/>
    </linearGradient>
    <filter id="Rectangle_2900" x="0" y="0" width="629" height="179" filterUnits="userSpaceOnUse">
      <feOffset dy="8" input="SourceAlpha"/>
      <feGaussianBlur stdDeviation="7.5" result="blur"/>
      <feFlood flood-color="#009eff" flood-opacity="0.2"/>
      <feComposite operator="in" in2="blur"/>
      <feComposite in="SourceGraphic"/>
    </filter>
    <linearGradient id="linear-gradient-2" x1="-0.097" y1="-0.083" x2="1.134" y2="1.136" gradientUnits="objectBoundingBox">
      <stop offset="0" stop-color="#87d1ff"/>
      <stop offset="1" stop-color="#009eff"/>
    </linearGradient>
    <filter id="Intersection_2" x="1" y="0" width="161" height="115" filterUnits="userSpaceOnUse">
      <feOffset dy="8" input="SourceAlpha"/>
      <feGaussianBlur stdDeviation="7.5" result="blur-2"/>
      <feFlood flood-color="#009eff" flood-opacity="0.2"/>
      <feComposite operator="in" in2="blur-2"/>
      <feComposite in="SourceGraphic"/>
    </filter>
  </defs>
  <g id="subs-free-bg" transform="translate(22.5 14.5)">
    <g transform="matrix(1, 0, 0, 1, -22.5, -14.5)" filter="url(#Rectangle_2900)">
      <rect id="Rectangle_2900-2" data-name="Rectangle 2900" width="584" height="134" transform="translate(22.5 14.5)" fill="url(#linear-gradient)"/>
    </g>
    <g transform="matrix(1, 0, 0, 1, -22.5, -14.5)" filter="url(#Intersection_2)">
      <path id="Intersection_2-2" data-name="Intersection 2" d="M0,53.354V30A30,30,0,0,1,30,0h86A70.5,70.5,0,0,1,45.5,70,70.223,70.223,0,0,1,0,53.354Z" transform="translate(23.5 14.5)" opacity="0.4" fill="url(#linear-gradient-2)"/>
    </g>
    <path id="Path_26970" data-name="Path 26970" d="M2195.484,1448s-80.49,15.065-41.159,47.318S2097.616,1582,2097.616,1582" transform="translate(-1651.365 -1448)" fill="none" stroke="#fff" stroke-width="1" stroke-dasharray="4" opacity="0.3"/>
  </g>
</svg>
