<svg xmlns="http://www.w3.org/2000/svg" xmlns:xlink="http://www.w3.org/1999/xlink" width="34.781" height="34.781" viewBox="0 0 34.781 34.781">
  <defs>
    <linearGradient id="linear-gradient" x1="0.069" y1="0.935" x2="0.93" y2="0.074" gradientUnits="objectBoundingBox">
      <stop offset="0" stop-color="#e8ebee"/>
      <stop offset="1" stop-color="#e8ebee" stop-opacity="0"/>
    </linearGradient>
    <clipPath id="clip-path">
      <path id="SVGID_2_" d="M28.584,34.21a104.923,104.923,0,0,1-22.338,0A6.326,6.326,0,0,1,.621,28.584a104.923,104.923,0,0,1,0-22.338A6.332,6.332,0,0,1,6.246.621a104.923,104.923,0,0,1,22.338,0A6.332,6.332,0,0,1,34.21,6.246a104.923,104.923,0,0,1,0,22.338,6.32,6.32,0,0,1-5.625,5.625Z" transform="translate(-0.025 -0.025)"/>
    </clipPath>
    <linearGradient id="linear-gradient-2" x1="0.113" y1="0.455" x2="0.872" y2="-0.247" gradientUnits="objectBoundingBox">
      <stop offset="0" stop-color="#b7c1ce"/>
      <stop offset="1" stop-color="#b8c1cf" stop-opacity="0"/>
    </linearGradient>
    <linearGradient id="linear-gradient-3" x1="0.5" y1="0.809" x2="0.5" y2="0.978" gradientUnits="objectBoundingBox">
      <stop offset="0" stop-color="#94a1b2" stop-opacity="0"/>
      <stop offset="1" stop-color="#94a1b2"/>
    </linearGradient>
    <linearGradient id="linear-gradient-4" x1="0.382" y1="0.315" x2="0.748" y2="-0.076" gradientUnits="objectBoundingBox">
      <stop offset="0" stop-color="#f00044"/>
      <stop offset="1" stop-color="#c70038"/>
    </linearGradient>
    <linearGradient id="linear-gradient-5" x1="0.01" y1="0.94" x2="1.092" y2="0.461" gradientUnits="objectBoundingBox">
      <stop offset="0" stop-color="#08fff9"/>
      <stop offset="1" stop-color="#07d4cf"/>
    </linearGradient>
  </defs>
  <g id="tiktok_jd1" transform="translate(-0.025 -0.025)">
    <path id="Path_26612" data-name="Path 26612" d="M28.584,34.21a104.923,104.923,0,0,1-22.338,0A6.326,6.326,0,0,1,.621,28.584a104.923,104.923,0,0,1,0-22.338A6.332,6.332,0,0,1,6.246.621a104.923,104.923,0,0,1,22.338,0A6.332,6.332,0,0,1,34.21,6.246a104.923,104.923,0,0,1,0,22.338,6.32,6.32,0,0,1-5.625,5.625Z" transform="translate(0 0)" fill="#fffcf8"/>
    <path id="Path_26613" data-name="Path 26613" d="M53.436,58.45a93.669,93.669,0,0,1-19.9,0,5.651,5.651,0,0,1-5.007-5.014,93.669,93.669,0,0,1,0-19.9,5.651,5.651,0,0,1,5.014-5.007,93.669,93.669,0,0,1,19.9,0,5.652,5.652,0,0,1,5.014,5.014,93.668,93.668,0,0,1,0,19.9A5.665,5.665,0,0,1,53.436,58.45Z" transform="translate(-26.074 -26.074)" fill="url(#linear-gradient)"/>
    <g id="Group_3085" data-name="Group 3085" transform="translate(0.025 0.025)">
      <g id="Group_3084" data-name="Group 3084" transform="translate(0 0)">
        <g id="Group_3083" data-name="Group 3083" clip-path="url(#clip-path)">
          <path id="Path_26614" data-name="Path 26614" d="M149.129,116.77c-.02,0-19.783-19.77-19.783-19.77h-3.322v10.041l-2.092-2.106a6.369,6.369,0,0,0-5.462,10.8l14.586,14.586a6.31,6.31,0,0,0,4.5,1.868,7.394,7.394,0,0,0,.958-.068,6.376,6.376,0,0,0,5.415-6.271l.007-7.521a8.427,8.427,0,0,0,1.882,1.1,8.53,8.53,0,0,0,3.315.673Z" transform="translate(-108.68 -90.412)" fill="url(#linear-gradient-2)"/>
        </g>
      </g>
    </g>
    <path id="Path_26615" data-name="Path 26615" d="M28.584.621a104.923,104.923,0,0,0-22.338,0A6.326,6.326,0,0,0,.621,6.246a104.923,104.923,0,0,0,0,22.338,6.332,6.332,0,0,0,5.625,5.625,104.924,104.924,0,0,0,22.338,0,6.332,6.332,0,0,0,5.625-5.625,104.923,104.923,0,0,0,0-22.338A6.32,6.32,0,0,0,28.584.621Z" transform="translate(0 0)" fill="url(#linear-gradient-3)"/>
    <g id="Group_3086" data-name="Group 3086" transform="translate(7.938 6.613)">
      <path id="Path_26616" data-name="Path 26616" d="M307.757,114.832a5.154,5.154,0,0,1-1.053-3.125h-.014V111.7h-.89A5.18,5.18,0,0,0,307.757,114.832Z" transform="translate(-292.939 -110.701)" fill="#f00044"/>
      <path id="Path_26617" data-name="Path 26617" d="M168.644,229.73a3.046,3.046,0,0,0-1.6,5.639,3.049,3.049,0,0,1,2.6-4.64,2.981,2.981,0,0,1,.958.156v-3.41a6.355,6.355,0,0,0-.958-.075H169.6v2.487A3.013,3.013,0,0,0,168.644,229.73Z" transform="translate(-162.264 -218.541)" fill="#f00044"/>
      <path id="Path_26618" data-name="Path 26618" d="M168.35,186.7a5.28,5.28,0,0,1-.992-.1v2.425a8.408,8.408,0,0,1-3.315-.673,8.281,8.281,0,0,1-1.882-1.1v7.521h-.007a6.376,6.376,0,0,1-10.354,4.946q.224.275.469.53a6.31,6.31,0,0,0,4.5,1.868,7.392,7.392,0,0,0,.958-.068,6.376,6.376,0,0,0,5.415-6.271h.007v-7.527a8.5,8.5,0,0,0,5.2,1.773Z" transform="translate(-149.402 -180.513)" fill="url(#linear-gradient-4)"/>
      <path id="Path_26619" data-name="Path 26619" d="M337.732,159.757v-.9A5.174,5.174,0,0,1,334.6,157.8,5.211,5.211,0,0,0,337.732,159.757Z" transform="translate(-319.783 -153.669)" fill="#08fff9"/>
      <path id="Path_26620" data-name="Path 26620" d="M189.488,115.275a2.98,2.98,0,0,0,.958-.156,3.045,3.045,0,0,0,2.086-2.887l.007-5.041V98h2.439a5.281,5.281,0,0,1-.1-.992h-.014V97h-3.322v9.2l-.007,5.041a3.045,3.045,0,0,1-2.086,2.887,2.98,2.98,0,0,1-.958.156,3.035,3.035,0,0,1-1.6-.448A3.045,3.045,0,0,0,189.488,115.275Z" transform="translate(-182.117 -97)" fill="url(#linear-gradient-5)"/>
      <path id="Path_26621" data-name="Path 26621" d="M119.367,215.567a6.34,6.34,0,0,1,4.464-1.868v-.924a6.369,6.369,0,0,0-5.462,10.8,5.7,5.7,0,0,0,.53.469,6.374,6.374,0,0,1,.469-8.479Z" transform="translate(-116.5 -204.84)" fill="#08fff9"/>
      <path id="Path_26622" data-name="Path 26622" d="M137.439,131.239a6.376,6.376,0,0,0,5.415-6.271h.007v-7.528a8.5,8.5,0,0,0,5.2,1.773v-2.425a8.194,8.194,0,0,1-5.1-5.089h-2.439v9.2l-.007,5.041a3.045,3.045,0,0,1-2.086,2.887,2.98,2.98,0,0,1-.958.156,3.578,3.578,0,1,1-1-7.086,2.982,2.982,0,0,1,.958.156v-2.48a5.928,5.928,0,1,0-.958,11.746A8.8,8.8,0,0,0,137.439,131.239Z" transform="translate(-130.108 -110.701)"/>
    </g>
  </g>
</svg>
