<svg xmlns="http://www.w3.org/2000/svg" width="44.247" height="44.383" viewBox="0 0 44.247 44.383">
  <g id="tiktok_jd" transform="translate(-251.865 -377.826)">
    <g id="circle" transform="translate(252 378)">
      <circle id="Ellipse_117" data-name="Ellipse 117" cx="22" cy="22" r="22" fill="#fff"/>
      <path id="Path_3315" data-name="Path 3315" d="M1037.335,651.731c-2.458,1.131-17.672,4.889-26.063-10.358a21.026,21.026,0,0,1,3.248-23.669" transform="translate(-1008.101 -609.837)" fill="none" stroke="#000" stroke-linecap="round" stroke-linejoin="round" stroke-width="2"/>
      <path id="Path_3316" data-name="Path 3316" d="M1009.051,619.184c2.541-1.258,17.857-4.331,25.671,10.411A21.133,21.133,0,0,1,1031.809,653" transform="translate(-993.939 -617.106)" fill="none" stroke="#000" stroke-linecap="round" stroke-linejoin="round" stroke-width="2"/>
    </g>
    <g id="Layer_11" transform="translate(258 386)">
      <g id="Group_527" data-name="Group 527" transform="translate(8.153 3.555)">
        <g id="Group_526" data-name="Group 526" transform="translate(0)">
          <path id="Path_4115" data-name="Path 4115" d="M29.978,19.22v3.708c-.2,0-.439.04-.678.04a7.392,7.392,0,0,1-4.744-1.754v7.894A7.118,7.118,0,0,1,11.4,32.934a7.12,7.12,0,0,0,4.864,1.953,6.985,6.985,0,0,0,5.661-2.87,7.252,7.252,0,0,0,1.435-4.306V19.778A7.1,7.1,0,0,0,28.1,21.532a3.868,3.868,0,0,0,.678-.04V19.1a4.6,4.6,0,0,0,1.037.12Z" transform="translate(-11.4 -13.838)" fill="#ff004f"/>
          <path id="Path_4116" data-name="Path 4116" d="M21.123,26.24v4.106a3.321,3.321,0,0,0-.877-.12A3.242,3.242,0,0,0,17.056,33.5a3.459,3.459,0,0,0,.2,1.116A3.32,3.32,0,0,1,15.9,31.981a3.242,3.242,0,0,1,3.189-3.269,3.109,3.109,0,0,1,.877.12V26.2h.239A6.758,6.758,0,0,1,21.123,26.24Z" transform="translate(-14.106 -18.107)" fill="#ff004f"/>
          <path id="Path_4117" data-name="Path 4117" d="M43.615,8.332A5.362,5.362,0,0,1,42.1,5.9h.957v.558A6.332,6.332,0,0,0,43.615,8.332Z" transform="translate(-29.861 -5.9)" fill="#ff004f"/>
        </g>
      </g>
      <path id="Path_4118" data-name="Path 4118" d="M27.258,11.2v2.392a3.648,3.648,0,0,1-.678.04,7.392,7.392,0,0,1-4.744-1.754v7.894A7.078,7.078,0,0,1,9.876,25,7.231,7.231,0,0,1,8.8,21.209a7.134,7.134,0,0,1,6.9-7.136V16.7a3.32,3.32,0,0,0-.877-.12,3.242,3.242,0,0,0-3.189,3.269,3.158,3.158,0,0,0,1.355,2.631,3.175,3.175,0,0,0,6.179-1.116V5.9h2.91a5.16,5.16,0,0,0,1.515,2.432A5.469,5.469,0,0,0,27.258,11.2Z" transform="translate(-1.684 -2.345)"/>
      <g id="Group_530" data-name="Group 530" transform="translate(6 2)">
        <g id="Group_529" data-name="Group 529">
          <g id="Group_528" data-name="Group 528">
            <path id="Path_4119" data-name="Path 4119" d="M14.013,22.68v1.355a7.134,7.134,0,0,0-6.9,7.136,7.231,7.231,0,0,0,1.076,3.787A7.217,7.217,0,0,1,6,29.736,7.121,7.121,0,0,1,13.1,22.6,6.543,6.543,0,0,1,14.013,22.68Z" transform="translate(-6 -14.387)" fill="#00f7ef"/>
            <path id="Path_4120" data-name="Path 4120" d="M28.39,3.555h-2.91V18.944a3.242,3.242,0,0,1-3.189,3.269A3.137,3.137,0,0,1,19.3,20.06a3.248,3.248,0,0,0,1.834.6,3.207,3.207,0,0,0,3.189-3.229V2H28.19v.08a1.941,1.941,0,0,0,.04.478A4.328,4.328,0,0,0,28.39,3.555Z" transform="translate(-13.998 -2)" fill="#00f7ef"/>
          </g>
        </g>
        <path id="Path_4121" data-name="Path 4121" d="M49.508,13.4h0v1.435A5.46,5.46,0,0,1,45.8,12,5.178,5.178,0,0,0,49.508,13.4Z" transform="translate(-29.933 -8.013)" fill="#00f7ef"/>
      </g>
    </g>
  </g>
</svg>
