<svg id="trash-pink" xmlns="http://www.w3.org/2000/svg" width="17.368" height="21.376" viewBox="0 0 17.368 21.376">
  <path id="Path_27022" data-name="Path 27022" d="M63.7,2.672H60.024V2a2,2,0,0,0-2-2H55.348a2,2,0,0,0-2,2v.668H49.67A1.67,1.67,0,0,0,48,4.342V5.678a.668.668,0,0,0,.668.668H64.7a.668.668,0,0,0,.668-.668V4.342A1.67,1.67,0,0,0,63.7,2.672ZM54.68,2a.669.669,0,0,1,.668-.668H58.02A.669.669,0,0,1,58.688,2v.668H54.68Z" transform="translate(-48)" fill="#fe6290"/>
  <path id="Path_27023" data-name="Path 27023" d="M73.573,184a.209.209,0,0,0-.208.219l.551,11.566a2,2,0,0,0,2,1.909H86.061a2,2,0,0,0,2-1.909l.551-11.566a.209.209,0,0,0-.208-.219Zm10.088,1.67a.668.668,0,0,1,1.336,0v8.684a.668.668,0,0,1-1.336,0Zm-3.34,0a.668.668,0,0,1,1.336,0v8.684a.668.668,0,0,1-1.336,0Zm-3.34,0a.668.668,0,0,1,1.336,0v8.684a.668.668,0,0,1-1.336,0Z" transform="translate(-72.305 -176.318)" fill="#fe6290"/>
</svg>
