<svg id="verified_user" xmlns="http://www.w3.org/2000/svg" width="35.304" height="33.977" viewBox="0 0 35.304 33.977">
  <path id="Path_26981" data-name="Path 26981" d="M347.238,15.3a4.21,4.21,0,0,1,0,5.854l-.351.365a4.205,4.205,0,0,0-1.144,3.511l.072.5a4.212,4.212,0,0,1-3.443,4.737l-.5.086a4.211,4.211,0,0,0-2.991,2.173l-.237.446a4.213,4.213,0,0,1-5.569,1.812l-.453-.227a4.213,4.213,0,0,0-3.7,0l-.453.227a4.213,4.213,0,0,1-5.569-1.812l-.237-.446a4.211,4.211,0,0,0-3-2.169l-.5-.086a4.213,4.213,0,0,1-3.443-4.737l.072-.5a4.205,4.205,0,0,0-1.144-3.511l-.351-.365a4.21,4.21,0,0,1,0-5.854l.351-.365a4.208,4.208,0,0,0,1.144-3.511l-.073-.5a4.213,4.213,0,0,1,3.443-4.737l.5-.086a4.211,4.211,0,0,0,2.991-2.173l.237-.453a4.214,4.214,0,0,1,5.569-1.812l.453.227a4.213,4.213,0,0,0,3.7,0l.453-.227a4.214,4.214,0,0,1,5.569,1.812l.237.453A4.211,4.211,0,0,0,341.867,6.1l.5.086a4.212,4.212,0,0,1,3.443,4.737l-.072.5a4.208,4.208,0,0,0,1.144,3.511Z" transform="translate(-313.118 -1.237)" fill="#fe6290"/>
  <path id="Path_26982" data-name="Path 26982" d="M361.377,59.657l-3.364-3.364a1.871,1.871,0,0,1,2.646-2.647l1.956,1.956,7.807-8.834a1.871,1.871,0,0,1,2.8,2.478L364.1,59.573a1.872,1.872,0,0,1-2.725.084Z" transform="translate(-347.089 -35.636)" fill="#fff"/>
  <path id="Path_26983" data-name="Path 26983" d="M363.218,45.421a4.444,4.444,0,0,0-1.5,3.88l.073.5a4.212,4.212,0,0,1-3.443,4.737l-.5.086a4.211,4.211,0,0,0-2.991,2.169l-.237.446a4.213,4.213,0,0,1-5.569,1.819l-.453-.227a4.208,4.208,0,0,0-3.7,0l-.453.227a4.213,4.213,0,0,1-5.569-1.812,4.429,4.429,0,0,0-3.228-2.62,6.747,6.747,0,0,1-1.2-.276.715.715,0,1,1,.443-1.359A18.914,18.914,0,0,0,359,34.418a1.418,1.418,0,0,1,2.832-.161,4.245,4.245,0,0,1-.028.926,4.417,4.417,0,0,0,1.071,4.018l.351.365a4.21,4.21,0,0,1,0,5.853Z" transform="translate(-329.1 -25.564)" fill="#fb4379"/>
</svg>
