<svg xmlns="http://www.w3.org/2000/svg" xmlns:xlink="http://www.w3.org/1999/xlink" width="712" height="993.511" viewBox="0 0 712 993.511">
  <defs>
    <clipPath id="clip-path">
      <rect id="Rectangle_2981" data-name="Rectangle 2981" width="712" height="993" transform="translate(728 2379)" fill="#fff"/>
    </clipPath>
  </defs>
  <g id="wedo_shape" transform="translate(-728 -2378.489)">
    <g id="wedo_shape-2" data-name="wedo_shape" clip-path="url(#clip-path)">
      <path id="Polygon_4" data-name="Polygon 4" d="M717.147,0a105,105,0,0,1,91.474,53.449l200.326,355.468a105,105,0,0,1,0,103.1L808.621,867.487a105,105,0,0,1-91.474,53.449H320.852a105,105,0,0,1-91.474-53.449L29.052,512.019a105,105,0,0,1,0-103.1L229.378,53.449A105,105,0,0,1,320.852,0Z" transform="translate(1209.669 2187) rotate(47)" fill="#ffec94" opacity="0.3"/>
    </g>
    <g id="Group_65" data-name="Group 65" transform="translate(49.406 71.696)">
      <path id="Path_389" data-name="Path 389" d="M633.59,228.459c4.957,18.414,10.421,36.614,16.091,54.813,1.359,4.38,5.507,5.756,9.267,3.2,14.8-10.05,29.6-19.937,43.609-31.063,2.7-2.143,2.108-6.454-.56-8.278-16.409-11.264-38.575-27.9-59.4-28.009-5.292-.034-8.992,7.426-3.623,10.524,8.4,4.845,18.475,6.574,27.45,10.3,10.36,4.311,20.617,9.362,29.764,15.893.207-3.02.4-6.041.611-9.061-15.66,9.646-30.409,20.454-45.3,31.227l8.794,1.764c-6.35-17.976-12.881-35.831-19.929-53.548-1.48-3.734-7.83-1.686-6.772,2.237Z" transform="translate(585.685 2171.063)" fill="#f7c3c3"/>
      <path id="Path_400" data-name="Path 400" d="M51.393.346C34.615,8.384,17.435,17.623,2.311,28.479c-5.556,3.986-.086,11.761,5.773,8.695C24.252,28.7,40.006,17.761,54.427,6.611c2.9-2.239.768-8.084-3.034-6.265Z" transform="matrix(-0.848, 0.53, -0.53, -0.848, 1357.369, 2338.91)" fill="#89cff0"/>
      <path id="Path_401" data-name="Path 401" d="M608.8,218.718c4.675,4.487,6.45,11.473,2,16.864-4.2,5.073-12.314,6.15-17.557,2.105-12.65-9.766.536-27.783,14.188-24.054,2.528.69,1.9,4.294-.6,4.437-3.994.226-8.267.381-11.455,3.176a8.3,8.3,0,0,0-.69,11.544c7.44,9.15,20.367-4.324,12.549-12.5a1.109,1.109,0,0,1,1.567-1.567Z" transform="translate(589.323 2101.843)" fill="#ffb15e"/>
    </g>
  </g>
</svg>
