<svg xmlns="http://www.w3.org/2000/svg" width="14.962" height="22.192" viewBox="0 0 14.962 22.192">
  <g id="woman" transform="translate(-83.241)">
    <path id="Path_26951" data-name="Path 26951" d="M176.406,300.465h.942v1.426a1.358,1.358,0,0,0,2.716,0v-1.426h.957a1.178,1.178,0,0,0,0-2.357h-.957v-4.291h-2.7l-.015,4.291h-.942a1.178,1.178,0,1,0,0,2.357Z" transform="translate(-87.992 -281.057)" fill="#ef7d92"/>
    <path id="Path_26952" data-name="Path 26952" d="M226.864,301.145v-3.215h-2.7l-.011,3.215A7.473,7.473,0,0,0,226.864,301.145Z" transform="translate(-134.792 -284.991)" fill="#eb6773"/>
    <path id="Path_26953" data-name="Path 26953" d="M90.722,0A7.481,7.481,0,1,0,98.2,7.481,7.481,7.481,0,0,0,90.722,0Zm0,12.107a4.626,4.626,0,1,1,4.626-4.626A4.626,4.626,0,0,1,90.722,12.107Z" transform="translate(0 0)" fill="#f6a7ae"/>
    <path id="Path_26954" data-name="Path 26954" d="M86.219,8.544A4.629,4.629,0,0,1,91.78,2.977a15.249,15.249,0,0,1,3.255-1.608,7.481,7.481,0,0,0-10.04,10.925A13.939,13.939,0,0,1,86.219,8.544Z" fill="#f1919b"/>
  </g>
</svg>
