<svg xmlns="http://www.w3.org/2000/svg" xmlns:xlink="http://www.w3.org/1999/xlink" width="34.78" height="34.78" viewBox="0 0 34.78 34.78">
  <defs>
    <linearGradient id="linear-gradient" x1="0.227" y1="-0.025" x2="0.948" y2="1.363" gradientUnits="objectBoundingBox">
      <stop offset="0" stop-color="#fffcf8"/>
      <stop offset="0.188" stop-color="#faf8f6"/>
      <stop offset="0.404" stop-color="#eceef2"/>
      <stop offset="0.635" stop-color="#d5dcea"/>
      <stop offset="0.875" stop-color="#b5c4df"/>
      <stop offset="1" stop-color="#a1b5d8"/>
    </linearGradient>
    <linearGradient id="linear-gradient-2" x1="0.369" y1="0.426" x2="-1.54" y2="-0.648" gradientUnits="objectBoundingBox">
      <stop offset="0" stop-color="#a1b5d8" stop-opacity="0"/>
      <stop offset="0.309" stop-color="#90a2bd" stop-opacity="0.31"/>
      <stop offset="0.755" stop-color="#7c8b9c" stop-opacity="0.757"/>
      <stop offset="1" stop-color="#748290"/>
    </linearGradient>
    <linearGradient id="linear-gradient-3" x1="0.5" y1="0.413" x2="0.5" y2="1.193" xlink:href="#linear-gradient-2"/>
    <linearGradient id="linear-gradient-4" x1="0.785" y1="0.754" x2="-0.068" y2="-0.216" xlink:href="#linear-gradient-2"/>
    <linearGradient id="linear-gradient-5" x1="0.439" y1="0.245" x2="0.587" y2="0.867" gradientUnits="objectBoundingBox">
      <stop offset="0" stop-color="#e52d27"/>
      <stop offset="1" stop-color="#b31217"/>
    </linearGradient>
  </defs>
  <g id="youtube_jd1" transform="translate(0 0.001)">
    <path id="Path_26623" data-name="Path 26623" d="M28.559,34.184a105.05,105.05,0,0,1-22.338,0A6.333,6.333,0,0,1,.6,28.558,105.048,105.048,0,0,1,.6,6.22,6.333,6.333,0,0,1,6.221.595a105.047,105.047,0,0,1,22.338,0A6.333,6.333,0,0,1,34.184,6.22a105.048,105.048,0,0,1,0,22.338,6.333,6.333,0,0,1-5.625,5.626Zm0,0" transform="translate(0 0)" fill="url(#linear-gradient)"/>
    <path id="Path_26624" data-name="Path 26624" d="M59.168,34.354a5.619,5.619,0,0,0-4.992-4.992,93.253,93.253,0,0,0-19.822,0,5.62,5.62,0,0,0-4.992,4.992,93.25,93.25,0,0,0,0,19.822,5.62,5.62,0,0,0,4.992,4.992,93.215,93.215,0,0,0,19.822,0,5.619,5.619,0,0,0,4.992-4.992,93.215,93.215,0,0,0,0-19.822Zm0,0" transform="translate(-26.875 -26.876)" fill="url(#linear-gradient-2)"/>
    <path id="Path_26625" data-name="Path 26625" d="M7.672,409.8q.036.361.074.721a6.333,6.333,0,0,0,5.626,5.625,105.041,105.041,0,0,0,22.338,0,6.333,6.333,0,0,0,5.625-5.625q.039-.361.075-.721Zm0,0" transform="translate(-7.151 -381.968)" fill="url(#linear-gradient-3)"/>
    <path id="Path_26626" data-name="Path 26626" d="M122.072,173.82a6.333,6.333,0,0,0,5.625-5.626q.521-4.879.586-9.767l-7.555-7.555c-.388-.481-.739-.525-1.466-.667a11.8,11.8,0,0,0-1.791-.217c-1.917-.076-3.835-.148-5.752-.166a67.427,67.427,0,0,0-8.438.308,2.956,2.956,0,0,0-2.625,2.382c-.07.664-.192,1.325-.23,1.991a36.925,36.925,0,0,0,.171,7.266,2.1,2.1,0,0,0,.784,1.63l11.005,11.005q4.845-.069,9.685-.585Zm0,0" transform="translate(-93.513 -139.636)" fill="url(#linear-gradient-4)"/>
    <path id="Path_26627" data-name="Path 26627" d="M108.692,160.769c-2.807-.094-4.98-.148-7.151-.251a7.621,7.621,0,0,1-1.971-.326,2.785,2.785,0,0,1-1.984-2.438,36.926,36.926,0,0,1-.171-7.266c.038-.666.16-1.327.231-1.991a2.955,2.955,0,0,1,2.625-2.382,67.425,67.425,0,0,1,8.438-.308c1.918.018,3.836.09,5.752.166a11.832,11.832,0,0,1,1.791.217,2.683,2.683,0,0,1,2.278,2.37,25.415,25.415,0,0,1,.325,5.328c-.049,1.349-.188,2.7-.328,4.04a2.785,2.785,0,0,1-2.595,2.438c-2.621.173-5.245.3-7.24.4Zm0,0" transform="translate(-90.706 -135.894)" fill="url(#linear-gradient-5)"/>
    <path id="Path_26628" data-name="Path 26628" d="M225.8,213.246l5.4-3.317-5.4-3.319Zm0,0" transform="translate(-210.463 -192.575)" fill="#fff"/>
  </g>
</svg>
