<svg id="existing_user" xmlns="http://www.w3.org/2000/svg" width="25.953" height="22.709" viewBox="0 0 25.953 22.709">
  <path id="Path_4108" data-name="Path 4108" d="M96.146,5.407A5.407,5.407,0,1,1,90.739,0,5.407,5.407,0,0,1,96.146,5.407Zm0,0" transform="translate(-81.007)" fill="#fff"/>
  <path id="Path_4109" data-name="Path 4109" d="M14.328,256H5.136A5.142,5.142,0,0,0,0,261.136v3.785a.811.811,0,0,0,.811.811H18.653a.811.811,0,0,0,.811-.811v-3.785A5.142,5.142,0,0,0,14.328,256Zm0,0" transform="translate(0 -243.024)" fill="#fff"/>
  <path id="Path_4110" data-name="Path 4110" d="M309.223,110.417l-3.785-3.514a.813.813,0,0,0-1.364.595v2.433h-4.325a1.081,1.081,0,1,0,0,2.163h4.325v2.433a.812.812,0,0,0,1.364.595l3.785-3.514a.814.814,0,0,0,0-1.19Zm0,0" transform="translate(-283.529 -101.28)" fill="#fff"/>
</svg>
