<svg xmlns="http://www.w3.org/2000/svg" xmlns:xlink="http://www.w3.org/1999/xlink" width="174" height="180" viewBox="0 0 174 180">
  <defs>
    <filter id="Icon_metro-bubble" x="75.146" y="24.444" width="81.614" height="77.61" filterUnits="userSpaceOnUse">
      <feOffset dy="3" input="SourceAlpha"/>
      <feGaussianBlur stdDeviation="3" result="blur"/>
      <feFlood flood-opacity="0.102"/>
      <feComposite operator="in" in2="blur"/>
      <feComposite in="SourceGraphic"/>
    </filter>
  </defs>
  <g id="phone_graphic" transform="translate(-101 -79)">
    <circle id="Ellipse_129" data-name="Ellipse 129" cx="87" cy="87" r="87" transform="translate(101 79)" fill="#e0f3ff"/>
    <g id="Group_2790" data-name="Group 2790" transform="translate(-5.314)">
      <g id="Group_2746" data-name="Group 2746" transform="translate(-794.235 -131.459)">
        <rect id="Rectangle_2859" data-name="Rectangle 2859" width="76.371" height="143.764" rx="11" transform="translate(927.549 246.695)" fill="#009eff"/>
        <g id="Group_2745" data-name="Group 2745" transform="translate(931.335 250.259)">
          <path id="Path_25745" data-name="Path 25745" d="M1025.511,281.593V402.37a7.444,7.444,0,0,1-7.395,7.449H964.1a7.443,7.443,0,0,1-7.393-7.449V281.593a7.443,7.443,0,0,1,7.393-7.449h54.012A7.444,7.444,0,0,1,1025.511,281.593Z" transform="translate(-956.711 -274.144)" fill="#fe6290"/>
        </g>
        <path id="Rectangle_2860" data-name="Rectangle 2860" d="M3.606,0H25.655a3.606,3.606,0,0,1,3.606,3.606v0a3.606,3.606,0,0,1-3.606,3.606H3.606A3.606,3.606,0,0,1,0,3.606v0A3.606,3.606,0,0,1,3.606,0Z" transform="translate(951.105 247.538)" fill="#009eff"/>
      </g>
      <g transform="matrix(1, 0, 0, 1, 106.31, 79)" filter="url(#Icon_metro-bubble)">
        <path id="Icon_metro-bubble-2" data-name="Icon metro-bubble" d="M34.378,3.856c17.566,0,31.807,11.57,31.807,25.843S51.944,55.542,34.378,55.542a39.283,39.283,0,0,1-4.959-.313c-6.832,6.832-14.987,8.057-22.872,8.237h0C10.8,61.38,14.5,55.909,14.5,51.566a12,12,0,0,0-.134-1.783C7.17,45.046,2.571,37.809,2.571,29.7,2.571,15.426,16.811,3.856,34.378,3.856Z" transform="translate(81.58 26.59)" fill="#fff"/>
      </g>
      <g id="logo" transform="translate(-30.433 -25.926)">
        <path id="Path_1" data-name="Path 1" d="M226.428,207.939a4.969,4.969,0,0,0-3.172-1.457,5.854,5.854,0,0,0-.67-.039,7.363,7.363,0,0,0-3.109.749,5.875,5.875,0,0,0-.929.548q-.056-.64-.153-1.187a2.883,2.883,0,0,0-2.938-2.45,3.425,3.425,0,0,0-2.879,1.75c-.177.264-.379.6-.609,1.026l-.035-.194a3.144,3.144,0,0,0-3.194-2.705,3.236,3.236,0,0,0-3.263,2.649c-.147.631-.29,1.243-.431,1.84a5,5,0,0,0-1.98-1.53l-.029-.012a4.975,4.975,0,0,0-1.923-.368,4.674,4.674,0,0,0-3.926,1.745,3.7,3.7,0,0,0-.82.464,5.01,5.01,0,0,0-2.2-1.828l-.029-.012a4.976,4.976,0,0,0-1.923-.368,4.9,4.9,0,0,0-3.344,1.127c-.407-1.211-1.571-2.688-4.831-2.688a7.571,7.571,0,0,0-1.009.069,3.023,3.023,0,0,0-2.021-.71,3.1,3.1,0,0,0-2.991,2.381,2.806,2.806,0,0,0-.878,1.826l-.008.089v.139a2.661,2.661,0,0,0,.357,1.341c-.26,2.016-.457,3.772-.587,5.232-.048.551-.084,1.062-.108,1.528a2.887,2.887,0,0,0-.515,1.4l-.009.1v.165c0,1.028.687,2.767,3.26,2.767a14.264,14.264,0,0,0,1.739-.123,14.674,14.674,0,0,0,2.075-.417,11.566,11.566,0,0,0,2.1-.8,7.073,7.073,0,0,0,.959-.582,5.393,5.393,0,0,0,4.338,1.848,6.052,6.052,0,0,0,4.533-1.876,5.387,5.387,0,0,0,4.361,1.876,6.211,6.211,0,0,0,3.576-1.054,2.776,2.776,0,0,0,2.357,1.251c.734,0,2.527-.291,3.311-2.975.127-.427.262-.939.406-1.542a3.263,3.263,0,0,0,1.809.518,2.751,2.751,0,0,0,1.031-.2q0,.088-.009.175-.012.186-.012.36c0,2.794,1.868,3.539,2.973,3.539a2.965,2.965,0,0,0,2.492-1.4,5.662,5.662,0,0,0,3.561,1.133,5.525,5.525,0,0,0,3.477-1.128,8.382,8.382,0,0,0,1.436-1.432,4.856,4.856,0,0,0,1.151-2.48,2.843,2.843,0,0,0,.022-.346,2.631,2.631,0,0,0-.563-1.66,6.036,6.036,0,0,0,.908-2.753l0-.036q.013-.189.014-.379A4.145,4.145,0,0,0,226.428,207.939ZM190.994,215.1c0-.036-.007-.072-.009-.11l.09-.016Q191.037,215.037,190.994,215.1Zm8.894,0c0-.036-.007-.072-.009-.11l.09-.016C199.943,215.016,199.916,215.058,199.887,215.1Z" transform="translate(0 0)" fill="#232322"/>
        <g id="Group_5" data-name="Group 5" transform="translate(176.279 216.378)">
          <g id="Group_4" data-name="Group 4" transform="translate(0 0)">
            <g id="Group_1" data-name="Group 1" transform="translate(0 1.158)">
              <path id="Path_2" data-name="Path 2" d="M209.26,426.066c-.144.6-.279,1.115-.406,1.542-.784,2.684-2.577,2.975-3.311,2.975a2.775,2.775,0,0,1-2.357-1.251,6.21,6.21,0,0,1-3.576,1.054,5.387,5.387,0,0,1-4.361-1.876,6.052,6.052,0,0,1-4.533,1.876,5.393,5.393,0,0,1-4.338-1.848,7.072,7.072,0,0,1-.959.582,11.565,11.565,0,0,1-2.1.8,14.675,14.675,0,0,1-2.075.417,14.268,14.268,0,0,1-1.739.123c-2.246,0-3.054-1.324-3.224-2.345v.148c0,1.028.687,2.767,3.26,2.767a14.267,14.267,0,0,0,1.739-.123,14.674,14.674,0,0,0,2.075-.417,11.566,11.566,0,0,0,2.1-.8,7.072,7.072,0,0,0,.959-.582,5.393,5.393,0,0,0,4.338,1.848,6.053,6.053,0,0,0,4.533-1.876,5.387,5.387,0,0,0,4.361,1.876,6.21,6.21,0,0,0,3.576-1.054,2.776,2.776,0,0,0,2.357,1.251c.734,0,2.527-.291,3.311-2.975.127-.427.262-.939.406-1.542a3.263,3.263,0,0,0,1.809.518,2.741,2.741,0,0,0,.976-.179c0-.019,0-.035,0-.054q0-.174.012-.36c0-.058.006-.116.009-.175a2.75,2.75,0,0,1-1.031.2A3.264,3.264,0,0,1,209.26,426.066Z" transform="translate(-176.279 -426.066)" fill="#232322"/>
            </g>
            <g id="Group_2" data-name="Group 2" transform="translate(35.802 0.871)">
              <path id="Path_3" data-name="Path 3" d="M762.868,421.9q0-.174.012-.36,0-.087.009-.175l-.055.019a5.465,5.465,0,0,0,.037.576C762.87,421.937,762.868,421.919,762.868,421.9Z" transform="translate(-762.834 -421.363)" fill="#232322"/>
            </g>
            <g id="Group_3" data-name="Group 3" transform="translate(35.839)">
              <path id="Path_4" data-name="Path 4" d="M778.5,407.093c0,.079-.005.159-.015.24a4.856,4.856,0,0,1-1.151,2.48,8.383,8.383,0,0,1-1.436,1.432,5.525,5.525,0,0,1-3.477,1.128,5.662,5.662,0,0,1-3.561-1.133,2.926,2.926,0,0,1-5.426-1.505c.028,2.743,1.874,3.48,2.97,3.48a2.965,2.965,0,0,0,2.492-1.4,5.661,5.661,0,0,0,3.561,1.133,5.525,5.525,0,0,0,3.477-1.128,8.388,8.388,0,0,0,1.436-1.432,4.856,4.856,0,0,0,1.151-2.48,2.844,2.844,0,0,0,.022-.346A2.768,2.768,0,0,0,778.5,407.093Z" transform="translate(-763.432 -407.093)" fill="#232322"/>
            </g>
          </g>
        </g>
        <path id="Path_5" data-name="Path 5" d="M212.129,257.605q-1.141,0-1.141-.649v-.066a.851.851,0,0,1,.493-.682q.016-.944.131-2.258.222-2.5.706-6.126a.737.737,0,0,1-.468-.632v-.049a.889.889,0,0,1,.657-.731q.181-1.535,1.1-1.536a.769.769,0,0,1,.87.87q0,.082-.008.172a6.678,6.678,0,0,1,2.168-.4q2.923,0,2.923,1.856,0,.107-.008.222a3.425,3.425,0,0,1-1.24,2.11,7.936,7.936,0,0,1-2.078,1.412,6.649,6.649,0,0,1,1.946,1.125,2.219,2.219,0,0,1,.862,1.692q0,.09-.008.181a2.334,2.334,0,0,1-.6,1.384,4.45,4.45,0,0,1-1.334.989,9.385,9.385,0,0,1-1.716.653,12.487,12.487,0,0,1-1.774.357A12.307,12.307,0,0,1,212.129,257.605Zm1.273-1.716a5.293,5.293,0,0,0,1.605-.271,5.509,5.509,0,0,0,1.453-.686,1.269,1.269,0,0,0,.645-.866V254a.9.9,0,0,0-.308-.64,3.619,3.619,0,0,0-.788-.571q-.48-.267-.965-.48-1.125-.5-1.125-1.051v-.049q.033-.4,1.363-1.15a9.147,9.147,0,0,0,1.363-.953q.977-.8,1.026-1.355v-.041q0-.525-1.158-.526a10.75,10.75,0,0,0-2.266.378q-.509,3.8-.7,5.978Q213.435,254.805,213.4,255.889Z" transform="translate(-32.59 -38.401)" fill="#fff"/>
        <path id="Path_6" data-name="Path 6" d="M356.291,291.386a3.306,3.306,0,0,1-2.808-1.207,3.955,3.955,0,0,1-.846-2q-.058-.632-.057-1.1,0-.263.016-.468a7.469,7.469,0,0,1,.337-1.626,7.219,7.219,0,0,1,.87-1.774,1.658,1.658,0,0,1,1.38-.8,2.513,2.513,0,0,1,2.579-1.486,2.86,2.86,0,0,1,1.109.205,2.932,2.932,0,0,1,1.367,1.195,4.783,4.783,0,0,1,.645,1.761,7.655,7.655,0,0,1,.107,1.24q0,.288-.025.558a9.085,9.085,0,0,1-.649,2.644A4.1,4.1,0,0,1,356.291,291.386Zm.271-1.782a1.879,1.879,0,0,0,1.564-.834,4.333,4.333,0,0,0,.8-1.634,10.892,10.892,0,0,0,.218-1.244q.025-.263.025-.517a5.516,5.516,0,0,0-.057-.8,2.561,2.561,0,0,0-.6-1.5,1.382,1.382,0,0,0-.973-.443q-.714,0-.788.821-.017.205-.016.37a1.745,1.745,0,0,0,.016.263,1.481,1.481,0,0,1,.033.3.817.817,0,0,1-.008.115.673.673,0,0,1-.772.665q-.723-.115-.723-.994v-.041a4.972,4.972,0,0,0-.854,2.587q-.016.205-.016.411a3.528,3.528,0,0,0,.287,1.445A1.83,1.83,0,0,0,356.562,289.6Z" transform="translate(-165.539 -72.255)" fill="#fff"/>
        <path id="Path_7" data-name="Path 7" d="M502,291.386a3.306,3.306,0,0,1-2.808-1.207,3.955,3.955,0,0,1-.846-2q-.057-.632-.057-1.1,0-.263.016-.468a7.467,7.467,0,0,1,.337-1.626,7.221,7.221,0,0,1,.87-1.774,1.658,1.658,0,0,1,1.38-.8,2.513,2.513,0,0,1,2.578-1.486,2.86,2.86,0,0,1,1.109.205,2.932,2.932,0,0,1,1.367,1.195,4.782,4.782,0,0,1,.645,1.761,7.655,7.655,0,0,1,.107,1.24q0,.288-.025.558a9.085,9.085,0,0,1-.649,2.644A4.1,4.1,0,0,1,502,291.386Zm.271-1.782a1.879,1.879,0,0,0,1.564-.834,4.334,4.334,0,0,0,.8-1.634,10.869,10.869,0,0,0,.218-1.244q.025-.263.025-.517a5.529,5.529,0,0,0-.058-.8,2.562,2.562,0,0,0-.6-1.5,1.382,1.382,0,0,0-.973-.443q-.714,0-.788.821-.017.205-.016.37a1.749,1.749,0,0,0,.016.263,1.485,1.485,0,0,1,.033.3.826.826,0,0,1-.008.115.673.673,0,0,1-.772.665q-.723-.115-.723-.994v-.041a4.973,4.973,0,0,0-.854,2.587q-.017.205-.016.411a3.528,3.528,0,0,0,.287,1.445A1.83,1.83,0,0,0,502.272,289.6Z" transform="translate(-302.355 -72.255)" fill="#fff"/>
        <g id="Group_6" data-name="Group 6" transform="translate(204.864 206.099)">
          <path id="Path_8" data-name="Path 8" d="M645.311,251.917q-.714,0-.714-.9,0-.107.008-.23a3.815,3.815,0,0,1,.1-.542q1.043-3.974,2.57-10.544a1.14,1.14,0,0,1,1.2-1.01,1.031,1.031,0,0,1,1.109.961,41.975,41.975,0,0,0,1.371,5.953q.673-1.182,1.462-2.825a28.439,28.439,0,0,1,1.655-3.153q.546-.813,1.121-.813a.784.784,0,0,1,.854.714,16.627,16.627,0,0,1,.2,2.825q0,.624-.025,1.33-.131,3.778-.369,6.5-.14,1.618-1.026,1.618-.854,0-.854-1.421,0-.115.008-.238.033-.657.082-1.388.205-3.235.271-6.3-.156.32-.394.854-.821,1.848-1.445,2.94-.977,1.675-1.65,1.675-1.774,0-2.48-5.1l-.049-.37q-.238,1.183-.46,2.357-.747,3.942-1.256,5.65Q646.165,251.917,645.311,251.917Z" transform="translate(-644.597 -238.688)" fill="#009eff"/>
          <path id="Path_9" data-name="Path 9" d="M855.165,289.419a3.24,3.24,0,0,1-3.449-2.644,6.316,6.316,0,0,1-.2-1.642q0-.4.041-.846a6.184,6.184,0,0,1,.8-2.7A4.826,4.826,0,0,1,854.4,279.6a5.253,5.253,0,0,1,2.213-.55,3.731,3.731,0,0,1,.427.025,2.927,2.927,0,0,1,1.881.813,2.022,2.022,0,0,1,.575,1.437q0,.115-.008.23-.32,3.646-6.052,4.287a3.2,3.2,0,0,0,.271.936,1.726,1.726,0,0,0,1.626,1.068,2.581,2.581,0,0,0,1.839-.969q1.125-1.191,1.536-1.191.427,0,.427.468a.747.747,0,0,1-.008.107,2.865,2.865,0,0,1-.706,1.4,6.254,6.254,0,0,1-1.076,1.076A3.443,3.443,0,0,1,855.165,289.419Zm-1.79-5.058q4.073-.427,4.278-2.751v-.074a.753.753,0,0,0-.509-.714,1.681,1.681,0,0,0-.673-.131,2.748,2.748,0,0,0-.821.14,2.966,2.966,0,0,0-1.519,1.2A4.743,4.743,0,0,0,853.375,284.361Z" transform="translate(-838.889 -276.585)" fill="#009eff"/>
        </g>
        <path id="Path_10" data-name="Path 10" d="M389.493,225.609a4.914,4.914,0,0,1,.995-.576,4.587,4.587,0,0,1,1.094-.25,4.75,4.75,0,0,1,2.352.1c.148.055.211-.181.065-.235a4.829,4.829,0,0,0-2.374-.112,4.073,4.073,0,0,0-2.255.866c-.127.09-.005.3.123.211Z" transform="translate(-200.034 -19.211)" fill="#2d2d2d"/>
        <path id="Path_11" data-name="Path 11" d="M522.5,228.37a4.37,4.37,0,0,1,1.94-.965,4.838,4.838,0,0,1,2.4-.111.122.122,0,0,0,.065-.235,5.1,5.1,0,0,0-2.531.111,4.627,4.627,0,0,0-2.048,1.027c-.12.1.053.273.173.173Z" transform="translate(-324.884 -21.559)" fill="#2d2d2d"/>
      </g>
      <path id="Icon_feather-check" data-name="Icon feather-check" d="M30,9,13.5,25.5,6,18" transform="translate(204.267 118.999)" fill="none" stroke="#fe6290" stroke-linecap="round" stroke-linejoin="round" stroke-width="4"/>
    </g>
  </g>
</svg>
