<svg id="user_dummy" xmlns="http://www.w3.org/2000/svg" width="72.181" height="82.126" viewBox="0 0 72.181 82.126">
  <g id="Group_3510" data-name="Group 3510" transform="translate(14.436)">
    <g id="Group_3509" data-name="Group 3509" transform="translate(0)">
      <path id="Path_26946" data-name="Path 26946" d="M142.654,0a21.654,21.654,0,1,0,21.654,21.654A21.679,21.679,0,0,0,142.654,0Z" transform="translate(-121)" fill="#d8d8d8"/>
    </g>
  </g>
  <g id="Group_3512" data-name="Group 3512" transform="translate(0 48.121)">
    <g id="Group_3511" data-name="Group 3511" transform="translate(0)">
      <path id="Path_26947" data-name="Path 26947" d="M94.033,309.335A30.87,30.87,0,0,0,71.9,300H62.278a30.87,30.87,0,0,0-22.13,9.335A31.558,31.558,0,0,0,31,331.6a2.406,2.406,0,0,0,2.406,2.406h67.369a2.406,2.406,0,0,0,2.406-2.406A31.558,31.558,0,0,0,94.033,309.335Z" transform="translate(-31 -300)" fill="#d8d8d8"/>
    </g>
  </g>
</svg>
